SplineFontDB: 3.2
FontName: LeipzigFrakturNormal
FullName: Leipzig Fraktur Normal
FamilyName: Leipzig Fraktur
Weight: Thin
Copyright: Generated by Fontographer 4.1
Version: 0.4 - 07-23-2003
ItalicAngle: 180
UnderlinePosition: -105
UnderlineWidth: 50
Ascent: 800
Descent: 200
InvalidEm: 0
sfntRevision: 0x00000000
LayerCount: 2
Layer: 0 1 "Back" 1
Layer: 1 1 "Fore" 0
XUID: [1021 1 1493997063 525132]
StyleMap: 0x0000
FSType: 0
OS2Version: 2
OS2_WeightWidthSlopeOnly: 0
OS2_UseTypoMetrics: 0
CreationTime: 1058975350
ModificationTime: 1699257544
PfmFamily: 81
TTFWeight: 5
TTFWidth: 5
LineGap: 150
VLineGap: 0
Panose: 0 0 0 0 0 0 0 0 0 0
OS2TypoAscent: 740
OS2TypoAOffset: 0
OS2TypoDescent: -197
OS2TypoDOffset: 0
OS2TypoLinegap: 307
OS2WinAscent: 955
OS2WinAOffset: 0
OS2WinDescent: 570
OS2WinDOffset: 0
HheadAscent: 711
HheadAOffset: 0
HheadDescent: -191
HheadDOffset: 0
OS2SubXSize: 750
OS2SubYSize: 750
OS2SubXOff: 0
OS2SubYOff: 200
OS2SupXSize: 750
OS2SupYSize: 750
OS2SupXOff: 0
OS2SupYOff: 300
OS2StrikeYSize: 50
OS2StrikeYPos: 327
OS2Vendor: 'ATEC'
OS2UnicodeRanges: 00000000.00000000.00000000.00000000
MarkAttachClasses: 1
DEI: 91125
TtTable: prep
NPUSHB
 33
 19
 19
 18
 18
 17
 17
 16
 16
 15
 15
 14
 14
 13
 13
 12
 12
 11
 11
 10
 10
 9
 9
 8
 8
 3
 3
 2
 2
 1
 1
 0
 0
 1
SCANTYPE
PUSHW_1
 511
SCANCTRL
RCVT
ROUND[Grey]
WCVTP
RCVT
ROUND[Grey]
WCVTP
RCVT
ROUND[Grey]
WCVTP
RCVT
ROUND[Grey]
WCVTP
RCVT
ROUND[Grey]
WCVTP
RCVT
ROUND[Grey]
WCVTP
RCVT
ROUND[Grey]
WCVTP
RCVT
ROUND[Grey]
WCVTP
RCVT
ROUND[Grey]
WCVTP
RCVT
ROUND[Grey]
WCVTP
RCVT
ROUND[Grey]
WCVTP
RCVT
ROUND[Grey]
WCVTP
RCVT
ROUND[Grey]
WCVTP
RCVT
ROUND[Grey]
WCVTP
RCVT
ROUND[Grey]
WCVTP
RCVT
ROUND[Grey]
WCVTP
PUSHB_4
 5
 4
 70
 0
CALL
PUSHB_4
 7
 6
 70
 0
CALL
PUSHB_2
 4
 4
RCVT
ROUND[Grey]
WCVTP
PUSHB_2
 6
 6
RCVT
ROUND[Grey]
WCVTP
EndTTInstrs
TtTable: fpgm
NPUSHB
 1
 0
FDEF
SROUND
RCVT
DUP
PUSHB_1
 3
CINDEX
RCVT
SWAP
SUB
ROUND[Grey]
RTG
SWAP
ROUND[Grey]
ADD
WCVTP
ENDF
EndTTInstrs
ShortTable: cvt  23
  -191
  -30

StartChar: .notdef
Encoding: 65536 -1 0
Width: 500
Flags: W
LayerCount: 2
Fore
SplineSet
63 0 m 1,0,-1
 63 711 l 1,1,-1
 438 711 l 1,2,-1
 438 0 l 1,3,-1
 63 0 l 1,0,-1
125 63 m 1,4,-1
 375 63 l 1,5,-1
 375 649 l 1,6,-1
 125 649 l 1,7,-1
 125 63 l 1,4,-1
EndSplineSet
Validated: 1
EndChar

StartChar: exclam
Encoding: 33 33 4
Width: 259
Flags: W
LayerCount: 2
Fore
SplineSet
130 101 m 1,0,1
 137 69 137 69 183 46 c 0,2,3
 189 40 189 40 186 28 c 0,4,5
 185 26 185 26 184 25 c 0,6,7
 160 19 160 19 134 -22 c 0,8,9
 127 -29 127 -29 111 -29 c 2,10,-1
 110 -29 l 1,11,12
 102 5 102 5 57 23 c 1,13,14
 53 29 53 29 53 44 c 1,15,16
 91 58 91 58 106 98 c 1,17,18
 116 108 116 108 130 101 c 1,0,1
168 621 m 0,19,20
 153 377 153 377 128 207 c 1,21,22
 130 207 130 207 120 205 c 0,23,24
 117 205 117 205 114 211 c 0,25,26
 73 442 73 442 67 621 c 0,27,28
 66 643 66 643 80.5 658.5 c 128,-1,29
 95 674 95 674 117 674 c 2,30,-1
 118 674 l 1,31,-1
 119 674 l 2,32,33
 135 674 135 674 151 660 c 0,34,35
 169 643 169 643 168 621 c 0,19,20
EndSplineSet
Validated: 33
EndChar

StartChar: quotedbl
Encoding: 34 34 5
Width: 404
Flags: W
LayerCount: 2
Fore
SplineSet
128 704 m 1,0,-1
 153 697 l 1,1,2
 159 691 159 691 167 675 c 0,3,4
 168 673 168 673 168 670 c 2,5,-1
 168 664 l 1,6,-1
 39 399 l 1,7,-1
 19 399 l 1,8,-1
 82 669 l 1,9,10
 101 703 101 703 128 703 c 1,11,-1
 128 704 l 1,0,-1
290 708 m 1,12,-1
 298 708 l 2,13,14
 306 708 306 708 314 704.5 c 128,-1,15
 322 701 322 701 333 688 c 0,16,17
 339 678 339 678 339 666 c 2,18,-1
 339 665 l 1,19,-1
 339 664 l 1,20,-1
 339 663 l 1,21,-1
 339 661 l 2,22,23
 337 646 337 646 328 635 c 2,24,-1
 208 402 l 1,25,-1
 186 402 l 1,26,-1
 253 668 l 2,27,28
 256 681 256 681 268 695 c 0,29,30
 278 705 278 705 290 707 c 1,31,-1
 290 708 l 1,12,-1
EndSplineSet
Validated: 1
EndChar

StartChar: numbersign
Encoding: 35 35 6
Width: 725
Flags: W
LayerCount: 2
Fore
SplineSet
443 477 m 1,0,-1
 458 477 l 1,1,-1
 512 433 l 1,2,3
 524 431 524 431 535 440 c 1,4,-1
 549 428 l 1,5,-1
 485 375 l 1,6,-1
 473 375 l 1,7,-1
 411 422 l 1,8,-1
 383 395 l 1,9,10
 372 334 372 334 372 268 c 0,11,12
 372 189 372 189 387 109 c 1,13,14
 410 63 410 63 452 63 c 0,15,16
 459 63 459 63 467 65 c 2,17,-1
 526 112 l 1,18,-1
 543 101 l 1,19,-1
 406 -25 l 1,20,21
 399 -23 399 -23 396 -18 c 2,22,-1
 396 -2 l 1,23,24
 349 14 349 14 330 53 c 0,25,26
 319 76 319 76 309 138 c 1,27,28
 309 305 309 305 309 317 c 0,29,30
 310 329 310 329 315 359 c 1,31,-1
 443 477 l 1,0,-1
106 479 m 1,32,33
 111 477 111 477 119 469 c 1,34,35
 119 451 119 451 118 457 c 1,36,37
 186 415 186 415 190 412 c 0,38,39
 236 372 236 372 236 311 c 0,40,41
 236 226 236 226 147 97 c 0,42,43
 144 92 144 92 144 86 c 0,44,45
 144 62 144 62 198 48 c 1,46,-1
 257 95 l 1,47,-1
 269 79 l 1,48,-1
 154 -25 l 1,49,50
 141 -22 141 -22 135 -14 c 1,51,52
 140 -16 140 -16 140 -6 c 1,53,-1
 47 46 l 1,54,-1
 47 46 l 1,55,-1
 47 48 l 2,56,57
 47 50 47 50 51 62 c 1,58,59
 186 149 186 149 186 246 c 0,60,61
 186 299 186 299 146 341 c 0,62,63
 109 380 109 380 57 392 c 1,64,65
 43 373 43 373 30 373 c 0,66,67
 23 373 23 373 18 383 c 1,68,-1
 106 479 l 1,32,33
578 43 m 0,69,70
 578 69 578 69 596.5 88 c 128,-1,71
 615 107 615 107 641 107 c 256,72,73
 667 107 667 107 685.5 88 c 128,-1,74
 704 69 704 69 704 43 c 0,75,76
 704 16 704 16 685.5 -3 c 128,-1,77
 667 -22 667 -22 641 -22 c 256,78,79
 615 -22 615 -22 596.5 -3 c 128,-1,80
 578 16 578 16 578 43 c 0,69,70
EndSplineSet
Validated: 5
EndChar

StartChar: dollar
Encoding: 36 36 7
Width: 404
Flags: W
LayerCount: 2
Fore
SplineSet
365 505 m 0,0,1
 367 455 367 455 331 400 c 1,2,3
 297 356 297 356 264 312 c 1,4,5
 365 256 365 256 365 168 c 0,6,7
 365 112 365 112 315 66 c 0,8,9
 294 46 294 46 258 27 c 0,10,11
 227 11 227 11 196 -5 c 1,12,13
 188 -18 188 -18 180 -21 c 0,14,15
 160 -21 160 -21 135 4 c 1,16,-1
 36 63 l 1,17,-1
 32 76 l 1,18,19
 112 134 112 134 112 190 c 1,20,21
 80 250 80 250 45 297 c 0,22,23
 37 308 37 308 37 321 c 0,24,25
 37 336 37 336 48 355 c 1,26,27
 64 371 64 371 163 467 c 0,28,29
 179 482 179 482 201 471 c 1,30,31
 238 430 238 430 295 430 c 1,32,33
 325 434 325 434 339 458 c 0,34,35
 351 478 351 478 349 502 c 0,36,37
 346 532 346 532 326 548.5 c 128,-1,38
 306 565 306 565 279 565 c 2,39,-1
 278 565 l 1,40,-1
 277 565 l 1,41,-1
 275 565 l 1,42,43
 234 559 234 559 234 517 c 1,44,-1
 194 539 l 1,45,46
 222 595 222 595 276 590 c 0,47,48
 361 580 361 580 365 505 c 0,0,1
213 243 m 1,49,50
 201 233 201 233 194.5 225.5 c 128,-1,51
 188 218 188 218 99 105 c 1,52,-1
 201 41 l 2,53,54
 210 32 210 32 224 32 c 0,55,56
 246 32 246 32 273 54 c 0,57,58
 297 74 297 74 306 95 c 0,59,60
 311 107 311 107 311 122 c 0,61,62
 311 160 311 160 279.5 197.5 c 128,-1,63
 248 235 248 235 213 242 c 1,64,-1
 213 243 l 1,49,50
139 410 m 1,65,66
 109 391 109 391 95 369 c 1,67,-1
 95 369 l 1,68,69
 95 357 95 357 103 341 c 2,70,-1
 167 237 l 1,71,-1
 173 235 l 1,72,-1
 274 357 l 1,73,74
 203 378 203 378 139 409 c 1,75,-1
 139 410 l 1,65,66
EndSplineSet
Validated: 37
EndChar

StartChar: percent
Encoding: 37 37 8
Width: 996
Flags: W
LayerCount: 2
Fore
SplineSet
635 704 m 1,0,-1
 671 704 l 1,1,-1
 293 -35 l 1,2,-1
 255 -35 l 1,3,-1
 635 704 l 1,0,-1
679 287 m 0,4,5
 753 287 753 287 795 248 c 0,6,7
 842 205 842 205 841 122 c 0,8,9
 840 58 840 58 792.5 9 c 128,-1,10
 745 -40 745 -40 679 -37 c 0,11,12
 524 -31 524 -31 519 122 c 0,13,14
 517 186 517 186 564.5 236.5 c 128,-1,15
 612 287 612 287 679 287 c 0,4,5
585 122 m 0,16,17
 582 68 582 68 604 30 c 0,18,19
 629 -16 629 -16 679 -16 c 0,20,21
 728 -16 728 -16 754 32 c 0,22,23
 775 69 775 69 776 122 c 0,24,25
 777 174 777 174 755 214 c 0,26,27
 728 262 728 262 679 262 c 0,28,29
 625 259 625 259 603 216 c 0,30,31
 588 186 588 186 585 122 c 0,16,17
243 678 m 0,32,33
 317 678 317 678 359 639 c 0,34,35
 406 596 406 596 405 513 c 0,36,37
 404 449 404 449 356.5 400 c 128,-1,38
 309 351 309 351 243 354 c 0,39,40
 88 360 88 360 83 513 c 0,41,42
 81 577 81 577 128.5 627.5 c 128,-1,43
 176 678 176 678 243 678 c 0,32,33
149 513 m 0,44,45
 146 459 146 459 168 421 c 0,46,47
 193 375 193 375 243 375 c 0,48,49
 292 375 292 375 318 423 c 0,50,51
 339 460 339 460 340 513 c 0,52,53
 341 565 341 565 319 605 c 0,54,55
 292 653 292 653 243 653 c 0,56,57
 189 650 189 650 167 607 c 0,58,59
 152 577 152 577 149 513 c 0,44,45
EndSplineSet
Validated: 33
EndChar

StartChar: ampersand
Encoding: 38 38 9
Width: 644
Flags: W
LayerCount: 2
Fore
SplineSet
357 500 m 0,0,1
 343 421 343 421 245 357 c 1,2,-1
 393 138 l 1,3,4
 396 143 396 143 447 286 c 0,5,6
 457 315 457 315 484 335.5 c 128,-1,7
 511 356 511 356 541 356 c 0,8,9
 576 356 576 356 603 329 c 1,10,-1
 572 272 l 1,11,12
 568 274 568 274 549 289 c 0,13,14
 536 300 536 300 524 300 c 0,15,16
 504 300 504 300 484.5 282 c 128,-1,17
 465 264 465 264 460 245 c 2,18,-1
 410 115 l 1,19,-1
 466 47 l 2,20,21
 487 26 487 26 512 26 c 0,22,23
 562 26 562 26 585 83 c 1,24,25
 593 86 593 86 610 86 c 2,26,-1
 612 86 l 1,27,28
 589 10 589 10 526 -15 c 0,29,30
 504 -23 504 -23 484 -23 c 0,31,32
 419 -23 419 -23 369 49 c 1,33,34
 298 -22 298 -22 209 -22 c 0,35,36
 135 -22 135 -22 82 18 c 0,37,38
 23 62 23 62 23 136 c 0,39,40
 23 198 23 198 69 255 c 0,41,42
 111 307 111 307 173 335 c 1,43,44
 115 412 115 412 110 482 c 0,45,46
 110 483 110 483 110 486 c 2,47,-1
 110 488 l 2,48,49
 110 535 110 535 140 574 c 0,50,51
 174 619 174 619 228 619 c 0,52,53
 281 619 281 619 317 595 c 0,54,55
 358 568 358 568 358 520 c 0,56,57
 358 510 358 510 357 500 c 0,0,1
185 312 m 1,58,59
 101 256 101 256 101 174 c 0,60,61
 101 159 101 159 104 143 c 0,62,63
 120 43 120 43 235 15 c 0,64,65
 242 13 242 13 250 13 c 0,66,67
 277 13 277 13 308 28 c 128,-1,68
 339 43 339 43 354 62 c 1,69,-1
 185 312 l 1,58,59
228 590 m 0,70,71
 165 579 165 579 165 515 c 0,72,73
 165 502 165 502 168 488 c 0,74,75
 181 433 181 433 233 373 c 1,76,77
 308 438 308 438 308 520 c 0,78,79
 308 591 308 591 245 591 c 0,80,81
 237 591 237 591 228 590 c 0,70,71
EndSplineSet
Validated: 1
EndChar

StartChar: quotesingle
Encoding: 39 39 10
Width: 259
Flags: W
LayerCount: 2
Fore
SplineSet
112 704 m 1,0,-1
 132 704 l 1,1,2
 137 681 137 681 151 669 c 0,3,4
 158 664 158 664 187 649 c 0,5,6
 191 643 191 643 191 633 c 0,7,8
 190 632 190 632 189 627 c 1,9,10
 172 622 172 622 131 554 c 0,11,12
 87 481 87 481 63 410 c 0,13,14
 62 407 62 407 62 405 c 1,15,-1
 36 406 l 1,16,17
 79 556 79 556 79 588 c 0,18,19
 79 623 79 623 56 627 c 1,20,21
 54 632 54 632 54 643 c 1,22,23
 54 642 54 642 55 647 c 1,24,25
 116 675 116 675 112 704 c 1,0,-1
EndSplineSet
Validated: 33
EndChar

StartChar: parenleft
Encoding: 40 40 11
Width: 259
Flags: W
LayerCount: 2
Fore
SplineSet
250 687 m 1,0,-1
 248 658 l 1,1,2
 179 586 179 586 140 484 c 0,3,4
 103 386 103 386 103 283 c 1,5,6
 119 134 119 134 140 75 c 0,7,8
 165 4 165 4 248 -111 c 1,9,-1
 248 -133 l 1,10,11
 144 -31 144 -31 100 49 c 0,12,13
 46 149 46 149 46 276 c 0,14,15
 46 396 46 396 101 504 c 0,16,17
 154 609 154 609 250 686 c 1,18,-1
 250 687 l 1,0,-1
EndSplineSet
Validated: 5
EndChar

StartChar: parenright
Encoding: 41 41 12
Width: 259
Flags: W
LayerCount: 2
Fore
SplineSet
3 685 m 1,0,1
 88 616 88 616 144 512 c 0,2,3
 204 402 204 402 204 298 c 0,4,5
 204 148 204 148 159 57 c 0,6,7
 119 -24 119 -24 3 -134 c 1,8,9
 3 -133 3 -133 3 -131 c 0,10,11
 2 -130 2 -130 2 -129 c 2,12,-1
 2 -119 l 2,13,14
 2 -116 2 -116 3 -114 c 0,15,16
 3 -108 3 -108 5 -104 c 0,17,18
 12 -94 12 -94 20 -86 c 0,19,20
 149 43 149 43 149 300 c 0,21,22
 149 393 149 393 119 474 c 0,23,24
 97 534 97 534 57 590 c 0,25,26
 30 624 30 624 4 659 c 0,27,28
 2 660 2 660 2 673 c 2,29,-1
 2 676 l 2,30,31
 2 677 2 677 3 679 c 2,32,-1
 3 685 l 1,0,1
EndSplineSet
Validated: 1
EndChar

StartChar: asterisk
Encoding: 42 42 13
Width: 368
Flags: W
LayerCount: 2
Fore
SplineSet
167 708 m 1,0,-1
 181 708 l 1,1,-1
 200 565 l 1,2,-1
 329 619 l 1,3,-1
 338 605 l 1,4,-1
 226 518 l 1,5,-1
 339 427 l 1,6,-1
 333 417 l 1,7,-1
 201 472 l 1,8,-1
 181 332 l 1,9,-1
 167 332 l 1,10,-1
 146 472 l 1,11,-1
 12 419 l 1,12,-1
 4 430 l 1,13,-1
 118 518 l 1,14,-1
 10 605 l 1,15,-1
 14 619 l 1,16,-1
 146 565 l 1,17,-1
 167 708 l 1,0,-1
EndSplineSet
Validated: 1
EndChar

StartChar: plus
Encoding: 43 43 14
Width: 608
Flags: W
LayerCount: 2
Fore
SplineSet
276 564 m 1,0,-1
 324 564 l 1,1,-1
 324 315 l 1,2,-1
 522 315 l 1,3,-1
 522 269 l 1,4,-1
 322 269 l 1,5,-1
 322 17 l 1,6,-1
 276 17 l 1,7,-1
 276 269 l 1,8,-1
 72 269 l 1,9,-1
 72 315 l 1,10,-1
 276 315 l 1,11,-1
 276 564 l 1,0,-1
EndSplineSet
Validated: 1
EndChar

StartChar: comma
Encoding: 44 44 15
Width: 259
Flags: W
LayerCount: 2
Fore
SplineSet
144 119 m 1,0,1
 144 118 144 118 145 118 c 2,2,-1
 146 118 l 1,3,-1
 148 118 l 1,4,-1
 148 118 l 1,5,6
 160 118 160 118 171 107 c 128,-1,7
 182 96 182 96 182 84 c 2,8,-1
 182 73 l 2,9,10
 182 72 182 72 182 71 c 0,11,12
 181 69 181 69 181 68 c 2,13,-1
 53 -187 l 1,14,-1
 32 -187 l 1,15,-1
 93 83 l 1,16,17
 108 118 108 118 141 118 c 2,18,-1
 143 118 l 1,19,-1
 144 118 l 1,20,-1
 144 119 l 1,0,1
EndSplineSet
Validated: 5
EndChar

StartChar: hyphen
Encoding: 45 45 16
AltUni2: 002010.ffffffff.0
Width: 295
Flags: W
LayerCount: 2
Fore
SplineSet
252 262 m 1,0,-1
 252 218 l 1,1,-1
 57 91 l 1,2,-1
 37 82 l 1,3,-1
 37 119 l 1,4,-1
 252 262 l 1,0,-1
252 376 m 1,5,-1
 252 336 l 1,6,-1
 37 194 l 1,7,-1
 37 236 l 1,8,-1
 252 376 l 1,5,-1
EndSplineSet
Validated: 1
EndChar

StartChar: period
Encoding: 46 46 17
Width: 259
Flags: W
LayerCount: 2
Fore
SplineSet
64 42 m 0,0,1
 64 68 64 68 82.5 87 c 128,-1,2
 101 106 101 106 127 106 c 256,3,4
 153 106 153 106 171.5 87 c 128,-1,5
 190 68 190 68 190 42 c 0,6,7
 190 15 190 15 171.5 -4 c 128,-1,8
 153 -23 153 -23 127 -23 c 256,9,10
 101 -23 101 -23 82.5 -4 c 128,-1,11
 64 15 64 15 64 42 c 0,0,1
EndSplineSet
Validated: 1
EndChar

StartChar: slash
Encoding: 47 47 18
Width: 259
Flags: W
LayerCount: 2
Fore
SplineSet
257 712 m 1,0,-1
 290 705 l 1,1,-1
 21 -106 l 1,2,-1
 -8 -98 l 1,3,-1
 257 712 l 1,0,-1
EndSplineSet
Validated: 1
EndChar

StartChar: zero
Encoding: 48 48 19
Width: 516
Flags: W
LayerCount: 2
Fore
SplineSet
255 667 m 0,0,1
 367 666 367 666 422 546 c 0,2,3
 464 453 464 453 464 317 c 0,4,5
 464 195 464 195 421 104 c 0,6,7
 366 -16 366 -16 255 -14 c 0,8,9
 147 -12 147 -12 91 104 c 0,10,11
 49 193 49 193 47 314 c 0,12,13
 44 440 44 440 88 539 c 0,14,15
 144 669 144 669 255 667 c 0,0,1
255 643 m 256,16,17
 169 643 169 643 144 516 c 0,18,19
 135 471 135 471 133 314 c 0,20,21
 131 193 131 193 145 130 c 0,22,23
 172 10 172 10 255 10 c 0,24,25
 382 10 382 10 379 314 c 0,26,27
 378 456 378 456 367 509 c 0,28,29
 341 643 341 643 255 643 c 256,16,17
EndSplineSet
Validated: 33
EndChar

StartChar: one
Encoding: 49 49 20
Width: 516
Flags: W
LayerCount: 2
Fore
SplineSet
264 669 m 1,0,-1
 317 669 l 1,1,-1
 317 66 l 2,2,3
 317 13 317 13 414 13 c 1,4,-1
 414 0 l 1,5,-1
 139 0 l 1,6,-1
 139 14 l 1,7,8
 240 14 240 14 241 65 c 2,9,-1
 238 566 l 2,10,11
 235 585 235 585 230 597 c 1,12,-1
 105 489 l 1,13,-1
 90 503 l 1,14,-1
 264 669 l 1,0,-1
EndSplineSet
Validated: 1
EndChar

StartChar: two
Encoding: 50 50 21
Width: 516
Flags: W
LayerCount: 2
Fore
SplineSet
438 461 m 0,0,1
 424 372 424 372 375 323 c 0,2,3
 318 266 318 266 141 95 c 1,4,-1
 119 66 l 1,5,-1
 359 66 l 2,6,7
 362 64 362 64 366 64 c 0,8,9
 386 64 386 64 419 115 c 0,10,11
 432 135 432 135 442 157 c 1,12,-1
 457 154 l 1,13,-1
 412 -3 l 1,14,-1
 32 -3 l 1,15,-1
 53 33 l 1,16,17
 83 64 83 64 113 96 c 2,18,-1
 291 285 l 2,19,20
 352 350 352 350 361 449 c 0,21,22
 361 451 361 451 361 451 c 1,23,24
 353 577 353 577 238 594 c 0,25,26
 225 595 225 595 214 595 c 0,27,28
 156 595 156 595 114 556 c 128,-1,29
 72 517 72 517 57 455 c 1,30,-1
 38 456 l 1,31,32
 47 546 47 546 98 602 c 0,33,34
 153 662 153 662 241 669 c 0,35,36
 318 674 318 674 377 626 c 0,37,38
 441 575 441 575 441 493 c 0,39,40
 441 477 441 477 438 461 c 0,0,1
EndSplineSet
Validated: 33
EndChar

StartChar: three
Encoding: 51 51 22
Width: 516
Flags: W
LayerCount: 2
Fore
SplineSet
411 509 m 0,0,1
 404 428 404 428 247 365 c 1,2,3
 330 362 330 362 389 318 c 0,4,5
 454 268 454 268 454 188 c 0,6,7
 454 100 454 100 386 41 c 0,8,9
 321 -14 321 -14 232 -14 c 0,10,11
 164 -14 164 -14 108 12 c 0,12,13
 37 45 37 45 31 106 c 0,14,15
 28 128 28 128 39 146.5 c 128,-1,16
 50 165 50 165 73 165 c 256,17,18
 96 165 96 165 109 147.5 c 128,-1,19
 122 130 122 130 122 106 c 0,20,21
 122 102 122 102 119 82 c 0,22,23
 117 68 117 68 121 58 c 0,24,25
 139 2 139 2 232 2 c 0,26,27
 306 2 306 2 342 54 c 0,28,29
 375 101 375 101 371 176 c 0,30,31
 367 239 367 239 319.5 286 c 128,-1,32
 272 333 272 333 209 333 c 0,33,34
 196 333 196 333 172.5 328 c 128,-1,35
 149 323 149 323 135 323 c 1,36,-1
 135 345 l 1,37,38
 206 360 206 360 268 401 c 0,39,40
 346 452 346 452 338 510 c 0,41,42
 326 590 326 590 253 612 c 0,43,44
 232 618 232 618 209 618 c 0,45,46
 168 618 168 618 123 593 c 128,-1,47
 78 568 78 568 61 534 c 1,48,-1
 46 545 l 1,49,50
 70 602 70 602 122 636 c 128,-1,51
 174 670 174 670 236 670 c 0,52,53
 311 670 311 670 362 628 c 0,54,55
 417 582 417 582 411 509 c 0,0,1
EndSplineSet
Validated: 33
EndChar

StartChar: four
Encoding: 52 52 23
Width: 516
Flags: W
LayerCount: 2
Fore
SplineSet
281 669 m 1,0,-1
 337 669 l 1,1,-1
 337 243 l 1,2,-1
 454 243 l 1,3,-1
 454 186 l 1,4,-1
 338 186 l 1,5,-1
 338 48 l 2,6,7
 338 22 338 22 377 15 c 0,8,9
 389 13 389 13 435 13 c 1,10,-1
 435 0 l 1,11,-1
 163 0 l 1,12,-1
 163 12 l 1,13,14
 165 10 165 10 184 10 c 0,15,16
 264 10 264 10 264 62 c 2,17,-1
 264 186 l 1,18,-1
 12 186 l 1,19,-1
 12 232 l 1,20,-1
 23 260 l 1,21,-1
 281 669 l 1,0,-1
265 591 m 1,22,-1
 48 249 l 1,23,-1
 48 240 l 1,24,-1
 265 240 l 1,25,-1
 265 591 l 1,22,-1
EndSplineSet
Validated: 1
EndChar

StartChar: five
Encoding: 53 53 24
Width: 516
Flags: W
LayerCount: 2
Fore
SplineSet
101 668 m 1,0,1
 101 668 101 668 113 668 c 1,2,3
 171 640 171 640 244 640 c 0,4,5
 300 640 300 640 423 666 c 1,6,7
 423 666 423 666 428 666 c 2,8,-1
 432 666 l 1,9,10
 372 564 372 564 217 564 c 0,11,12
 173 564 173 564 128 573 c 2,13,-1
 118 575 l 1,14,-1
 97 376 l 1,15,16
 157 421 157 421 240 421 c 0,17,18
 332 421 332 421 392.5 356 c 128,-1,19
 453 291 453 291 447 199 c 0,20,21
 440 107 440 107 382 48 c 0,22,23
 321 -13 321 -13 229 -13 c 0,24,25
 157 -13 157 -13 100 15 c 0,26,27
 28 50 28 50 28 116 c 0,28,29
 28 166 28 166 74 166 c 0,30,31
 119 166 119 166 119 120 c 2,32,-1
 119 118 l 1,33,34
 106 85 106 85 112 60 c 0,35,36
 132 3 132 3 211 3 c 0,37,38
 283 3 283 3 325.5 47.5 c 128,-1,39
 368 92 368 92 368 165 c 0,40,41
 368 233 368 233 339 289 c 0,42,43
 305 353 305 353 246 370 c 0,44,45
 227 375 227 375 207 375 c 0,46,47
 146 375 146 375 78 317 c 1,48,-1
 65 328 l 1,49,50
 101 493 101 493 101 667 c 2,51,-1
 101 668 l 1,0,1
EndSplineSet
Validated: 33
EndChar

StartChar: six
Encoding: 54 54 25
Width: 516
Flags: W
LayerCount: 2
Fore
SplineSet
437 559 m 1,0,1
 437 559 437 559 437 558 c 0,2,3
 437 541 437 541 427.5 528 c 128,-1,4
 418 515 418 515 402 515 c 2,5,-1
 399 515 l 2,6,7
 359 515 359 515 351 553 c 1,8,9
 351 581 351 581 347 607 c 1,10,11
 328 650 328 650 284 648 c 0,12,13
 181 644 181 644 148 514 c 0,14,15
 130 446 130 446 130 304 c 1,16,17
 152 353 152 353 200 384.5 c 128,-1,18
 248 416 248 416 302 416 c 0,19,20
 373 416 373 416 419 360 c 128,-1,21
 465 304 465 304 465 227 c 0,22,23
 465 134 465 134 411 64 c 0,24,25
 353 -11 353 -11 262 -11 c 0,26,27
 187 -11 187 -11 130 45 c 0,28,29
 81 93 81 93 56 170 c 1,30,31
 50 210 50 210 50 258 c 0,32,33
 50 416 50 416 102 528 c 0,34,35
 165 669 165 669 288 666 c 0,36,37
 430 663 430 663 437 559 c 1,0,1
137 167 m 0,38,39
 141 110 141 110 173 61 c 0,40,41
 210 2 210 2 262 1 c 0,42,43
 323 0 323 0 356 49 c 0,44,45
 386 93 386 93 386 167 c 0,46,47
 386 189 386 189 383 212 c 0,48,49
 377 263 377 263 353 304 c 0,50,51
 324 353 324 353 281 365 c 0,52,53
 264 370 264 370 249 370 c 0,54,55
 192 370 192 370 161 309 c 0,56,57
 135 259 135 259 135 191 c 0,58,59
 135 179 135 179 137 167 c 0,38,39
EndSplineSet
Validated: 33
EndChar

StartChar: seven
Encoding: 55 55 26
Width: 516
Flags: W
LayerCount: 2
Fore
SplineSet
112 671 m 1,0,-1
 136 671 l 1,1,-1
 146 661 l 1,2,-1
 485 661 l 1,3,-1
 485 641 l 1,4,5
 366 482 366 482 301 334 c 0,6,7
 203 109 203 109 283 4 c 1,8,-1
 183 -24 l 1,9,10
 169 13 169 13 169 58 c 0,11,12
 169 173 169 173 266 344 c 0,13,14
 298 398 298 398 428 587 c 1,15,-1
 165 587 l 2,16,17
 145 585 145 585 131 576 c 1,18,19
 97 538 97 538 76 490 c 1,20,-1
 57 491 l 1,21,-1
 112 671 l 1,0,-1
EndSplineSet
Validated: 33
EndChar

StartChar: eight
Encoding: 56 56 27
Width: 516
Flags: W
LayerCount: 2
Fore
SplineSet
264 668 m 0,0,1
 332 668 332 668 385 632 c 0,2,3
 444 592 444 592 446 527 c 0,4,5
 448 466 448 466 406 427 c 0,6,7
 383 406 383 406 312 371 c 1,8,9
 377 335 377 335 421 285 c 0,10,11
 474 223 474 223 474 161 c 0,12,13
 474 135 474 135 465 110 c 0,14,15
 417 -13 417 -13 258 -13 c 0,16,17
 177 -13 177 -13 122 22 c 0,18,19
 59 61 59 61 47 137 c 0,20,21
 45 149 45 149 45 161 c 0,22,23
 45 258 45 258 190 340 c 1,24,25
 140 369 140 369 108 410 c 0,26,27
 70 458 70 458 68 508 c 0,28,29
 66 579 66 579 131 626 c 0,30,31
 190 668 190 668 264 668 c 0,0,1
103 142 m 1,32,33
 115 77 115 77 155.5 38 c 128,-1,34
 196 -1 196 -1 260 -1 c 2,35,-1
 264 -1 l 2,36,37
 318 -1 318 -1 359.5 32.5 c 128,-1,38
 401 66 401 66 401 119 c 0,39,40
 401 191 401 191 336 248 c 0,41,42
 294 287 294 287 209 327 c 1,43,44
 156 298 156 298 134 266 c 0,45,46
 103 221 103 221 103 142 c 1,32,33
287 381 m 1,47,48
 333 399 333 399 363 434.5 c 128,-1,49
 393 470 393 470 393 513 c 0,50,51
 393 566 393 566 355.5 605 c 128,-1,52
 318 644 318 644 266 644 c 0,53,54
 217 644 217 644 178.5 607 c 128,-1,55
 140 570 140 570 140 528 c 0,56,57
 140 484 140 484 194 438 c 0,58,59
 236 402 236 402 287 381 c 1,47,48
EndSplineSet
Validated: 33
EndChar

StartChar: nine
Encoding: 57 57 28
Width: 516
Flags: W
LayerCount: 2
Fore
SplineSet
234 665 m 0,0,1
 333 665 333 665 397 587 c 0,2,3
 454 517 454 517 462 415 c 0,4,5
 463 399 463 399 463 382 c 0,6,7
 463 247 463 247 408 132 c 0,8,9
 340 -14 340 -14 219 -14 c 0,10,11
 164 -14 164 -14 121 13 c 0,12,13
 72 44 72 44 72 94 c 0,14,15
 72 113 72 113 85 125 c 128,-1,16
 98 137 98 137 118 137 c 0,17,18
 127 134 127 134 136 131 c 0,19,20
 152 119 152 119 156 90 c 0,21,22
 162 42 162 42 173 26 c 0,23,24
 189 3 189 3 233 3 c 0,25,26
 309 3 309 3 349 105 c 0,27,28
 381 186 381 186 381 292 c 0,29,30
 381 324 381 324 377 348 c 1,31,32
 350 296 350 296 330 277 c 0,33,34
 299 248 299 248 245 238 c 0,35,36
 229 235 229 235 214 235 c 0,37,38
 143 235 143 235 94 291 c 0,39,40
 48 344 48 344 44 421 c 0,41,42
 39 523 39 523 92 594 c 128,-1,43
 145 665 145 665 234 665 c 0,0,1
233 644 m 1,44,45
 121 627 121 627 121 475 c 0,46,47
 121 457 121 457 123 436 c 0,48,49
 127 378 127 378 159 332 c 0,50,51
 196 278 196 278 250 278 c 0,52,53
 311 278 311 278 345 328 c 0,54,55
 375 371 375 371 375 435 c 0,56,57
 375 506 375 506 342 568 c 0,58,59
 302 643 302 643 237 643 c 2,60,-1
 233 643 l 1,61,-1
 233 644 l 1,44,45
EndSplineSet
Validated: 33
EndChar

StartChar: colon
Encoding: 58 58 29
Width: 276
Flags: W
LayerCount: 2
Fore
SplineSet
118 102 m 1,0,-1
 139 102 l 1,1,2
 145 73 145 73 172 56 c 0,3,4
 181 50 181 50 191 46 c 1,5,-1
 191 27 l 1,6,7
 176 15 176 15 149 -1 c 1,8,9
 141 -15 141 -15 139 -29 c 0,10,11
 138 -29 138 -29 137 -30 c 0,12,13
 135 -30 135 -30 134 -30 c 0,14,15
 133 -31 133 -31 132 -31 c 2,16,-1
 125 -31 l 2,17,18
 124 -30 124 -30 124 -30 c 1,19,-1
 122 -30 l 1,20,21
 115 -17 115 -17 96 6 c 1,22,23
 81 17 81 17 67 22 c 1,24,-1
 63 45 l 1,25,26
 103 58 103 58 116 96 c 1,27,-1
 116 98 l 2,28,29
 118 102 118 102 118 101 c 1,30,-1
 118 102 l 1,0,-1
119 459 m 1,31,-1
 139 459 l 1,32,33
 148 419 148 419 181 407 c 0,34,35
 186 406 186 406 196 403 c 1,36,-1
 196 383 l 1,37,38
 178 378 178 378 162 364 c 1,39,40
 155 351 155 351 138 326 c 0,41,42
 137 326 137 326 136 326 c 0,43,44
 134 325 134 325 133 325 c 2,45,-1
 124 325 l 2,46,47
 121 325 121 325 119 326 c 2,48,-1
 119 330 l 2,49,50
 119 332 119 332 118 334 c 0,51,52
 118 344 118 344 112 350 c 0,53,54
 100 369 100 369 74 379 c 0,55,56
 72 380 72 380 69 382 c 2,57,-1
 66 384 l 2,58,59
 65 384 65 384 63 384 c 1,60,-1
 63 403 l 1,61,62
 80 410 80 410 101 426 c 0,63,64
 115 440 115 440 119 458 c 1,65,-1
 119 459 l 1,31,-1
EndSplineSet
Validated: 1
EndChar

StartChar: semicolon
Encoding: 59 59 30
Width: 276
Flags: W
LayerCount: 2
Fore
SplineSet
129 115 m 1,0,-1
 149 115 l 2,1,2
 152 115 152 115 156 113 c 0,3,4
 166 110 166 110 176 98 c 0,5,6
 183 91 183 91 183 79 c 0,7,8
 183 69 183 69 177 59 c 0,9,10
 127 -68 127 -68 57 -181 c 0,11,12
 55 -190 55 -190 48 -193 c 0,13,14
 47 -194 47 -194 46 -194 c 2,15,-1
 42 -194 l 2,16,17
 36 -194 36 -194 32 -192 c 1,18,-1
 90 70 l 2,19,20
 94 87 94 87 106 99 c 128,-1,21
 118 111 118 111 129 114 c 1,22,-1
 129 115 l 1,0,-1
119 459 m 1,23,-1
 139 459 l 1,24,25
 144 436 144 436 158 424 c 0,26,27
 165 419 165 419 194 404 c 0,28,29
 198 398 198 398 198 388 c 0,30,31
 197 387 197 387 196 382 c 1,32,33
 177 377 177 377 161 364 c 0,34,35
 142 348 142 348 140 331 c 0,36,37
 139 329 139 329 139 326 c 1,38,-1
 119 327 l 1,39,40
 114 359 114 359 63 382 c 0,41,42
 61 387 61 387 61 398 c 1,43,44
 61 397 61 397 62 402 c 1,45,46
 123 430 123 430 119 459 c 1,23,-1
EndSplineSet
Validated: 33
EndChar

StartChar: less
Encoding: 60 60 31
Width: 204
Flags: W
LayerCount: 2
Fore
SplineSet
158 417 m 1,0,-1
 158 372 l 1,1,-1
 59 240 l 1,2,-1
 159 80 l 1,3,-1
 159 33 l 1,4,-1
 27 227 l 1,5,-1
 27 250 l 1,6,-1
 158 417 l 1,0,-1
EndSplineSet
Validated: 1
EndChar

StartChar: equal
Encoding: 61 61 32
Width: 608
Flags: W
LayerCount: 2
Fore
SplineSet
118 234 m 1,0,-1
 474 234 l 1,1,-1
 474 181 l 1,2,-1
 118 181 l 1,3,-1
 118 234 l 1,0,-1
118 401 m 1,4,-1
 474 401 l 1,5,-1
 474 347 l 1,6,-1
 118 347 l 1,7,-1
 118 401 l 1,4,-1
EndSplineSet
Validated: 1
EndChar

StartChar: greater
Encoding: 62 62 33
Width: 204
Flags: W
LayerCount: 2
Fore
SplineSet
38 419 m 1,0,-1
 170 220 l 1,1,-1
 170 200 l 1,2,-1
 37 33 l 1,3,-1
 37 76 l 1,4,-1
 135 210 l 1,5,-1
 38 367 l 1,6,-1
 38 419 l 1,0,-1
EndSplineSet
Validated: 1
EndChar

StartChar: question
Encoding: 63 63 34
Width: 312
Flags: W
LayerCount: 2
Fore
SplineSet
118 102 m 1,0,-1
 137 102 l 1,1,2
 144 65 144 65 194 44 c 1,3,-1
 194 42 l 1,4,-1
 195 41 l 1,5,-1
 195 39 l 1,6,-1
 195 31 l 1,7,-1
 192 26 l 1,8,9
 161 9 161 9 156 5 c 0,10,11
 137 -10 137 -10 137 -29 c 1,12,-1
 118 -29 l 1,13,14
 114 -12 114 -12 95 6.5 c 128,-1,15
 76 25 76 25 59 25 c 1,16,-1
 59 45 l 1,17,18
 98 53 98 53 115 94 c 0,19,20
 118 102 118 102 118 102 c 1,0,-1
112 670 m 1,21,-1
 122 670 l 2,22,23
 242 670 242 670 279 558 c 0,24,25
 291 521 291 521 291 500 c 0,26,27
 291 472 291 472 277.5 432 c 128,-1,28
 264 392 264 392 247 373 c 2,29,-1
 156 272 l 2,30,31
 136 250 136 250 136 217 c 0,32,33
 136 204 136 204 139 180 c 1,34,-1
 125 181 l 1,35,36
 109 218 109 218 109 263 c 0,37,38
 109 275 109 275 121.5 316.5 c 128,-1,39
 134 358 134 358 141 366 c 2,40,-1
 226 469 l 2,41,42
 249 497 249 497 249 548 c 0,43,44
 249 587 249 587 220.5 615.5 c 128,-1,45
 192 644 192 644 153 644 c 0,46,47
 121 644 121 644 98 610 c 0,48,49
 78 583 78 583 72 547 c 1,50,51
 60 537 60 537 43 537 c 0,52,53
 36 537 36 537 28 540 c 0,54,55
 7 557 7 557 7 583 c 2,56,-1
 7 585 l 1,57,58
 37 663 37 663 112 669 c 1,59,-1
 112 670 l 1,21,-1
EndSplineSet
Validated: 1
EndChar

StartChar: at
Encoding: 64 64 35
Width: 608
Flags: W
LayerCount: 2
Fore
SplineSet
258 667 m 1,0,1
 302 671 302 671 305 671 c 0,2,3
 338 671 338 671 372 660 c 128,-1,4
 406 649 406 649 422 642 c 0,5,6
 449 631 449 631 468 615 c 0,7,8
 508 583 508 583 530 523 c 0,9,10
 550 470 550 470 550 414 c 0,11,12
 550 343 550 343 537 297 c 0,13,14
 520 237 520 237 484 192 c 0,15,16
 440 136 440 136 387 136 c 0,17,18
 350 136 350 136 328 162 c 128,-1,19
 306 188 306 188 306 225 c 1,20,21
 285 135 285 135 224 135 c 0,22,23
 142 135 142 135 142 272 c 0,24,25
 142 335 142 335 165 400 c 0,26,27
 192 476 192 476 237 506 c 0,28,29
 260 521 260 521 274 521 c 0,30,31
 296 521 296 521 317 507 c 128,-1,32
 338 493 338 493 343 473 c 1,33,-1
 353 511 l 1,34,-1
 409 511 l 1,35,36
 358 377 358 377 358 227 c 0,37,38
 358 185 358 185 382 169 c 1,39,-1
 386 169 l 2,40,41
 445 169 445 169 480 265 c 0,42,43
 508 339 508 339 508 411 c 0,44,45
 508 479 508 479 482 531 c 0,46,47
 460 576 460 576 411.5 607.5 c 128,-1,48
 363 639 363 639 314 639 c 0,49,50
 248 639 248 639 191 596 c 0,51,52
 139 557 139 557 106 494 c 0,53,54
 66 417 66 417 66 300 c 0,55,56
 66 256 66 256 80 203 c 0,57,58
 128 12 128 12 291 12 c 0,59,60
 361 12 361 12 431 59 c 0,61,62
 498 103 498 103 533 167 c 1,63,64
 536 161 536 161 536 147 c 0,65,66
 536 125 536 125 527 112 c 0,67,68
 512 90 512 90 473 54 c 128,-1,69
 434 18 434 18 411 5 c 0,70,71
 355 -27 355 -27 277 -27 c 0,72,73
 223 -27 223 -27 169 -3 c 0,74,75
 107 24 107 24 70 78 c 0,76,77
 44 117 44 117 18 196 c 0,78,79
 0 251 0 251 0 305 c 0,80,81
 0 428 0 428 68 533 c 0,82,83
 143 647 143 647 258 666 c 1,84,-1
 258 667 l 1,0,1
286 484 m 1,85,86
 244 453 244 453 220 369 c 0,87,88
 200 300 200 300 200 233 c 0,89,90
 200 168 200 168 234 168 c 0,91,92
 275 168 275 168 304 278 c 0,93,94
 328 366 328 366 328 427 c 0,95,96
 328 456 328 456 323 466 c 0,97,98
 315 480 315 480 291 485 c 1,99,-1
 286 483 l 1,100,-1
 286 484 l 1,85,86
EndSplineSet
Validated: 1
EndChar

StartChar: A
Encoding: 65 65 36
Width: 664
Flags: W
LayerCount: 2
Fore
SplineSet
643 692 m 0,0,1
 612 684 612 684 590 645 c 128,-1,2
 568 606 568 606 568 568 c 2,3,-1
 568 115 l 1,4,5
 575 94 575 94 589 94 c 0,6,7
 593 94 593 94 631 117 c 1,8,9
 643 110 643 110 648 102 c 1,10,-1
 533 -24 l 1,11,-1
 517 -20 l 1,12,13
 520 -14 520 -14 520 -1 c 2,14,-1
 520 0 l 1,15,-1
 520 1 l 1,16,17
 484 64 484 64 484 122 c 1,18,-1
 216 -22 l 1,19,-1
 203 -11 l 1,20,-1
 217 9 l 1,21,-1
 99 105 l 1,22,23
 69 122 69 122 32 108 c 1,24,-1
 26 127 l 1,25,-1
 159 176 l 2,26,27
 235 204 235 204 291 273 c 0,28,29
 340 334 340 334 340 427 c 0,30,31
 340 446 340 446 337 464 c 0,32,33
 314 611 314 611 212 617 c 0,34,35
 153 620 153 620 111 591 c 0,36,37
 64 558 64 558 55 496 c 0,38,39
 53 481 53 481 53 467 c 0,40,41
 53 402 53 402 98 357 c 0,42,43
 139 315 139 315 208 302 c 1,44,-1
 205 284 l 1,45,46
 124 279 124 279 73 345 c 0,47,48
 26 404 26 404 26 487 c 0,49,50
 26 571 26 571 73 634 c 0,51,52
 125 703 125 703 208 703 c 2,53,-1
 212 703 l 2,54,55
 309 703 309 703 363 626 c 0,56,57
 412 558 412 558 412 459 c 0,58,59
 412 328 412 328 268 211 c 1,60,-1
 175 158 l 1,61,62
 229 100 229 100 299 59 c 1,63,-1
 330 63 l 1,64,65
 410 93 410 93 477 150 c 1,66,-1
 485 167 l 1,67,-1
 485 576 l 1,68,-1
 473 645 l 1,69,-1
 488 654 l 1,70,-1
 509 601 l 1,71,72
 550 708 550 708 643 706 c 1,73,74
 644 692 644 692 643 692 c 0,0,1
EndSplineSet
Validated: 33
EndChar

StartChar: B
Encoding: 66 66 37
Width: 828
Flags: W
LayerCount: 2
Fore
SplineSet
614 708 m 1,0,1
 625 704 625 704 629 694 c 1,2,3
 625 686 625 686 621.5 677 c 128,-1,4
 618 668 618 668 621 659 c 0,5,6
 624 643 624 643 655.5 594.5 c 128,-1,7
 687 546 687 546 702 538 c 1,8,-1
 733 538 l 1,9,10
 743 532 743 532 747 522 c 1,11,-1
 595 430 l 1,12,13
 657 413 657 413 705 371 c 0,14,15
 757 326 757 326 771 267 c 0,16,17
 776 243 776 243 776 221 c 0,18,19
 776 97 776 97 625 22 c 0,20,21
 565 -9 565 -9 506 -17 c 0,22,23
 470 -22 470 -22 382 -22 c 1,24,-1
 154 109 l 1,25,26
 137 113 137 113 118 113 c 0,27,28
 86 113 86 113 74 99 c 1,29,30
 61 90 61 90 61 68 c 0,31,32
 61 55 61 55 66 35 c 1,33,-1
 55 29 l 1,34,35
 40 44 40 44 40 71 c 0,36,37
 40 110 40 110 81 139 c 0,38,39
 102 154 102 154 124 158 c 0,40,41
 166 166 166 166 171 167 c 0,42,43
 366 225 366 225 366 397 c 0,44,45
 366 489 366 489 328 553 c 0,46,47
 281 630 281 630 194 630 c 0,48,49
 136 630 136 630 97 595 c 128,-1,50
 58 560 58 560 57 501 c 0,51,52
 55 428 55 428 101.5 377.5 c 128,-1,53
 148 327 148 327 221 321 c 1,54,-1
 219 303 l 1,55,56
 209 301 209 301 199 301 c 0,57,58
 131 301 131 301 78 370 c 0,59,60
 28 434 28 434 31 505 c 0,61,62
 33 583 33 583 74 636 c 128,-1,63
 115 689 115 689 191 703 c 0,64,65
 206 706 206 706 222 706 c 0,66,67
 278 706 278 706 329 675 c 128,-1,68
 380 644 380 644 406 595 c 1,69,-1
 614 708 l 1,0,1
447 349 m 1,70,71
 422 258 422 258 362 220 c 0,72,73
 338 205 338 205 213 162 c 1,74,75
 324 99 324 99 418 39 c 1,76,77
 468 15 468 15 512 15 c 0,78,79
 557 15 557 15 620 43 c 1,80,81
 700 92 700 92 700 177 c 0,82,83
 700 210 700 210 687 243 c 0,84,85
 664 299 664 299 607 330 c 0,86,87
 556 358 556 358 492 358 c 0,88,89
 477 356 477 356 447 349 c 1,70,71
501 617 m 0,90,91
 450 593 450 593 414 571 c 1,92,93
 449 488 449 488 449 409 c 0,94,95
 449 403 449 403 448 391 c 128,-1,96
 447 379 447 379 447 373 c 1,97,98
 547 415 547 415 631 481 c 1,99,-1
 544 615 l 1,100,101
 529 630 529 630 501 617 c 0,90,91
EndSplineSet
Validated: 33
EndChar

StartChar: C
Encoding: 67 67 38
Width: 627
Flags: W
LayerCount: 2
Fore
SplineSet
250 709 m 1,0,1
 339 696 339 696 353 627 c 1,2,-1
 433 708 l 1,3,-1
 544 667 l 2,4,5
 553 662 553 662 569 670 c 1,6,-1
 591 704 l 1,7,-1
 608 693 l 1,8,-1
 536 590 l 1,9,-1
 521 590 l 1,10,-1
 403 632 l 1,11,12
 377 634 377 634 333 577 c 1,13,14
 323 557 323 557 323 540 c 2,15,-1
 323 539 l 1,16,-1
 323 538 l 1,17,18
 391 380 391 380 434 255 c 0,19,20
 439 241 439 241 439 235 c 2,21,-1
 330 83 l 1,22,23
 406 66 406 66 457 66 c 0,24,25
 537 66 537 66 601 104 c 1,26,-1
 610 92 l 1,27,-1
 492 -16 l 1,28,29
 440 -28 440 -28 366 -18 c 0,30,31
 333 -14 333 -14 303 -5 c 0,32,33
 182 30 182 30 111 131 c 0,34,35
 43 228 43 228 43 357 c 256,36,37
 43 486 43 486 83 580 c 0,38,39
 137 708 137 708 250 708 c 1,40,-1
 250 709 l 1,0,1
260 683 m 1,41,42
 243 666 243 666 186 631 c 0,43,44
 150 609 150 609 136 570 c 0,45,46
 118 517 118 517 118 392 c 0,47,48
 118 353 118 353 121 319 c 0,49,50
 128 246 128 246 184.5 179 c 128,-1,51
 241 112 241 112 312 88 c 1,52,53
 348 129 348 129 357 168 c 0,54,55
 365 206 365 206 355 232 c 2,56,-1
 247 506 l 1,57,-1
 335 608 l 1,58,59
 331 636 331 636 309 659 c 128,-1,60
 287 682 287 682 260 682 c 1,61,-1
 260 683 l 1,41,42
EndSplineSet
Validated: 33
EndChar

StartChar: D
Encoding: 68 68 39
Width: 812
Flags: W
LayerCount: 2
Fore
SplineSet
269 712 m 0,0,1
 402 712 402 712 517 644 c 0,2,3
 691 541 691 541 738 341 c 0,4,5
 749 295 749 295 749 253 c 0,6,7
 749 93 749 93 610 13 c 0,8,9
 541 -27 541 -27 468 -41 c 0,10,11
 461 -42 461 -42 452 -42 c 0,12,13
 411 -42 411 -42 380 -24 c 2,14,-1
 217 73 l 2,15,16
 183 93 183 93 161 93 c 0,17,18
 110 93 110 93 70 64 c 1,19,-1
 57 76 l 1,20,21
 137 161 137 161 257 161 c 1,22,23
 295 182 295 182 326 215 c 0,24,25
 329 222 329 222 328 235 c 0,26,27
 326 248 326 248 321 253 c 2,28,-1
 217 423 l 1,29,30
 211 441 211 441 211 456 c 0,31,32
 219 491 219 491 246 513 c 0,33,34
 263 526 263 526 306.5 544.5 c 128,-1,35
 350 563 350 563 447 577 c 1,36,37
 345 639 345 639 235 639 c 0,38,39
 155 639 155 639 99 600 c 0,40,41
 37 557 37 557 37 481 c 0,42,43
 37 469 37 469 39 456 c 0,44,45
 45 414 45 414 66 389 c 0,46,47
 84 368 84 368 126 346 c 1,48,-1
 119 330 l 1,49,50
 81 339 81 339 53 376 c 0,51,52
 28 408 28 408 21 450 c 0,53,54
 17 470 17 470 17 489 c 0,55,56
 17 585 17 585 94 650 c 0,57,58
 168 712 168 712 269 712 c 0,0,1
475 557 m 1,59,60
 431 550 431 550 387 543 c 0,61,62
 337 532 337 532 310 510 c 0,63,64
 291 494 291 494 291 479 c 0,65,66
 291 470 291 470 297.5 459 c 128,-1,67
 304 448 304 448 304 447 c 2,68,-1
 399 293 l 2,69,70
 411 274 411 274 411 253 c 0,71,72
 411 221 411 221 384 204 c 2,73,-1
 259 144 l 1,74,75
 340 77 340 77 454 22 c 0,76,77
 481 9 481 9 513 9 c 0,78,79
 553 9 553 9 595 28 c 0,80,81
 705 78 705 78 705 196 c 0,82,83
 705 252 705 252 680 316 c 0,84,85
 620 473 620 473 475 557 c 1,59,60
EndSplineSet
Validated: 1
EndChar

StartChar: E
Encoding: 69 69 40
Width: 644
Flags: W
LayerCount: 2
Fore
SplineSet
585 710 m 1,0,-1
 599 702 l 1,1,-1
 543 601 l 1,2,-1
 394 636 l 1,3,4
 356 598 356 598 338 572 c 1,5,6
 353 545 353 545 383 495 c 0,7,8
 405 461 405 461 428 428 c 1,9,-1
 508 503 l 1,10,11
 514 503 514 503 524 502 c 0,12,13
 525 501 525 501 526 501 c 0,14,15
 559 468 559 468 599 448 c 1,16,-1
 599 432 l 1,17,-1
 550 383 l 2,18,19
 549 382 549 382 548 382 c 0,20,21
 535 382 535 382 529 385 c 0,22,23
 493 413 493 413 467 429 c 1,24,-1
 439 409 l 1,25,-1
 477 339 l 1,26,27
 477 223 477 223 424 161 c 0,28,29
 396 127 396 127 362 127 c 0,30,31
 258 127 258 127 228 237 c 1,32,-1
 248 238 l 1,33,34
 280 149 280 149 343 149 c 0,35,36
 353 149 353 149 363 151 c 0,37,38
 417 161 417 161 417 224 c 0,39,40
 417 253 417 253 394 322 c 1,41,-1
 274 527 l 1,42,-1
 285 548 l 1,43,-1
 348 632 l 1,44,45
 308 683 308 683 256 683 c 0,46,47
 180 683 180 683 143 601 c 0,48,49
 114 536 114 536 114 436 c 0,50,51
 114 387 114 387 121 347 c 0,52,53
 163 94 163 94 367 67 c 0,54,55
 387 64 387 64 409 64 c 0,56,57
 501 64 501 64 604 113 c 1,58,-1
 614 96 l 1,59,-1
 448 -20 l 1,60,-1
 346 -20 l 2,61,62
 218 -20 218 -20 136 93 c 0,63,64
 66 189 66 189 52 326 c 0,65,66
 49 358 49 358 49 391 c 0,67,68
 49 518 49 518 91 601 c 0,69,70
 146 706 146 706 258 706 c 0,71,72
 314 706 314 706 365 646 c 1,73,-1
 421 711 l 1,74,75
 465 703 465 703 553 684 c 1,76,-1
 585 710 l 1,0,-1
EndSplineSet
Validated: 1
EndChar

StartChar: F
Encoding: 70 70 41
Width: 551
Flags: W
LayerCount: 2
Fore
SplineSet
231 716 m 1,0,1
 271 711 271 711 312 705 c 0,2,3
 357 698 357 698 390 684 c 2,4,-1
 523 627 l 1,5,6
 541 629 541 629 558 646 c 1,7,-1
 572 630 l 1,8,-1
 483 545 l 1,9,-1
 468 547 l 1,10,-1
 366 601 l 1,11,12
 259 527 259 527 259 433 c 0,13,14
 259 411 259 411 266 390 c 0,15,16
 276 361 276 361 313 317 c 1,17,18
 331 326 331 326 347 338 c 0,19,20
 383 365 383 365 401 395 c 1,21,22
 412 400 412 400 418 395 c 0,23,24
 453 363 453 363 483 359 c 0,25,26
 484 357 484 357 484 355 c 0,27,28
 484 341 484 341 481 335 c 0,29,30
 458 317 458 317 437 290 c 1,31,32
 426 284 426 284 414 292.5 c 128,-1,33
 402 301 402 301 377 319 c 1,34,35
 348 317 348 317 327 298 c 1,36,-1
 454 128 l 1,37,38
 481 68 481 68 481 15 c 0,39,40
 481 -12 481 -12 474 -37 c 0,41,42
 463 -107 463 -107 403 -148 c 0,43,44
 349 -185 349 -185 276 -185 c 0,45,46
 198 -185 198 -185 143 -150 c 0,47,48
 80 -111 80 -111 72 -39 c 1,49,50
 72 4 72 4 83 27 c 0,51,52
 86 36 86 36 120 83 c 0,53,54
 136 107 136 107 161 139 c 0,55,56
 166 146 166 146 166 155 c 0,57,58
 166 184 166 184 134 199 c 0,59,60
 124 203 124 203 115 203 c 0,61,62
 79 203 79 203 65 166 c 1,63,-1
 46 174 l 1,64,65
 67 228 67 228 113 228 c 0,66,67
 125 228 125 228 139 223 c 0,68,69
 194 205 194 205 194 142 c 0,70,71
 194 127 194 127 190 111 c 0,72,73
 172 74 172 74 153 39 c 0,74,75
 140 17 140 17 127 -4 c 0,76,77
 111 -32 111 -32 111 -50 c 0,78,79
 111 -103 111 -103 165 -135 c 0,80,81
 211 -162 211 -162 268 -162 c 0,82,83
 334 -162 334 -162 373 -130 c 0,84,85
 416 -95 416 -95 416 -31 c 0,86,87
 416 37 416 37 334 144 c 0,88,89
 321 160 321 160 297 192 c 0,90,91
 239 266 239 266 231 277 c 0,92,93
 194 333 194 333 194 375 c 0,94,95
 193 376 193 376 193 378 c 0,96,97
 193 457 193 457 240 516 c 0,98,99
 248 527 248 527 341 614 c 1,100,101
 257 654 257 654 184 654 c 0,102,103
 112 654 112 654 66 612.5 c 128,-1,104
 20 571 20 571 20 516 c 0,105,106
 20 445 20 445 95 403 c 1,107,-1
 90 387 l 1,108,109
 41 407 41 407 20 434 c 0,110,111
 -4 464 -4 464 -4 515 c 0,112,113
 -4 610 -4 610 69 665 c 0,114,115
 134 715 134 715 231 715 c 1,116,-1
 231 716 l 1,0,1
EndSplineSet
Validated: 1
EndChar

StartChar: G
Encoding: 71 71 42
Width: 776
Flags: W
LayerCount: 2
Fore
SplineSet
411 723 m 1,0,-1
 422 710 l 1,1,-1
 403 683 l 1,2,3
 441 664 441 664 457 644 c 1,4,-1
 447 632 l 1,5,6
 421 654 421 654 389 665 c 1,7,8
 377 646 377 646 374 632 c 0,9,10
 368 617 368 617 375 599 c 0,11,12
 407 537 407 537 429 473 c 0,13,14
 432 467 432 467 432 458 c 0,15,16
 432 424 432 424 398 363 c 1,17,18
 480 395 480 395 556 439 c 1,19,20
 616 484 616 484 616 529 c 0,21,22
 616 550 616 550 599 566 c 2,23,-1
 530 630 l 2,24,25
 527 633 527 633 527 647 c 1,26,27
 557 686 557 686 583 709 c 1,28,29
 594 706 594 706 598 700 c 0,30,31
 598 698 598 698 591 684 c 1,32,-1
 682 590 l 1,33,34
 683 591 683 591 686.5 594.5 c 128,-1,35
 690 598 690 598 693 597 c 0,36,37
 698 594 698 594 705 580 c 1,38,39
 647 497 647 497 578 428 c 1,40,41
 640 402 640 402 677 345 c 128,-1,42
 714 288 714 288 714 221 c 0,43,44
 714 193 714 193 707 167 c 0,45,46
 663 -4 663 -4 462 -21 c 0,47,48
 438 -23 438 -23 416 -23 c 0,49,50
 225 -23 225 -23 128 115 c 0,51,52
 55 217 55 217 55 366 c 0,53,54
 55 497 55 497 114 592 c 0,55,56
 184 704 184 704 308 704 c 0,57,58
 342 704 342 704 377 693 c 1,59,-1
 411 723 l 1,0,-1
140 371 m 1,60,61
 152 198 152 198 242 83 c 0,62,63
 313 -7 313 -7 434 -7 c 0,64,65
 527 -7 527 -7 582 39 c 0,66,67
 641 88 641 88 641 180 c 0,68,69
 641 247 641 247 592.5 304 c 128,-1,70
 544 361 544 361 479 361 c 0,71,72
 469 361 469 361 459 360 c 0,73,74
 429 355 429 355 339 301 c 0,75,76
 314 290 314 290 287 290 c 0,77,78
 210 290 210 290 140 370 c 1,79,-1
 140 371 l 1,60,61
139 407 m 1,80,81
 164 371 164 371 200 345 c 0,82,83
 242 316 242 316 281 316 c 0,84,85
 296 316 296 316 309 320 c 0,86,87
 358 336 358 336 358 394 c 0,88,89
 358 415 358 415 350 434 c 2,90,-1
 295 572 l 1,91,92
 330 637 330 637 359 672 c 1,93,94
 340 679 340 679 310 679 c 0,95,96
 227 679 227 679 178 578 c 0,97,98
 139 497 139 497 139 407 c 1,80,81
EndSplineSet
Validated: 37
EndChar

StartChar: H
Encoding: 72 72 43
Width: 683
Flags: W
LayerCount: 2
Fore
SplineSet
300 703 m 0,0,1
 347 673 347 673 379 673 c 0,2,3
 398 673 398 673 420 701 c 1,4,-1
 435 687 l 1,5,6
 398 634 398 634 348 599 c 1,7,-1
 242 641 l 1,8,9
 220 626 220 626 214 618 c 0,10,11
 192 592 192 592 192 544 c 1,12,-1
 237 440 l 1,13,14
 304 493 304 493 386 530 c 1,15,16
 398 557 398 557 435 557 c 1,17,18
 619 465 619 465 619 281 c 0,19,20
 619 114 619 114 490 28 c 1,21,22
 409 -1 409 -1 397 -4.5 c 128,-1,23
 385 -8 385 -8 272 -29 c 1,24,25
 248 12 248 12 201 18 c 0,26,27
 170 18 170 18 152.5 -5 c 128,-1,28
 135 -28 135 -28 135 -59 c 0,29,30
 135 -95 135 -95 162.5 -123 c 128,-1,31
 190 -151 190 -151 225 -151 c 0,32,33
 272 -151 272 -151 299 -104 c 1,34,-1
 317 -107 l 1,35,36
 294 -172 294 -172 225 -172 c 0,37,38
 178 -172 178 -172 145 -139.5 c 128,-1,39
 112 -107 112 -107 112 -61 c 0,40,41
 112 21 112 21 206 54 c 0,42,43
 247 69 247 69 283 74 c 1,44,45
 310 40 310 40 372 9 c 1,46,47
 446 14 446 14 496 84 c 0,48,49
 544 149 544 149 540 279 c 0,50,51
 534 349 534 349 488 406 c 0,52,53
 437 468 437 468 370 468 c 256,54,55
 303 468 303 468 245 413 c 1,56,-1
 293 278 l 2,57,58
 301 263 301 263 301 248 c 0,59,60
 301 204 301 204 239 161 c 0,61,62
 185 123 185 123 136 123 c 0,63,64
 114 123 114 123 90 131 c 2,65,-1
 8 172 l 1,66,67
 1 168 1 168 -7 172 c 0,68,69
 -14 176 -14 176 -16 184 c 1,70,-1
 58 240 l 1,71,72
 78 209 78 209 107 186 c 0,73,74
 141 158 141 158 172 158 c 0,75,76
 195 158 195 158 213 173.5 c 128,-1,77
 231 189 231 189 231 217 c 0,78,79
 231 243 231 243 217 271 c 0,80,81
 166 372 166 372 128 475 c 1,82,-1
 121 510 l 1,83,84
 158 582 158 582 176 610 c 0,85,86
 204 653 204 653 247 696 c 0,87,88
 256 710 256 710 276 710 c 0,89,90
 289 710 289 710 300 703 c 0,0,1
EndSplineSet
Validated: 33
EndChar

StartChar: I
Encoding: 73 73 44
Width: 572
Flags: W
LayerCount: 2
Fore
SplineSet
515 505 m 0,0,1
 518 477 518 477 493 477 c 0,2,3
 485 477 485 477 477 481 c 1,4,-1
 477 483 l 2,5,6
 477 506 477 506 455 506 c 0,7,8
 402 506 402 506 402 437 c 0,9,10
 402 411 402 411 411 391 c 0,11,12
 437 333 437 333 513 196 c 0,13,14
 520 183 520 183 520 166 c 0,15,16
 520 125 520 125 484 74 c 128,-1,17
 448 23 448 23 398 4 c 0,18,19
 363 -10 363 -10 289 -16 c 0,20,21
 254 -19 254 -19 219 -19 c 1,22,23
 215 -27 215 -27 207 -26 c 0,24,25
 199 -26 199 -26 194 -19 c 0,26,27
 187 18 187 18 159 48 c 0,28,29
 129 82 129 82 94 82 c 0,30,31
 74 82 74 82 60 68 c 0,32,33
 54 61 54 61 39 36 c 1,34,35
 25 36 25 36 21 38 c 1,36,37
 29 109 29 109 112 114 c 0,38,39
 160 117 160 117 184 112 c 1,40,41
 195 116 195 116 203 116 c 0,42,43
 224 116 224 116 236 79 c 0,44,45
 245 48 245 48 274 31 c 128,-1,46
 303 14 303 14 337 14 c 0,47,48
 381 14 381 14 416 44.5 c 128,-1,49
 451 75 451 75 451 117 c 0,50,51
 451 130 451 130 447 143 c 2,52,-1
 337 348 l 2,53,54
 325 370 325 370 325 390 c 0,55,56
 325 404 325 404 331 415 c 0,57,58
 353 462 353 462 387 496 c 0,59,60
 430 538 430 538 473 538 c 1,61,62
 512 534 512 534 515 505 c 0,0,1
227 713 m 1,63,64
 234 713 234 713 245 709 c 0,65,66
 325 650 325 650 412 610 c 0,67,68
 421 607 421 607 430 607 c 0,69,70
 459 607 459 607 483 631 c 1,71,72
 475 641 475 641 473 655 c 0,73,74
 473 674 473 674 496 674 c 0,75,76
 523 674 523 674 523 653 c 0,77,78
 523 619 523 619 499 602 c 0,79,80
 437 566 437 566 433 564 c 0,81,82
 396 546 396 546 359 546 c 1,83,-1
 208 628 l 1,84,85
 188 634 188 634 164 634 c 0,86,87
 117 634 117 634 83 612 c 0,88,89
 45 586 45 586 45 542 c 0,90,91
 45 486 45 486 87 449 c 0,92,93
 122 417 122 417 167 413 c 1,94,-1
 165 396 l 1,95,96
 102 400 102 400 62 439.5 c 128,-1,97
 22 479 22 479 22 541 c 256,98,99
 22 603 22 603 87 647 c 0,100,101
 136 680 136 680 208 696 c 0,102,103
 217 702 217 702 227 712 c 1,104,-1
 227 713 l 1,63,64
EndSplineSet
Validated: 33
EndChar

StartChar: J
Encoding: 74 74 45
Width: 572
Flags: W
LayerCount: 2
Fore
SplineSet
470 538 m 0,0,1
 487 538 487 538 500 527.5 c 128,-1,2
 513 517 513 517 513 501 c 2,3,-1
 513 499 l 2,4,5
 513 489 513 489 503.5 483 c 128,-1,6
 494 477 494 477 485 477 c 1,7,8
 479 486 479 486 472 495.5 c 128,-1,9
 465 505 465 505 456 505 c 2,10,-1
 455 505 l 2,11,12
 424 505 424 505 407 474 c 0,13,14
 393 448 393 448 393 412 c 0,15,16
 393 400 393 400 395 390 c 0,17,18
 411 338 411 338 464 204 c 0,19,20
 510 89 510 89 528 17 c 1,21,22
 474 -102 474 -102 404 -134 c 0,23,24
 393 -136 393 -136 310 -135 c 0,25,26
 252 -133 252 -133 227 -157 c 0,27,28
 221 -162 221 -162 212 -164 c 1,29,30
 186 -132 186 -132 171 -94 c 1,31,32
 142 -52 142 -52 102 -52 c 0,33,34
 69 -52 69 -52 50 -88 c 0,35,36
 41 -104 41 -104 26 -97 c 1,37,38
 41 -21 41 -21 126 -21 c 0,39,40
 140 -21 140 -21 163 -22 c 0,41,42
 193 -25 193 -25 200 -25 c 0,43,44
 213 -20 213 -20 221 -20 c 1,45,46
 243 -56 243 -56 264 -92 c 1,47,48
 289 -119 289 -119 343 -119 c 0,49,50
 424 -119 424 -119 449 -49 c 1,51,52
 454 -21 454 -21 448 8 c 0,53,54
 430 66 430 66 387 170 c 0,55,56
 341 281 341 281 327 325 c 0,57,58
 317 352 317 352 317 372 c 0,59,60
 317 388 317 388 323 403 c 0,61,62
 340 445 340 445 382 489 c 0,63,64
 430 538 430 538 470 538 c 0,0,1
221 710 m 1,65,-1
 241 710 l 1,66,67
 319 653 319 653 410 610 c 0,68,69
 423 608 423 608 433 608 c 0,70,71
 467 608 467 608 481 635 c 1,72,73
 470 645 470 645 474 662 c 0,74,75
 477 678 477 678 500 675 c 0,76,77
 512 673 512 673 518 661 c 128,-1,78
 524 649 524 649 521 637 c 0,79,80
 514 610 514 610 490 599 c 2,81,-1
 375 547 l 1,82,-1
 359 547 l 1,83,-1
 209 627 l 1,84,85
 179 637 179 637 157 637 c 0,86,87
 115 637 115 637 81 609.5 c 128,-1,88
 47 582 47 582 44 541 c 0,89,90
 39 486 39 486 83 449 c 0,91,92
 118 420 118 420 165 413 c 1,93,-1
 163 396 l 1,94,95
 102 400 102 400 60 439 c 0,96,97
 15 482 15 482 19 542 c 0,98,99
 24 612 24 612 90 654 c 0,100,101
 127 677 127 677 219 704 c 1,102,-1
 221 710 l 1,65,-1
EndSplineSet
Validated: 33
EndChar

StartChar: K
Encoding: 75 75 46
Width: 644
Flags: W
LayerCount: 2
Fore
SplineSet
398 707 m 0,0,1
 603 694 603 694 654 496 c 1,2,3
 633 479 633 479 604 475 c 1,4,5
 608 491 608 491 608 510 c 0,6,7
 608 582 608 582 533 635 c 0,8,9
 465 683 465 683 390 683 c 0,10,11
 312 683 312 683 242 641 c 0,12,13
 159 592 159 592 159 518 c 0,14,15
 159 494 159 494 181 450 c 1,16,-1
 282 286 l 1,17,-1
 241 442 l 1,18,-1
 241 443 l 2,19,20
 241 473 241 473 261 493 c 0,21,22
 304 536 304 536 395 568 c 1,23,24
 401 584 401 584 421 584 c 0,25,26
 426 584 426 584 430 582 c 0,27,28
 437 570 437 570 497 503 c 0,29,30
 544 449 544 449 544 429 c 1,31,-1
 426 349 l 1,32,-1
 450 320 l 1,33,-1
 548 81 l 2,34,35
 563 46 563 46 588 46 c 0,36,37
 602 46 602 46 628 57 c 1,38,-1
 637 41 l 1,39,40
 587 9 587 9 559 -22 c 0,41,42
 557 -23 557 -23 555 -23 c 0,43,44
 515 -23 515 -23 473 53 c 1,45,46
 436 166 436 166 383 278 c 1,47,48
 379 300 379 300 350 300 c 1,49,-1
 295 272 l 1,50,-1
 293 263 l 1,51,-1
 317 159 l 2,52,53
 321 142 321 142 321 124 c 0,54,55
 321 68 321 68 284.5 24.5 c 128,-1,56
 248 -19 248 -19 192 -24 c 0,57,58
 159 -26 159 -26 110 -12 c 1,59,60
 65 -6 65 -6 36 -16 c 1,61,62
 26 -14 26 -14 23 -7 c 1,63,64
 25 4 25 4 25 15 c 0,65,66
 25 54 25 54 4 84 c 1,67,68
 7 91 7 91 14 98 c 1,69,70
 48 94 48 94 55 94 c 0,71,72
 77 94 77 94 105 110 c 1,73,-1
 119 96 l 1,74,75
 107 77 107 77 107 59 c 0,76,77
 107 33 107 33 128.5 15.5 c 128,-1,78
 150 -2 150 -2 181 -2 c 0,79,80
 254 -2 254 -2 254 79 c 0,81,82
 254 151 254 151 209 239 c 0,83,84
 155 345 155 345 86 444 c 0,85,86
 77 463 77 463 77 481 c 0,87,88
 77 503 77 503 90 525 c 0,89,90
 207 718 207 718 398 707 c 0,0,1
353 511 m 1,91,92
 313 507 313 507 275 469 c 0,93,94
 262 456 262 456 262 426 c 1,95,-1
 301 300 l 1,96,97
 418 375 418 375 426 380.5 c 128,-1,98
 434 386 434 386 454 406 c 1,99,100
 438 441 438 441 413 470 c 0,101,102
 381 507 381 507 353 510 c 1,103,-1
 353 511 l 1,91,92
EndSplineSet
Validated: 33
EndChar

StartChar: L
Encoding: 76 76 47
Width: 516
Flags: W
LayerCount: 2
Fore
SplineSet
476 559 m 0,0,1
 483 497 483 497 468 428 c 0,2,3
 463 419 463 419 454 415 c 1,4,5
 443 419 443 419 428 419 c 0,6,7
 401 419 401 419 380 406.5 c 128,-1,8
 359 394 359 394 359 370 c 0,9,10
 359 361 359 361 362 351 c 0,11,12
 370 326 370 326 409 326 c 0,13,14
 433 326 433 326 451 335 c 1,15,-1
 462 318 l 1,16,17
 437 302 437 302 409 302 c 0,18,19
 347 302 347 302 331 364 c 0,20,21
 325 386 325 386 325 406 c 0,22,23
 325 444 325 444 346 465 c 0,24,25
 356 475 356 475 363 477 c 1,26,27
 360 476 360 476 383 476 c 0,28,29
 456 476 456 476 450 565 c 0,30,31
 445 623 445 623 390 658 c 0,32,33
 341 688 341 688 279 688 c 0,34,35
 213 688 213 688 167 652 c 128,-1,36
 121 616 121 616 121 560 c 0,37,38
 121 530 121 530 136 498 c 0,39,40
 154 460 154 460 187 412 c 0,41,42
 217 370 217 370 247 328 c 0,43,44
 266 300 266 300 266 268 c 0,45,46
 266 225 266 225 236 192 c 1,47,48
 195 156 195 156 154 135 c 1,49,-1
 308 65 l 2,50,51
 343 49 343 49 368 49 c 0,52,53
 395 49 395 49 420 68 c 0,54,55
 436 80 436 80 469 118 c 1,56,-1
 485 109 l 1,57,58
 403 -24 403 -24 342 -24 c 0,59,60
 336 -24 336 -24 330 -23 c 0,61,62
 208 21 208 21 128 54 c 0,63,64
 82 72 82 72 78 72 c 1,65,66
 81 72 81 72 63 67 c 1,67,-1
 25 14 l 1,68,-1
 8 23 l 1,69,-1
 81 156 l 1,70,-1
 130 145 l 1,71,72
 153 149 153 149 172 166.5 c 128,-1,73
 191 184 191 184 194 207 c 0,74,75
 200 244 200 244 179 273 c 0,76,77
 108 373 108 373 59 450 c 0,78,79
 46 476 46 476 47 504 c 0,80,81
 50 591 50 591 120 651 c 128,-1,82
 190 711 190 711 278 711 c 0,83,84
 356 711 356 711 409 675 c 0,85,86
 467 634 467 634 476 559 c 0,0,1
EndSplineSet
Validated: 33
EndChar

StartChar: M
Encoding: 77 77 48
Width: 940
Flags: W
LayerCount: 2
Fore
SplineSet
451 719 m 0,0,1
 505 719 505 719 541 683 c 0,2,3
 564 660 564 660 594 600 c 1,4,5
 648 712 648 712 732 719 c 0,6,7
 822 727 822 727 866 653 c 0,8,9
 901 594 901 594 901 500 c 1,10,11
 914 492 914 492 914 468 c 1,12,13
 871 468 871 468 840 449 c 128,-1,14
 809 430 809 430 800 390 c 0,15,16
 798 380 798 380 793 316 c 0,17,18
 790 269 790 269 792 209 c 0,19,20
 796 126 796 126 796 107 c 1,21,22
 803 81 803 81 837 53 c 0,23,24
 841 49 841 49 846 49 c 0,25,26
 854 49 854 49 872.5 62 c 128,-1,27
 891 75 891 75 898 77 c 0,28,29
 910 75 910 75 917 64 c 1,30,-1
 814 -24 l 1,31,-1
 804 -24 l 1,32,33
 738 23 738 23 733.5 27.5 c 128,-1,34
 729 32 729 32 719 56 c 1,35,-1
 719 354 l 1,36,37
 730 409 730 409 828 464 c 0,38,39
 828 468 828 468 829 476 c 0,40,41
 829 485 829 485 829 489 c 0,42,43
 829 626 829 626 747 645 c 0,44,45
 726 649 726 649 709 649 c 0,46,47
 634 649 634 649 604 566 c 1,48,49
 627 479 627 479 627 401 c 0,50,51
 627 181 627 181 486 16 c 0,52,53
 480 9 480 9 451 -20 c 0,54,55
 449 -22 449 -22 445 -22 c 0,56,57
 438 -22 438 -22 407.5 -1.5 c 128,-1,58
 377 19 377 19 359 19 c 0,59,60
 342 19 342 19 322 -5 c 1,61,-1
 308 3 l 1,62,63
 338 53 338 53 380 93 c 1,64,65
 431 83 431 83 485 47 c 1,66,67
 553 159 553 159 553 318 c 0,68,69
 553 384 553 384 542 458 c 0,70,71
 531 522 531 522 503 582 c 0,72,73
 464 664 464 664 416 664 c 0,74,75
 366 664 366 664 348 591 c 1,76,77
 375 527 375 527 389 410 c 0,78,79
 394 373 394 373 394 340 c 0,80,81
 394 247 394 247 354 168 c 0,82,83
 325 112 325 112 245 12 c 0,84,85
 243 9 243 9 216 -19 c 0,86,87
 214 -22 214 -22 210 -22 c 0,88,89
 202 -22 202 -22 171 0.5 c 128,-1,90
 140 23 140 23 122 23 c 0,91,92
 107 23 107 23 97 11 c 2,93,-1
 84 -3 l 1,94,-1
 68 3 l 1,95,96
 78 19 78 19 106 52 c 0,97,98
 137 90 137 90 148 95 c 1,99,100
 195 80 195 80 247 49 c 1,101,102
 324 136 324 136 324 279 c 0,103,104
 324 336 324 336 312 416 c 0,105,106
 279 631 279 631 152 631 c 0,107,108
 101 631 101 631 65 600.5 c 128,-1,109
 29 570 29 570 24 520 c 0,110,111
 18 458 18 458 52 403.5 c 128,-1,112
 86 349 86 349 144 331 c 1,113,-1
 146 312 l 1,114,115
 72 318 72 318 33 385 c 0,116,117
 0 441 0 441 0 520 c 0,118,119
 0 592 0 592 54 649.5 c 128,-1,120
 108 707 108 707 179 707 c 0,121,122
 274 707 274 707 337 618 c 1,123,124
 346 660 346 660 377.5 689.5 c 128,-1,125
 409 719 409 719 451 719 c 0,0,1
EndSplineSet
Validated: 33
EndChar

StartChar: N
Encoding: 78 78 49
Width: 719
Flags: W
LayerCount: 2
Fore
SplineSet
194 705 m 0,0,1
 257 707 257 707 305 670 c 128,-1,2
 353 633 353 633 373 572 c 1,3,4
 405 690 405 690 494 703 c 0,5,6
 510 705 510 705 526 705 c 0,7,8
 588 705 588 705 633.5 673 c 128,-1,9
 679 641 679 641 682 589 c 2,10,-1
 682 499 l 1,11,12
 689 492 689 492 699 490 c 1,13,-1
 699 472 l 1,14,15
 650 464 650 464 626 449 c 0,16,17
 594 429 594 429 583 386 c 1,18,19
 569 252 569 252 583 122 c 0,20,21
 591 47 591 47 635 47 c 0,22,23
 655 47 655 47 688 80 c 1,24,-1
 703 67 l 1,25,-1
 602 -21 l 2,26,27
 592 -28 592 -28 583 -23 c 1,28,29
 552 21 552 21 512 32 c 1,30,31
 494 91 494 91 494 195 c 0,32,33
 494 270 494 270 503 351 c 0,34,35
 506 364 506 364 519 395 c 1,36,37
 562 440 562 440 614 466 c 1,38,39
 614 521 614 521 613 531 c 0,40,41
 601 650 601 650 500 650 c 0,42,43
 409 650 409 650 384 549 c 1,44,45
 406 435 406 435 406 339 c 0,46,47
 406 203 406 203 362 110 c 0,48,49
 333 50 333 50 301 21 c 0,50,51
 262 -14 262 -14 203 -22 c 0,52,53
 174 -26 174 -26 80 -7 c 0,54,55
 60 -7 60 -7 42 -15 c 0,56,57
 33 -15 33 -15 26 0 c 1,58,59
 33 52 33 52 12 82 c 1,60,-1
 25 101 l 1,61,62
 37 94 37 94 51 94 c 0,63,64
 60 94 60 94 108 110 c 1,65,66
 120 105 120 105 126 95 c 1,67,68
 110 76 110 76 110 57 c 0,69,70
 110 31 110 31 138 14 c 128,-1,71
 166 -3 166 -3 198 -3 c 0,72,73
 255 -3 255 -3 293.5 71.5 c 128,-1,74
 332 146 332 146 332 283 c 0,75,76
 332 410 332 410 302 513 c 0,77,78
 274 605 274 605 190 627 c 0,79,80
 173 631 173 631 157 631 c 0,81,82
 105 631 105 631 70 593 c 128,-1,83
 35 555 35 555 35 499 c 0,84,85
 35 387 35 387 163 329 c 1,86,-1
 157 312 l 1,87,88
 89 329 89 329 50.5 379 c 128,-1,89
 12 429 12 429 12 499 c 0,90,91
 13 612 13 612 78 665 c 0,92,93
 125 703 125 703 194 705 c 0,0,1
EndSplineSet
Validated: 33
EndChar

StartChar: O
Encoding: 79 79 50
Width: 776
Flags: W
LayerCount: 2
Fore
SplineSet
264 727 m 1,0,1
 277 724 277 724 283 720 c 0,2,3
 302 686 302 686 351 671 c 0,4,5
 380 663 380 663 446 655.5 c 128,-1,6
 512 648 512 648 539 639 c 0,7,8
 623 609 623 609 672 526 c 0,9,10
 719 449 719 449 719 356 c 0,11,12
 719 253 719 253 663 167 c 0,13,14
 610 86 610 86 518 36 c 0,15,16
 417 -20 417 -20 321 -20 c 1,17,18
 290 -9 290 -9 210 30 c 0,19,20
 138 66 138 66 91 80 c 1,21,22
 58 76 58 76 29 53 c 1,23,-1
 17 67 l 1,24,-1
 137 154 l 1,25,26
 253 113 253 113 341 55 c 1,27,28
 381 35 381 35 426 35 c 0,29,30
 524 35 524 35 599 134 c 0,31,32
 669 226 669 226 669 327 c 0,33,34
 669 477 669 477 551 537 c 0,35,36
 486 571 486 571 304 594 c 0,37,38
 258 600 258 600 234 648 c 1,39,40
 116 584 116 584 116 515 c 0,41,42
 116 501 116 501 121 486 c 0,43,44
 129 457 129 457 177 395 c 0,45,46
 212 351 212 351 247 307 c 1,47,48
 254 290 254 290 254 276 c 0,49,50
 254 242 254 242 207 208 c 1,51,52
 171 187 171 187 129 187 c 0,53,54
 107 187 107 187 74 193 c 1,55,-1
 68 214 l 1,56,57
 97 202 97 202 156 216 c 1,58,59
 175 231 175 231 175 255 c 0,60,61
 175 272 175 272 163 285 c 0,62,63
 52 400 52 400 47 465 c 1,64,65
 47 465 47 465 47 467 c 2,66,-1
 47 469 l 2,67,68
 47 534 47 534 106 584 c 1,69,70
 161 623 161 623 217 662 c 0,71,72
 259 694 259 694 264 726 c 1,73,-1
 264 727 l 1,0,1
EndSplineSet
Validated: 33
EndChar

StartChar: P
Encoding: 80 80 51
Width: 664
Flags: W
LayerCount: 2
Fore
SplineSet
497 708 m 1,0,-1
 508 693 l 1,1,2
 491 679 491 679 491 659 c 0,3,4
 491 650 491 650 496 629 c 2,5,-1
 593 392 l 2,6,7
 611 347 611 347 611 303 c 0,8,9
 611 231 611 231 550 131 c 1,10,-1
 417 -22 l 1,11,12
 375 -11 375 -11 293 13 c 1,13,14
 287 -97 287 -97 263 -188 c 1,15,-1
 241 -189 l 1,16,17
 216 -100 216 -100 216 43 c 1,18,19
 198 59 198 59 163 59 c 0,20,21
 150 59 150 59 141 56 c 0,22,23
 122 44 122 44 110 27 c 1,24,-1
 95 33 l 1,25,-1
 162 158 l 1,26,27
 167 157 167 157 174 154 c 0,28,29
 188 143 188 143 218 126 c 1,30,-1
 218 503 l 2,31,32
 218 551 218 551 191 589 c 0,33,34
 162 631 162 631 117 638 c 0,35,36
 78 643 78 643 48.5 614 c 128,-1,37
 19 585 19 585 19 545 c 0,38,39
 19 543 19 543 19 543 c 1,40,41
 15 493 15 493 51 448 c 0,42,43
 84 406 84 406 121 403 c 1,44,-1
 119 385 l 1,45,46
 68 389 68 389 33 430.5 c 128,-1,47
 -2 472 -2 472 -2 524 c 0,48,49
 -2 537 -2 537 0 549 c 0,50,51
 0 602 0 602 40 656.5 c 128,-1,52
 80 711 80 711 132 711 c 0,53,54
 207 711 207 711 244 667 c 0,55,56
 276 630 276 630 291 546 c 1,57,-1
 395 651 l 1,58,59
 451 688 451 688 497 707 c 1,60,-1
 497 708 l 1,0,-1
404 621 m 1,61,62
 337 556 337 556 300 505 c 1,63,-1
 300 97 l 1,64,-1
 435 47 l 1,65,-1
 448 47 l 1,66,67
 492 79 492 79 520 140 c 0,68,69
 534 170 534 170 536 209 c 2,70,71
 536 209 536 209 536 280 c 1,72,73
 530 296 530 296 465 449 c 0,74,75
 421 552 421 552 404 620 c 1,76,-1
 404 621 l 1,61,62
EndSplineSet
Validated: 33
EndChar

StartChar: Q
Encoding: 81 81 52
Width: 776
Flags: W
LayerCount: 2
Fore
SplineSet
614 70 m 1,0,1
 648 61 648 61 683 43 c 0,2,3
 685 43 685 43 688.5 42 c 128,-1,4
 692 41 692 41 695 41 c 0,5,6
 718 41 718 41 742 65 c 1,7,-1
 757 53 l 1,8,-1
 663 -27 l 1,9,10
 610 -21 610 -21 565 -1 c 1,11,-1
 509 -27 l 1,12,-1
 494 -14 l 1,13,-1
 614 70 l 1,0,1
259 723 m 1,14,-1
 278 723 l 1,15,16
 300 680 300 680 340 673 c 0,17,18
 479 650 479 650 533 632 c 0,19,20
 626 602 626 602 671 543 c 0,21,22
 723 474 723 474 721 351 c 0,23,24
 719 231 719 231 653 153 c 0,25,26
 608 99 608 99 485 22 c 1,27,28
 450 7 450 7 415 -7 c 0,29,30
 374 -23 374 -23 343 -23 c 0,31,32
 315 -23 315 -23 290 -11 c 2,33,-1
 91 81 l 1,34,35
 77 79 77 79 59 69 c 0,36,37
 33 56 33 56 25 53 c 1,38,-1
 12 67 l 1,39,-1
 131 154 l 1,40,-1
 335 58 l 2,41,42
 384 35 384 35 422 35 c 0,43,44
 447 35 447 35 476 44 c 1,45,46
 665 134 665 134 665 341 c 0,47,48
 665 441 665 441 603 499 c 0,49,50
 553 545 553 545 457 569 c 0,51,52
 424 577 424 577 290 599 c 1,53,54
 252 615 252 615 229 648 c 1,55,56
 174 615 174 615 132 572 c 0,57,58
 111 550 111 550 111 520 c 0,59,60
 111 499 111 499 121 476 c 0,61,62
 132 449 132 449 177 390 c 0,63,64
 211 347 211 347 245 304 c 1,65,66
 251 285 251 285 251 270 c 0,67,68
 251 227 251 227 208 207 c 0,69,70
 174 190 174 190 120 190 c 0,71,72
 91 190 91 190 66 195 c 1,73,-1
 66 214 l 1,74,75
 81 210 81 210 102 210 c 0,76,77
 177 210 177 210 177 248 c 0,78,79
 177 263 177 263 163 281 c 0,80,81
 126 325 126 325 89 368 c 0,82,83
 46 425 46 425 44 469 c 0,84,85
 43 499 43 499 61 533.5 c 128,-1,86
 79 568 79 568 104 586 c 0,87,88
 148 613 148 613 230 677 c 0,89,90
 242 688 242 688 259 722 c 1,91,-1
 259 723 l 1,14,-1
EndSplineSet
Validated: 33
EndChar

StartChar: R
Encoding: 82 82 53
Width: 736
Flags: W
LayerCount: 2
Fore
SplineSet
561 714 m 1,0,-1
 572 700 l 1,1,2
 561 685 561 685 566 674 c 0,3,4
 573 655 573 655 614 610 c 0,5,6
 657 562 657 562 673 558 c 1,7,8
 691 564 691 564 695 564 c 0,9,10
 705 558 705 558 707 547 c 1,11,12
 622 498 622 498 554 431 c 1,13,14
 583 394 583 394 600 283 c 0,15,16
 623 137 623 137 633 104 c 0,17,18
 644 67 644 67 667 67 c 0,19,20
 685 67 685 67 709 91 c 1,21,-1
 720 78 l 1,22,-1
 642 -22 l 1,23,-1
 623 -22 l 1,24,25
 565 40 565 40 537 147 c 0,26,27
 520 212 520 212 507 337 c 0,28,29
 503 380 503 380 471 380 c 1,30,-1
 396 336 l 1,31,32
 396 -24 396 -24 194 -24 c 1,33,34
 116 -10 116 -10 94 -10 c 0,35,36
 70 -10 70 -10 47 -15 c 0,37,38
 39 -15 39 -15 33 -7 c 1,39,40
 39 54 39 54 16 86 c 1,41,-1
 27 101 l 1,42,43
 42 93 42 93 62 93 c 0,44,45
 94 93 94 93 118 110 c 1,46,47
 126 104 126 104 128 96 c 0,48,49
 118 48 118 48 118 52 c 1,50,51
 118 44 118 44 121 37 c 0,52,53
 136 -3 136 -3 178 -3 c 0,54,55
 221 -3 221 -3 260 30 c 0,56,57
 325 86 325 86 325 269 c 0,58,59
 325 310 325 310 322 361 c 0,60,61
 315 461 315 461 283 532 c 0,62,63
 238 633 238 633 156 633 c 0,64,65
 97 633 97 633 68 597.5 c 128,-1,66
 39 562 39 562 43 503 c 0,67,68
 51 370 51 370 172 326 c 1,69,-1
 163 311 l 1,70,71
 92 330 92 330 53 390 c 0,72,73
 16 445 16 445 16 521 c 0,74,75
 16 594 16 594 52 645 c 0,76,77
 92 701 92 701 165 709 c 0,78,79
 175 710 175 710 185 710 c 0,80,81
 291 710 291 710 356 580 c 1,82,-1
 561 714 l 1,0,-1
488 625 m 1,83,84
 421 597 421 597 365 556 c 1,85,86
 396 461 396 461 398 368 c 1,87,88
 506 419 506 419 598 501 c 1,89,-1
 488 625 l 1,83,84
EndSplineSet
Validated: 33
EndChar

StartChar: S
Encoding: 83 83 54
Width: 792
Flags: W
LayerCount: 2
Fore
SplineSet
398 708 m 1,0,1
 440 708 440 708 445 706 c 0,2,3
 527 673 527 673 620 613 c 0,4,5
 635 608 635 608 650 608 c 0,6,7
 680 608 680 608 694 629 c 0,8,9
 701 641 701 641 701 650 c 256,10,11
 701 659 701 659 694 667.5 c 128,-1,12
 687 676 687 676 687 679 c 2,13,-1
 687 681 l 2,14,15
 687 701 687 701 708 701 c 0,16,17
 728 701 728 701 728 666 c 0,18,19
 728 633 728 633 702 609 c 0,20,21
 680 589 680 589 643 572 c 0,22,23
 611 558 611 558 578 544 c 1,24,-1
 565 546 l 1,25,-1
 401 640 l 1,26,27
 367 650 367 650 348 651 c 0,28,29
 239 654 239 654 168 567 c 0,30,31
 103 487 103 487 103 377 c 0,32,33
 103 344 103 344 110 313 c 0,34,35
 141 175 141 175 264 106 c 0,36,37
 369 46 369 46 519 46 c 1,38,39
 606 58 606 58 659.5 118.5 c 128,-1,40
 713 179 713 179 706 265 c 0,41,42
 702 318 702 318 660 362 c 128,-1,43
 618 406 618 406 566 406 c 0,44,45
 556 406 556 406 546 404 c 0,46,47
 542 402 542 402 448 354 c 0,48,49
 371 315 371 315 330 310 c 1,50,51
 290 344 290 344 250 377 c 1,52,53
 207 421 207 421 207 469 c 256,54,55
 207 517 207 517 244 552.5 c 128,-1,56
 281 588 281 588 331 588 c 0,57,58
 367 588 367 588 403.5 566 c 128,-1,59
 440 544 440 544 453 511 c 1,60,-1
 432 502 l 1,61,62
 393 564 393 564 335 564 c 0,63,64
 293 564 293 564 264 540 c 0,65,66
 232 515 232 515 232 477 c 0,67,68
 232 465 232 465 236 452 c 0,69,70
 250 402 250 402 302 393 c 0,71,72
 323 387 323 387 346 398 c 2,73,-1
 521 481 l 1,74,75
 531 481 531 481 550 479 c 0,76,77
 623 463 623 463 678 393 c 128,-1,78
 733 323 733 323 733 248 c 0,79,80
 733 128 733 128 643 51 c 0,81,82
 558 -22 558 -22 437 -22 c 0,83,84
 278 -22 278 -22 167 68 c 0,85,86
 49 165 49 165 50 319 c 0,87,88
 53 634 53 634 398 707 c 1,89,-1
 398 708 l 1,0,1
EndSplineSet
Validated: 33
EndChar

StartChar: T
Encoding: 84 84 55
Width: 591
Flags: W
LayerCount: 2
Fore
SplineSet
528 575 m 0,0,1
 539 566 539 566 552 566 c 0,2,3
 571 566 571 566 592 584 c 1,4,-1
 604 573 l 1,5,-1
 512 495 l 1,6,-1
 502 495 l 1,7,-1
 374 563 l 2,8,9
 373 562 373 562 373 562 c 1,10,-1
 372 562 l 2,11,12
 361 562 361 562 355 558 c 0,13,14
 281 498 281 498 281 458 c 0,15,16
 281 421 281 421 302 404 c 2,17,-1
 405 320 l 1,18,19
 421 294 421 294 421 272 c 0,20,21
 421 238 421 238 376 201.5 c 128,-1,22
 331 165 331 165 255 165 c 0,23,24
 236 165 236 165 213 167 c 1,25,-1
 375 75 l 2,26,27
 407 57 407 57 440 57 c 0,28,29
 493 57 493 57 562 108 c 1,30,-1
 574 94 l 1,31,32
 539 65 539 65 503 38 c 0,33,34
 477 17 477 17 452 -3 c 0,35,36
 421 -23 421 -23 394 -23 c 0,37,38
 377 -23 377 -23 359 -15 c 0,39,40
 225 49 225 49 84 137 c 1,41,42
 61 137 61 137 51.5 131 c 128,-1,43
 42 125 42 125 28 104 c 1,44,-1
 12 113 l 1,45,-1
 72 194 l 2,46,47
 91 220 91 220 112 220 c 0,48,49
 137 220 137 220 177 195 c 1,50,51
 248 186 248 186 264 186 c 0,52,53
 323 186 323 186 348 217 c 1,54,55
 362 242 362 242 346 262 c 1,56,57
 247 335 247 335 222 369 c 0,58,59
 201 397 201 397 209 434 c 0,60,61
 227 497 227 497 348 575 c 1,62,63
 305 600 305 600 263 625 c 0,64,65
 208 655 208 655 172 655 c 0,66,67
 132 655 132 655 100 629.5 c 128,-1,68
 68 604 68 604 62 565 c 0,69,70
 60 553 60 553 60 542 c 0,71,72
 60 500 60 500 103 439 c 1,73,-1
 92 429 l 1,74,75
 36 485 36 485 36 546 c 0,76,77
 36 559 36 559 39 571 c 0,78,79
 52 639 52 639 125 679 c 0,80,81
 187 713 187 713 262 713 c 1,82,83
 251 719 251 719 528 575 c 0,0,1
EndSplineSet
Validated: 33
EndChar

StartChar: U
Encoding: 85 85 56
Width: 591
Flags: W
LayerCount: 2
Fore
SplineSet
98 708 m 1,0,1
 142 703 142 703 170 648 c 1,2,-1
 170 119 l 1,3,4
 185 78 185 78 260 44 c 1,5,6
 282 44 282 44 294 51 c 0,7,8
 334 74 334 74 412 122 c 1,9,-1
 412 576 l 1,10,11
 403 620 403 620 365 620 c 1,12,-1
 365 641 l 1,13,14
 411 652 411 652 441 707 c 1,15,-1
 462 707 l 1,16,17
 485 657 485 657 539 640 c 1,18,-1
 539 619 l 1,19,20
 502 610 502 610 494 568 c 1,21,-1
 494 101 l 2,22,23
 494 71 494 71 516 67 c 1,24,25
 532 69 532 69 560 92 c 1,26,-1
 578 75 l 1,27,-1
 467 -30 l 1,28,-1
 450 -22 l 1,29,-1
 454 -7 l 1,30,31
 409 11 409 11 409 93 c 2,32,-1
 409 95 l 1,33,34
 347 57 347 57 222 -15 c 0,35,36
 209 -20 209 -20 194 -20 c 0,37,38
 165 -20 165 -20 165 2 c 1,39,-1
 65 54 l 2,40,41
 63 58 63 58 63 71 c 2,42,-1
 63 73 l 1,43,44
 90 100 90 100 90 125 c 2,45,-1
 90 126 l 1,46,-1
 90 127 l 1,47,-1
 90 129 l 1,48,-1
 90 129 l 1,49,-1
 91 565 l 2,50,51
 91 606 91 606 63 621 c 1,52,53
 51 613 51 613 26 600 c 1,54,-1
 13 618 l 1,55,-1
 98 708 l 1,0,1
EndSplineSet
Validated: 5
EndChar

StartChar: V
Encoding: 86 86 57
Width: 812
Flags: W
LayerCount: 2
Fore
SplineSet
413 608 m 1,0,1
 471 706 471 706 579 706 c 0,2,3
 702 706 702 706 736 605 c 0,4,5
 753 554 753 554 753 509 c 2,6,-1
 753 502 l 1,7,-1
 764 499 l 1,8,-1
 764 482 l 1,9,10
 700 470 700 470 661 452 c 0,11,12
 619 437 619 437 619 403 c 0,13,14
 619 386 619 386 632 369 c 0,15,16
 649 344 649 344 689 305 c 0,17,18
 713 281 713 281 736 258 c 128,-1,19
 759 235 759 235 759 200 c 0,20,21
 759 139 759 139 709 80 c 0,22,23
 656 19 656 19 583 -3 c 0,24,25
 528 -20 528 -20 432 -20 c 1,26,-1
 255 109 l 2,27,28
 235 120 235 120 206 120 c 0,29,30
 172 120 172 120 123 104 c 1,31,-1
 118 122 l 1,32,33
 165 141 165 141 212 161 c 0,34,35
 246 173 246 173 301 173 c 1,36,37
 388 227 388 227 388 374 c 0,38,39
 388 477 388 477 347 554 c 0,40,41
 330 587 330 587 292.5 607 c 128,-1,42
 255 627 255 627 216 627 c 0,43,44
 149 627 149 627 103.5 586.5 c 128,-1,45
 58 546 58 546 56 480 c 0,46,47
 54 405 54 405 102 354 c 0,48,49
 146 306 146 306 223 291 c 1,50,-1
 221 274 l 1,51,52
 140 278 140 278 85.5 337.5 c 128,-1,53
 31 397 31 397 30 482 c 0,54,55
 27 578 27 578 80 640 c 0,56,57
 136 706 136 706 232 706 c 0,58,59
 282 706 282 706 334 677 c 0,60,61
 383 649 383 649 413 608 c 1,0,1
426 579 m 1,62,63
 456 489 456 489 456 418 c 0,64,65
 456 272 456 272 323 160 c 1,66,-1
 486 35 l 1,67,68
 508 13 508 13 545 13 c 256,69,70
 582 13 582 13 622 34.5 c 128,-1,71
 662 56 662 56 680 85 c 0,72,73
 695 108 695 108 695 136 c 0,74,75
 695 158 695 158 685 178.5 c 128,-1,76
 675 199 675 199 628 248 c 0,77,78
 575 302 575 302 562 321 c 0,79,80
 539 353 539 353 539 383 c 0,81,82
 539 424 539 424 583 454 c 0,83,84
 621 479 621 479 674 486 c 1,85,86
 672 523 672 523 653 592 c 0,87,88
 646 621 646 621 621 646 c 128,-1,89
 596 671 596 671 575 672 c 0,90,91
 466 673 466 673 426 579 c 1,62,63
EndSplineSet
Validated: 33
EndChar

StartChar: W
Encoding: 87 87 58
Width: 1051
Flags: W
LayerCount: 2
Fore
SplineSet
479 721 m 1,0,1
 570 716 570 716 591 629 c 1,2,3
 671 714 671 714 767 714 c 256,4,5
 863 714 863 714 908 651 c 0,6,7
 943 601 943 601 950 500 c 1,8,-1
 964 496 l 1,9,-1
 962 478 l 1,10,11
 845 469 845 469 845 406 c 0,12,13
 845 383 845 383 863 355 c 1,14,-1
 962 258 l 2,15,16
 994 227 994 227 994 185 c 0,17,18
 994 112 994 112 917 49 c 0,19,20
 895 31 895 31 850 8 c 0,21,22
 790 -22 790 -22 750 -22 c 0,23,24
 735 -22 735 -22 724 -17 c 0,25,26
 660 10 660 10 565 72 c 1,27,-1
 555 73 l 1,28,29
 435 -2 435 -2 426 -7 c 128,-1,30
 417 -12 417 -12 394 -22 c 1,31,-1
 253 90 l 2,32,33
 235 100 235 100 216 100 c 0,34,35
 191 100 191 100 155 82 c 1,36,-1
 144 100 l 1,37,-1
 264 167 l 1,38,-1
 291 167 l 1,39,40
 378 221 378 221 378 402 c 0,41,42
 378 487 378 487 338 551 c 0,43,44
 291 625 291 625 209 625 c 0,45,46
 145 625 145 625 100.5 579 c 128,-1,47
 56 533 56 533 56 469 c 0,48,49
 56 334 56 334 219 293 c 1,50,-1
 217 276 l 1,51,52
 137 280 137 280 83.5 335 c 128,-1,53
 30 390 30 390 30 470 c 0,54,55
 30 554 30 554 78 622 c 0,56,57
 131 697 131 697 213 704 c 0,58,59
 307 712 307 712 374 648 c 1,60,61
 398 717 398 717 479 721 c 1,0,1
598 543 m 256,62,63
 598 492 598 492 683 349 c 0,64,65
 696 321 696 321 696 292 c 0,66,67
 696 253 696 253 670 206 c 0,68,69
 664 194 664 194 619 125 c 1,70,71
 702 73 702 73 786 35 c 0,72,73
 801 31 801 31 816 31 c 0,74,75
 858 31 858 31 896 65.5 c 128,-1,76
 934 100 934 100 934 128 c 0,77,78
 934 146 934 146 922 171 c 1,79,80
 876 232 876 232 820 278 c 1,81,82
 775 327 775 327 775 376 c 0,83,84
 775 453 775 453 871 479 c 1,85,86
 851 588 851 588 842 611 c 0,87,88
 812 687 812 687 744 687 c 0,89,90
 691 687 691 687 644.5 640.5 c 128,-1,91
 598 594 598 594 598 543 c 256,62,63
393 625 m 1,92,93
 455 542 455 542 455 427 c 0,94,95
 455 266 455 266 312 150 c 1,96,97
 346 118 346 118 380 87 c 0,98,99
 431 43 431 43 460 43 c 0,100,101
 471 43 471 43 479 48 c 0,102,103
 509 67 509 67 537 85 c 128,-1,104
 565 103 565 103 587 126 c 0,105,106
 636 179 636 179 636 234 c 0,107,108
 636 249 636 249 631 261 c 0,109,110
 601 319 601 319 571 376 c 0,111,112
 537 444 537 444 537 500 c 256,113,114
 537 556 537 556 559 602 c 1,115,116
 559 602 559 602 559 604 c 2,117,-1
 559 605 l 2,118,119
 559 640 559 640 532 664 c 0,120,121
 508 684 508 684 478 686 c 0,122,123
 406 690 406 690 393 625 c 1,92,93
EndSplineSet
Validated: 33
EndChar

StartChar: X
Encoding: 88 88 59
Width: 572
Flags: W
LayerCount: 2
Fore
SplineSet
322 566 m 1,0,1
 335 628 335 628 439 704 c 1,2,-1
 460 705 l 1,3,4
 477 695 477 695 511 670 c 0,5,6
 530 655 530 655 540 655 c 0,7,8
 547 655 547 655 555 662 c 1,9,-1
 568 651 l 1,10,-1
 507 585 l 1,11,12
 500 589 500 589 458 614.5 c 128,-1,13
 416 640 416 640 415 640 c 0,14,15
 410 642 410 642 405 642 c 0,16,17
 380 642 380 642 353 583 c 0,18,19
 332 535 332 535 328 504 c 1,20,-1
 328 387 l 1,21,-1
 412 387 l 1,22,23
 448 408 448 408 466 446 c 1,24,-1
 485 447 l 1,25,-1
 428 320 l 1,26,-1
 328 322 l 1,27,-1
 328 165 l 1,28,29
 344 55 344 55 420 55 c 0,30,31
 480 55 480 55 543 118 c 1,32,-1
 557 105 l 1,33,-1
 422 -21 l 1,34,-1
 402 -21 l 1,35,36
 320 14 320 14 307 23 c 0,37,38
 277 47 277 47 256 114 c 1,39,40
 246 67 246 67 201 14 c 0,41,42
 174 -18 174 -18 148 -18 c 0,43,44
 133 -18 133 -18 106 -4 c 0,45,46
 71 14 71 14 55 19 c 1,47,48
 43 14 43 14 20 -3 c 1,49,-1
 8 9 l 1,50,-1
 82 96 l 1,51,-1
 101 96 l 1,52,-1
 183 47 l 1,53,54
 232 68 232 68 246 171 c 0,55,56
 248 186 248 186 253 322 c 1,57,-1
 199 322 l 1,58,59
 144 308 144 308 114 244 c 1,60,-1
 95 245 l 1,61,-1
 137 387 l 1,62,-1
 253 387 l 1,63,64
 254 406 254 406 254 429 c 0,65,66
 254 510 254 510 237 563 c 0,67,68
 213 636 213 636 159 636 c 0,69,70
 146 636 146 636 132 632 c 0,71,72
 101 623 101 623 53 575 c 1,73,-1
 38 585 l 1,74,-1
 135 705 l 1,75,76
 210 705 210 705 251 677 c 0,77,78
 297 645 297 645 322 566 c 1,0,1
EndSplineSet
Validated: 1
EndChar

StartChar: Y
Encoding: 89 89 60
Width: 719
Flags: W
LayerCount: 2
Fore
SplineSet
529 708 m 1,0,-1
 543 697 l 1,1,2
 536 682 536 682 538 676 c 0,3,4
 599 571 599 571 625 498 c 0,5,6
 659 406 659 406 659 316 c 0,7,8
 659 254 659 254 644 188 c 0,9,10
 615 65 615 65 521 -52 c 0,11,12
 413 -187 413 -187 301 -191 c 0,13,14
 254 -193 254 -193 216 -175 c 0,15,16
 168 -152 168 -152 168 -108 c 0,17,18
 168 -61 168 -61 211 -61 c 0,19,20
 234 -61 234 -61 245 -82 c 1,21,22
 243 -95 243 -95 243 -105 c 0,23,24
 243 -160 243 -160 309 -160 c 0,25,26
 414 -160 414 -160 501 -15 c 0,27,28
 574 108 574 108 583 223 c 0,29,30
 585 248 585 248 585 271 c 0,31,32
 585 362 585 362 551 447 c 0,33,34
 532 494 532 494 464 618 c 1,35,36
 454 618 454 618 411 565 c 0,37,38
 377 525 377 525 375 521 c 0,39,40
 385 479 385 479 385 432 c 0,41,42
 385 346 385 346 354 274 c 0,43,44
 319 195 319 195 255 158 c 1,45,-1
 357 75 l 2,46,47
 368 66 368 66 383 66 c 0,48,49
 404 66 404 66 434 84 c 1,50,-1
 447 67 l 1,51,-1
 301 -22 l 1,52,-1
 285 -7 l 1,53,-1
 299 12 l 1,54,55
 274 39 274 39 235 66 c 0,56,57
 200 89 200 89 165 112 c 1,58,-1
 112 111 l 1,59,-1
 110 130 l 1,60,61
 229 148 229 148 286 225 c 0,62,63
 323 277 323 277 323 364 c 0,64,65
 323 399 323 399 317 437 c 0,66,67
 291 588 291 588 191 625 c 0,68,69
 172 631 172 631 153 631 c 0,70,71
 103 631 103 631 66.5 589.5 c 128,-1,72
 30 548 30 548 30 495 c 0,73,74
 30 430 30 430 67 384.5 c 128,-1,75
 104 339 104 339 167 331 c 1,76,-1
 163 314 l 1,77,78
 86 319 86 319 43 377 c 0,79,80
 3 430 3 430 3 508 c 0,81,82
 3 583 3 583 60.5 643.5 c 128,-1,83
 118 704 118 704 193 704 c 0,84,85
 253 704 253 704 305 656 c 0,86,87
 353 611 353 611 368 550 c 1,88,89
 417 606 417 606 522 711 c 1,90,-1
 529 708 l 1,0,-1
EndSplineSet
Validated: 33
EndChar

StartChar: Z
Encoding: 90 90 61
Width: 536
Flags: W
LayerCount: 2
Fore
SplineSet
460 497 m 0,0,1
 455 443 455 443 415 399 c 0,2,3
 379 359 379 359 326 340 c 0,4,5
 302 331 302 331 277 326 c 1,6,7
 482 286 482 286 482 72 c 1,8,9
 470 -6 470 -6 411.5 -61.5 c 128,-1,10
 353 -117 353 -117 278 -125 c 0,11,12
 257 -127 257 -127 224.5 -138.5 c 128,-1,13
 192 -150 192 -150 184 -151 c 1,14,15
 162 -127 162 -127 140 -103 c 0,16,17
 109 -72 109 -72 88 -77 c 0,18,19
 41 -86 41 -86 41 -127 c 0,20,21
 41 -157 41 -157 63 -187 c 1,22,23
 59 -195 59 -195 48 -197 c 1,24,25
 20 -169 20 -169 20 -123 c 0,26,27
 20 -76 20 -76 57 -64 c 0,28,29
 96 -48 96 -48 150 -26 c 1,30,31
 160 -6 160 -6 181 -13 c 0,32,33
 182 -13 182 -13 183 -13 c 0,34,35
 213 -98 213 -98 280 -98 c 0,36,37
 334 -98 334 -98 375 -50 c 0,38,39
 412 -7 412 -7 418 48 c 0,40,41
 426 133 426 133 335 208 c 0,42,43
 249 277 249 277 161 277 c 0,44,45
 94 277 94 277 82 217 c 1,46,47
 65 213 65 213 44 220 c 1,48,49
 76 292 76 292 144 309 c 1,50,51
 96 326 96 326 72 352 c 0,52,53
 59 366 59 366 59 371 c 0,54,55
 59 378 59 378 79 378 c 0,56,57
 80 377 80 377 81 377 c 2,58,-1
 82 377 l 1,59,60
 118 336 118 336 191 336 c 256,61,62
 264 336 264 336 319 377 c 0,63,64
 379 422 379 422 379 494 c 0,65,66
 379 559 379 559 329.5 608 c 128,-1,67
 280 657 280 657 215 660 c 0,68,69
 148 663 148 663 102.5 626 c 128,-1,70
 57 589 57 589 46 528 c 1,71,-1
 26 530 l 1,72,73
 32 611 32 611 94 660 c 0,74,75
 153 706 153 706 235 706 c 2,76,-1
 240 706 l 2,77,78
 338 706 338 706 401 652 c 0,79,80
 468 594 468 594 460 497 c 0,0,1
EndSplineSet
Validated: 33
EndChar

StartChar: bracketleft
Encoding: 91 91 62
Width: 259
Flags: W
LayerCount: 2
Fore
SplineSet
63 672 m 1,0,-1
 250 672 l 1,1,-1
 250 649 l 1,2,-1
 112 647 l 1,3,-1
 112 -97 l 1,4,-1
 248 -97 l 1,5,-1
 248 -122 l 1,6,-1
 63 -122 l 1,7,-1
 63 672 l 1,0,-1
EndSplineSet
Validated: 1
EndChar

StartChar: backslash
Encoding: 92 92 63
Width: 719
Flags: W
LayerCount: 2
Fore
SplineSet
102 237 m 1,0,-1
 624 236 l 1,1,-1
 624 183 l 1,2,-1
 102 184 l 1,3,-1
 102 237 l 1,0,-1
EndSplineSet
Validated: 1
EndChar

StartChar: bracketright
Encoding: 93 93 64
Width: 259
Flags: W
LayerCount: 2
Fore
SplineSet
1 672 m 1,0,-1
 186 672 l 1,1,-1
 186 -122 l 1,2,-1
 1 -122 l 1,3,-1
 1 -97 l 1,4,-1
 137 -97 l 1,5,-1
 137 646 l 1,6,-1
 1 646 l 1,7,-1
 1 672 l 1,0,-1
EndSplineSet
Validated: 1
EndChar

StartChar: asciicircum
Encoding: 94 94 65
Width: 276
Flags: W
LayerCount: 2
Fore
SplineSet
112 696 m 1,0,-1
 163 696 l 1,1,-1
 255 531 l 1,2,-1
 232 531 l 1,3,-1
 137 628 l 1,4,-1
 41 531 l 1,5,-1
 19 531 l 1,6,-1
 112 696 l 1,0,-1
EndSplineSet
Validated: 1
EndChar

StartChar: underscore
Encoding: 95 95 66
Width: 608
Flags: W
LayerCount: 2
Fore
SplineSet
0 -29 m 1,0,-1
 609 -29 l 1,1,-1
 607 -75 l 1,2,-1
 0 -75 l 1,3,-1
 0 -29 l 1,0,-1
EndSplineSet
Validated: 1
EndChar

StartChar: a
Encoding: 97 97 68
Width: 444
Flags: W
LayerCount: 2
Fore
SplineSet
209 474 m 1,0,1
 231 474 231 474 241 470 c 0,2,3
 304 424 304 424 375 395 c 0,4,5
 377 391 377 391 377 388 c 0,6,7
 377 384 377 384 363 375 c 0,8,9
 347 363 347 363 347 340 c 2,10,-1
 347 107 l 1,11,-1
 347 106 l 1,12,-1
 347 105 l 2,13,14
 347 65 347 65 379 56 c 0,15,16
 399 50 399 50 413 75 c 1,17,-1
 426 65 l 1,18,-1
 345 -29 l 1,19,20
 338 -27 338 -27 333 -14 c 128,-1,21
 328 -1 328 -1 323 2 c 0,22,23
 297 21 297 21 288 39 c 0,24,25
 283 52 283 52 278 89 c 1,26,-1
 135 -33 l 1,27,-1
 121 -20 l 1,28,-1
 128 -11 l 1,29,30
 68 72 68 72 58 97 c 0,31,32
 38 142 38 142 38 224 c 1,33,34
 51 290 51 290 73 331 c 0,35,36
 92 364 92 364 128 399 c 0,37,38
 168 436 168 436 209 474 c 1,0,1
182 416 m 1,39,40
 101 351 101 351 101 227 c 1,41,42
 110 126 110 126 179 57 c 0,43,44
 190 50 190 50 197 54 c 0,45,46
 198 54 198 54 199 54 c 2,47,-1
 283 117 l 1,48,-1
 283 357 l 1,49,-1
 182 416 l 1,39,40
EndSplineSet
Validated: 33
EndChar

StartChar: b
Encoding: 98 98 69
Width: 404
Flags: W
LayerCount: 2
Fore
SplineSet
223 687 m 1,0,-1
 226 668 l 1,1,2
 184 665 184 665 161 641 c 0,3,4
 141 622 141 622 129 579 c 1,5,-1
 129 385 l 1,6,-1
 276 482 l 1,7,-1
 287 467 l 1,8,-1
 275 455 l 1,9,-1
 355 318 l 1,10,11
 369 279 369 279 369 246 c 0,12,13
 369 194 369 194 330 130 c 0,14,15
 302 86 302 86 268 54 c 0,16,17
 226 16 226 16 183 -22 c 1,18,-1
 182 -22 l 1,19,-1
 181 -22 l 1,20,-1
 180 -22 l 1,21,-1
 178 -22 l 2,22,23
 156 -22 156 -22 137 2 c 1,24,-1
 39 41 l 1,25,26
 41 59 41 59 57 75 c 1,27,28
 63 167 63 167 63 564 c 0,29,30
 63 615 63 615 46 634 c 1,31,-1
 55 653 l 1,32,33
 62 647 62 647 69 640 c 0,34,35
 88 617 88 617 88 593 c 1,36,37
 113 680 113 680 223 686 c 1,38,-1
 223 687 l 1,0,-1
207 410 m 1,39,-1
 128 353 l 1,40,-1
 128 97 l 1,41,-1
 135 80 l 1,42,-1
 217 42 l 1,43,-1
 228 42 l 1,44,45
 262 68 262 68 285 105 c 0,46,47
 311 147 311 147 311 185 c 0,48,49
 311 224 311 224 290 272 c 1,50,-1
 207 410 l 1,39,-1
EndSplineSet
Validated: 1
EndChar

StartChar: c
Encoding: 99 99 70
Width: 295
Flags: W
LayerCount: 2
Fore
SplineSet
181 476 m 1,0,-1
 196 476 l 1,1,-1
 250 432 l 1,2,3
 262 430 262 430 273 439 c 1,4,-1
 287 427 l 1,5,-1
 223 374 l 1,6,-1
 211 374 l 1,7,-1
 149 421 l 1,8,-1
 121 394 l 1,9,10
 110 333 110 333 110 267 c 0,11,12
 110 188 110 188 125 108 c 1,13,14
 148 62 148 62 190 62 c 0,15,16
 197 62 197 62 205 64 c 2,17,-1
 264 111 l 1,18,-1
 281 100 l 1,19,-1
 144 -26 l 1,20,21
 137 -24 137 -24 134 -19 c 2,22,-1
 134 -3 l 1,23,24
 87 13 87 13 68 52 c 0,25,26
 57 75 57 75 47 137 c 1,27,28
 47 304 47 304 47 316 c 0,29,30
 48 328 48 328 53 358 c 1,31,-1
 181 476 l 1,0,-1
EndSplineSet
Validated: 1
EndChar

StartChar: d
Encoding: 100 100 71
Width: 423
Flags: W
LayerCount: 2
Fore
SplineSet
154 667 m 1,0,1
 120 664 120 664 110 658 c 0,2,3
 95 650 95 650 86 623 c 1,4,-1
 86 621 l 2,5,6
 86 588 86 588 130 566 c 1,7,-1
 299 457 l 1,8,9
 384 383 384 383 384 288 c 0,10,11
 384 173 384 173 275 47 c 1,12,-1
 203 -22 l 1,13,-1
 186 -22 l 1,14,15
 186 3 186 3 124 28 c 0,16,17
 122 29 122 29 39 56 c 1,18,19
 39 56 39 56 39 57 c 0,20,21
 35 64 35 64 40 74 c 1,22,23
 62 85 62 85 64 87 c 0,24,25
 74 95 74 95 74 111 c 2,26,-1
 74 113 l 1,27,-1
 74 114 l 1,28,-1
 74 385 l 1,29,-1
 155 449 l 1,30,31
 123 477 123 477 44 539 c 1,32,33
 35 554 35 554 35 574 c 0,34,35
 35 614 35 614 64.5 650 c 128,-1,36
 94 686 94 686 134 686 c 0,37,38
 144 686 144 686 154 684 c 1,39,-1
 154 667 l 1,0,1
183 429 m 1,40,41
 139 411 139 411 140 381 c 2,42,-1
 140 98 l 1,43,-1
 232 47 l 1,44,-1
 247 47 l 1,45,46
 283 79 283 79 306.5 129.5 c 128,-1,47
 330 180 330 180 330 228 c 0,48,49
 330 355 330 355 183 428 c 1,50,-1
 183 429 l 1,40,41
EndSplineSet
Validated: 33
EndChar

StartChar: e
Encoding: 101 101 72
Width: 351
Flags: W
LayerCount: 2
Fore
SplineSet
203 474 m 1,0,-1
 223 474 l 1,1,2
 299 353 299 353 304 344 c 128,-1,3
 309 335 309 335 317 312 c 1,4,-1
 121 151 l 1,5,6
 126 114 126 114 149.5 87 c 128,-1,7
 173 60 173 60 209 60 c 2,8,-1
 210 60 l 2,9,10
 236 60 236 60 255 74 c 128,-1,11
 274 88 274 88 292 103 c 1,12,13
 304 103 304 103 312 93 c 1,14,-1
 174 -26 l 2,15,16
 168 -26 168 -26 165 -19 c 256,17,18
 162 -12 162 -12 167 -7 c 1,19,20
 61 20 61 20 50 140 c 0,21,22
 43 217 43 217 57 348 c 1,23,-1
 66 364 l 1,24,-1
 203 474 l 1,0,-1
171 414 m 1,25,26
 158 404 158 404 141 386 c 0,27,28
 121 364 121 364 121 354 c 0,29,30
 111 281 111 281 122 178 c 1,31,32
 182 221 182 221 245 282 c 1,33,-1
 171 414 l 1,25,26
EndSplineSet
Validated: 33
EndChar

StartChar: f
Encoding: 102 102 73
Width: 259
Flags: W
LayerCount: 2
Fore
SplineSet
275 675 m 0,0,1
 277 678 277 678 280 681 c 0,2,3
 291 690 291 690 302 675 c 1,4,-1
 264 596 l 1,5,6
 225 623 225 623 182 623 c 256,7,8
 139 623 139 623 128 585 c 1,9,-1
 126 573 l 2,10,11
 122 547 122 547 157 441 c 1,12,-1
 253 441 l 1,13,-1
 253 384 l 1,14,-1
 157 384 l 1,15,16
 159 330 159 330 159 275 c 0,17,18
 159 55 159 55 128 -187 c 1,19,-1
 110 -187 l 1,20,21
 80 80 80 80 80 298 c 0,22,23
 80 342 80 342 81 384 c 1,24,-1
 32 384 l 1,25,26
 28 388 28 388 33 403 c 1,27,28
 42 410 42 410 52 417 c 0,29,30
 71 432 71 432 74 448 c 2,31,-1
 103 585 l 1,32,33
 135 687 135 687 218 687 c 0,34,35
 245 687 245 687 275 675 c 0,0,1
EndSplineSet
Validated: 33
EndChar

StartChar: g
Encoding: 103 103 74
Width: 444
Flags: W
LayerCount: 2
Fore
SplineSet
211 474 m 1,0,1
 224 477 224 477 237 473 c 1,2,3
 289 425 289 425 380 399 c 1,4,5
 347 283 347 283 347 213 c 0,6,7
 347 174 347 174 355 136 c 0,8,9
 358 119 358 119 372 87.5 c 128,-1,10
 386 56 386 56 390 35 c 0,11,12
 392 21 392 21 392 6 c 0,13,14
 392 -72 392 -72 334.5 -131 c 128,-1,15
 277 -190 277 -190 200 -190 c 0,16,17
 136 -190 136 -190 92.5 -156 c 128,-1,18
 49 -122 49 -122 39 -62 c 1,19,-1
 101 -62 l 1,20,21
 101 -106 101 -106 128.5 -137 c 128,-1,22
 156 -168 156 -168 201 -168 c 0,23,24
 244 -168 244 -168 290 -135 c 0,25,26
 340 -99 340 -99 340 -57 c 0,27,28
 340 -45 340 -45 335 -33 c 0,29,30
 299 56 299 56 296.5 63.5 c 128,-1,31
 294 71 294 71 289 101 c 1,32,-1
 134 -13 l 1,33,-1
 121 -5 l 1,34,-1
 126 5 l 1,35,36
 100 44 100 44 74 84 c 0,37,38
 45 131 45 131 41 171 c 1,39,40
 43 267 43 267 90 343 c 0,41,42
 126 400 126 400 211 473 c 1,43,-1
 211 474 l 1,0,1
182 410 m 1,44,45
 104 338 104 338 104 240 c 0,46,47
 104 211 104 211 111 181 c 0,48,49
 116 158 116 158 139 121 c 128,-1,50
 162 84 162 84 177 75 c 128,-1,51
 192 66 192 66 217 72 c 1,52,-1
 285 124 l 1,53,54
 280 157 280 157 280 188 c 0,55,56
 280 264 280 264 308 343 c 1,57,-1
 182 410 l 1,44,45
EndSplineSet
Validated: 33
EndChar

StartChar: h
Encoding: 104 104 75
Width: 478
Flags: W
LayerCount: 2
Fore
SplineSet
247 692 m 1,0,-1
 245 673 l 1,1,2
 172 666 172 666 155 588 c 1,3,-1
 155 370 l 1,4,5
 196 409 196 409 283 482 c 1,6,7
 293 478 293 478 295 469 c 0,8,9
 295 457 295 457 294 455 c 0,10,11
 393 347 393 347 393 229 c 0,12,13
 393 206 393 206 389 182 c 0,14,15
 354 69 354 69 308 -11 c 0,16,17
 284 -51 284 -51 187 -188 c 1,18,-1
 171 -175 l 1,19,20
 236 -93 236 -93 279 -6 c 0,21,22
 332 101 332 101 332 182 c 0,23,24
 332 218 332 218 295 299 c 0,25,26
 259 375 259 375 232 407 c 1,27,-1
 152 337 l 1,28,-1
 152 86 l 1,29,30
 157 70 157 70 171 63 c 1,31,32
 200 71 200 71 221 96 c 1,33,-1
 234 81 l 1,34,35
 182 36 182 36 157 -9 c 0,36,37
 150 -16 150 -16 131 -16 c 2,38,-1
 129 -16 l 1,39,40
 108 21 108 21 60 35 c 0,41,42
 58 39 58 39 55 51 c 1,43,44
 71 61 71 61 75.5 66.5 c 128,-1,45
 80 72 80 72 83 87 c 2,46,-1
 83 604 l 1,47,48
 78 625 78 625 67 640 c 1,49,-1
 79 652 l 1,50,51
 101 626 101 626 111 596 c 1,52,53
 122 634 122 634 155.5 663.5 c 128,-1,54
 189 693 189 693 227 693 c 0,55,56
 237 693 237 693 247 691 c 1,57,-1
 247 692 l 1,0,-1
EndSplineSet
Validated: 5
EndChar

StartChar: i
Encoding: 105 105 76
Width: 240
Flags: W
LayerCount: 2
Fore
SplineSet
119 479 m 1,0,1
 127 473 127 473 129 464 c 0,2,3
 129 459 129 459 123 447 c 1,4,5
 145 419 145 419 180 406 c 0,6,7
 186 400 186 400 180 388 c 1,8,9
 164 378 164 378 159 374 c 0,10,11
 151 366 151 366 149 352 c 2,12,-1
 149 93 l 2,13,14
 149 66 149 66 173 56 c 1,15,-1
 203 80 l 1,16,-1
 217 66 l 1,17,-1
 130 -27 l 1,18,19
 123 -27 123 -27 121 -25 c 0,20,21
 107 12 107 12 81 27 c 1,22,-1
 81 362 l 2,23,24
 78 372 78 372 72 377 c 1,25,26
 51 377 51 377 38 360 c 1,27,-1
 26 374 l 1,28,-1
 119 479 l 1,0,1
171 695 m 0,29,30
 194 684 194 684 194 656 c 1,31,32
 167 596 167 596 114 549 c 1,33,-1
 99 550 l 1,34,35
 103 619 103 619 126 678 c 1,36,37
 141 697 141 697 161 697 c 0,38,39
 166 697 166 697 171 695 c 0,29,30
EndSplineSet
Validated: 1
EndChar

StartChar: j
Encoding: 106 106 77
Width: 240
Flags: W
LayerCount: 2
Fore
SplineSet
119 479 m 1,0,1
 129 474 129 474 131 466 c 0,2,3
 130 459 130 459 126 446 c 1,4,5
 151 421 151 421 183 405 c 1,6,7
 188 394 188 394 182 388 c 0,8,9
 153 378 153 378 149 352 c 1,10,-1
 149 62 l 1,11,-1
 167 -25 l 1,12,-1
 146 -25 l 1,13,-1
 129 19 l 1,14,15
 89 -101 89 -101 84.5 -112.5 c 128,-1,16
 80 -124 80 -124 46 -190 c 1,17,-1
 23 -190 l 1,18,19
 70 -105 70 -105 81 28 c 0,20,21
 96 215 96 215 81 365 c 1,22,23
 71 375 71 375 60 375 c 0,24,25
 48 375 48 375 39 361 c 1,26,-1
 28 374 l 1,27,-1
 119 479 l 1,0,1
183 688 m 0,28,29
 196 675 196 675 196 660 c 0,30,31
 196 656 196 656 195 653 c 0,32,33
 164 608 164 608 118 553 c 1,34,-1
 101 554 l 1,35,36
 105 620 105 620 132 684 c 0,37,38
 141 696 141 696 159 696 c 0,39,40
 174 696 174 696 183 688 c 0,28,29
EndSplineSet
Validated: 33
EndChar

StartChar: k
Encoding: 107 107 78
Width: 242
Flags: W
LayerCount: 2
Fore
SplineSet
82 600 m 1,0,1
 71 624 71 624 63 635 c 1,2,-1
 74 647 l 1,3,4
 100 627 100 627 108 595 c 1,5,6
 127 686 127 686 241 686 c 1,7,-1
 241 668 l 1,8,9
 168 661 168 661 145 586 c 1,10,-1
 147 515 l 1,11,12
 158 585 158 585 180 611 c 0,13,14
 195 627 195 627 245 647 c 1,15,-1
 236 527 l 1,16,17
 230 528 230 528 225 528 c 0,18,19
 191 528 191 528 164 496 c 1,20,-1
 235 496 l 1,21,-1
 235 472 l 1,22,-1
 145 472 l 1,23,-1
 145 76 l 1,24,25
 151 57 151 57 167 57 c 256,26,27
 183 57 183 57 197 74 c 1,28,-1
 209 63 l 1,29,30
 171 25 171 25 139 -22 c 1,31,32
 130 -26 130 -26 124 -23 c 0,33,34
 101 18 101 18 50 30 c 1,35,36
 46 36 46 36 46 44 c 1,37,38
 82 70 82 70 82 102 c 2,39,-1
 82 472 l 1,40,-1
 35 472 l 1,41,-1
 35 496 l 1,42,-1
 82 496 l 1,43,-1
 82 600 l 1,0,1
EndSplineSet
Validated: 1
EndChar

StartChar: l
Encoding: 108 108 79
Width: 240
Flags: W
LayerCount: 2
Fore
SplineSet
239 667 m 2,0,1
 238 666 238 666 236 666 c 0,2,3
 203 666 203 666 172.5 642.5 c 128,-1,4
 142 619 142 619 139 590 c 2,5,-1
 140 86 l 1,6,7
 149 54 149 54 184 54 c 1,8,9
 216 63 216 63 236 81 c 1,10,-1
 250 68 l 1,11,-1
 127 -27 l 1,12,13
 118 -25 118 -25 114 -5 c 1,14,-1
 114 -1 l 1,15,-1
 114 -1 l 1,16,-1
 50 30 l 1,17,18
 45 38 45 38 47 43 c 0,19,20
 69 60 69 60 74 79 c 1,21,-1
 74 570 l 2,22,23
 74 595 74 595 53 637 c 1,24,-1
 62 648 l 1,25,26
 91 623 91 623 102 592 c 1,27,28
 124 650 124 650 150 667 c 0,29,30
 173 681 173 681 239 685 c 1,31,-1
 239 667 l 2,0,1
EndSplineSet
Validated: 5
EndChar

StartChar: m
Encoding: 109 109 80
Width: 664
Flags: W
LayerCount: 2
Fore
SplineSet
111 482 m 1,0,1
 120 473 120 473 122 464 c 1,2,3
 119 459 119 459 124 440 c 1,4,5
 140 424 140 424 148 411 c 1,6,-1
 148 351 l 1,7,-1
 275 478 l 1,8,9
 275 478 275 478 284 477 c 0,10,11
 289 477 289 477 294 462 c 0,12,13
 297 453 297 453 315.5 442.5 c 128,-1,14
 334 432 334 432 343 417 c 0,15,16
 358 394 358 394 360 350 c 1,17,-1
 492 476 l 1,18,19
 506 476 506 476 510 472 c 0,20,21
 546 427 546 427 595 416 c 1,22,23
 595 402 595 402 595 401 c 2,24,-1
 593 398 l 2,25,26
 588 394 588 394 575 378 c 1,27,28
 567 278 567 278 572 89 c 0,29,30
 572 60 572 60 587 60 c 0,31,32
 601 60 601 60 618 80 c 1,33,-1
 630 69 l 1,34,-1
 552 -26 l 2,35,36
 549 -25 549 -25 544 -21 c 1,37,38
 542 -11 542 -11 536 -1 c 1,39,40
 502 14 502 14 502 47 c 2,41,-1
 502 360 l 1,42,43
 476 399 476 399 449 399 c 2,44,-1
 448 399 l 1,45,-1
 362 320 l 1,46,-1
 362 85 l 2,47,48
 362 62 362 62 389 44 c 1,49,-1
 389 25 l 1,50,51
 337 6 337 6 337 -22 c 1,52,-1
 319 -22 l 1,53,54
 314 13 314 13 263 28 c 1,55,-1
 263 45 l 1,56,57
 292 63 292 63 292 92 c 2,58,-1
 291 339 l 2,59,60
 290 362 290 362 270 378.5 c 128,-1,61
 250 395 250 395 230 395 c 1,62,63
 183 356 183 356 149 317 c 1,64,65
 149 184 149 184 150 92 c 0,66,67
 150 62 150 62 180 48 c 1,68,69
 181 29 181 29 180 28 c 0,70,71
 133 4 133 4 126 -22 c 1,72,73
 112 -29 112 -29 104 -21 c 1,74,75
 93 10 93 10 50 27 c 1,76,-1
 50 43 l 1,77,-1
 50 44 l 1,78,79
 77 53 77 53 82 86 c 1,80,-1
 82 354 l 1,81,82
 78 374 78 374 61 391 c 1,83,-1
 35 368 l 1,84,-1
 21 383 l 1,85,-1
 111 482 l 1,0,1
EndSplineSet
Validated: 33
EndChar

StartChar: n
Encoding: 110 110 81
Width: 444
Flags: W
LayerCount: 2
Fore
SplineSet
105 478 m 1,0,-1
 119 467 l 1,1,-1
 114 455 l 1,2,3
 136 430 136 430 141 408 c 0,4,5
 145 393 145 393 145 353 c 1,6,-1
 275 476 l 1,7,8
 282 477 282 477 296 473 c 1,9,10
 321 445 321 445 334 436 c 0,11,12
 352 423 352 423 382 416 c 1,13,14
 382 402 382 402 380 399 c 0,15,16
 375 393 375 393 369 387 c 0,17,18
 356 371 356 371 356 351 c 0,19,20
 356 327 356 327 357 283 c 0,21,22
 357 238 357 238 357 90 c 0,23,24
 357 80 357 80 364.5 68 c 128,-1,25
 372 56 372 56 381 56 c 0,26,27
 386 56 386 56 391 61 c 2,28,-1
 406 81 l 1,29,-1
 419 69 l 1,30,-1
 340 -26 l 1,31,32
 333 -24 333 -24 329 -18 c 0,33,34
 325 11 325 11 291 28 c 1,35,-1
 291 358 l 1,36,37
 264 399 264 399 243 399 c 0,38,39
 227 399 227 399 203 375 c 0,40,41
 175 349 175 349 147 322 c 1,42,-1
 147 78 l 1,43,44
 155 52 155 52 177 39 c 0,45,46
 181 35 181 35 176 26 c 1,47,48
 153 17 153 17 143 7 c 0,49,50
 132 -7 132 -7 121 -22 c 1,51,52
 121 -22 121 -22 105 -22 c 1,53,54
 87 14 87 14 48 25 c 0,55,56
 47 26 47 26 47 42 c 1,57,58
 82 72 82 72 82 82 c 0,59,60
 82 124 82 124 82 208 c 0,61,62
 81 293 81 293 81 336 c 0,63,64
 81 374 81 374 56 391 c 1,65,66
 48 384 48 384 33 367 c 1,67,68
 21 375 21 375 19 382 c 1,69,-1
 105 478 l 1,0,-1
EndSplineSet
Validated: 1
EndChar

StartChar: o
Encoding: 111 111 82
Width: 404
Flags: W
LayerCount: 2
Fore
SplineSet
269 479 m 1,0,1
 279 473 279 473 281 464 c 1,2,-1
 268 455 l 1,3,4
 353 335 353 335 365 274 c 0,5,6
 368 259 368 259 368 243 c 0,7,8
 368 118 368 118 201 -21 c 0,9,10
 199 -23 199 -23 184 -23 c 1,11,12
 149 12 149 12 41 38 c 1,13,-1
 41 40 l 2,14,15
 41 50 41 50 43 56 c 0,16,17
 59 75 59 75 62 99 c 0,18,19
 66 132 66 132 63 241 c 0,20,21
 61 346 61 346 57 391 c 1,22,-1
 269 479 l 1,0,1
192 420 m 1,23,-1
 130 397 l 1,24,-1
 130 87 l 1,25,-1
 223 44 l 2,26,27
 233 39 233 39 246 46 c 0,28,29
 305 88 305 88 305 185 c 0,30,31
 305 231 305 231 294 248 c 2,32,-1
 192 420 l 1,23,-1
EndSplineSet
Validated: 33
EndChar

StartChar: p
Encoding: 112 112 83
Width: 404
Flags: W
LayerCount: 2
Fore
SplineSet
91 499 m 1,0,1
 101 495 101 495 105 486 c 1,2,3
 105 474 105 474 99 464 c 1,4,5
 139 424 139 424 143 376 c 1,6,-1
 296 481 l 1,7,-1
 304 467 l 1,8,-1
 295 455 l 1,9,10
 316 422 316 422 336 388 c 0,11,12
 373 325 373 325 381 291 c 0,13,14
 384 278 384 278 384 263 c 0,15,16
 384 159 384 159 219 -22 c 0,17,18
 215 -27 215 -27 208 -24 c 256,19,20
 201 -21 201 -21 199 -15 c 1,21,-1
 138 12 l 1,22,-1
 121 -187 l 1,23,-1
 102 -188 l 1,24,-1
 82 18 l 2,25,26
 78 31 78 31 66 31 c 0,27,28
 45 31 45 31 33 11 c 1,29,-1
 21 22 l 1,30,-1
 77 103 l 1,31,-1
 77 339 l 1,32,33
 68 383 68 383 32 404 c 1,34,35
 46 419 46 419 91 498 c 1,36,-1
 91 499 l 1,0,1
223 406 m 1,37,-1
 144 344 l 1,38,-1
 144 87 l 1,39,-1
 226 47 l 1,40,-1
 245 47 l 1,41,42
 287 105 287 105 296 119 c 0,43,44
 325 167 325 167 325 203 c 0,45,46
 325 216 325 216 321 228 c 0,47,48
 291 319 291 319 230 405 c 1,49,-1
 223 406 l 1,37,-1
EndSplineSet
Validated: 1
EndChar

StartChar: q
Encoding: 113 113 84
Width: 423
Flags: W
LayerCount: 2
Fore
SplineSet
205 476 m 1,0,-1
 221 476 l 1,1,2
 277 428 277 428 365 399 c 0,3,4
 366 396 366 396 366 392 c 0,5,6
 366 371 366 371 350 364 c 1,7,-1
 314 -191 l 1,8,-1
 293 -191 l 1,9,10
 281 -25 281 -25 276 95 c 1,11,-1
 120 -26 l 1,12,13
 109 -23 109 -23 109 -15 c 0,14,15
 109 -4 109 -4 112 2 c 1,16,17
 29 105 29 105 29 195 c 0,18,19
 29 265 29 265 79 338 c 0,20,21
 118 395 118 395 205 476 c 1,0,-1
170 414 m 1,22,23
 92 321 92 321 92 241 c 0,24,25
 92 159 92 159 175 56 c 1,26,-1
 192 55 l 1,27,28
 229 76 229 76 276 123 c 1,29,-1
 276 355 l 1,30,-1
 170 414 l 1,22,23
EndSplineSet
Validated: 1
EndChar

StartChar: r
Encoding: 114 114 85
Width: 295
Flags: W
LayerCount: 2
Fore
SplineSet
105 478 m 1,0,1
 110 476 110 476 118 468 c 1,2,3
 118 450 118 450 119 444 c 0,4,5
 137 419 137 419 141 405 c 128,-1,6
 145 391 145 391 145 359 c 1,7,-1
 221 476 l 1,8,-1
 237 476 l 1,9,10
 242 461 242 461 258 439.5 c 128,-1,11
 274 418 274 418 278 407 c 1,12,13
 278 380 278 380 271 363 c 0,14,15
 266 352 266 352 247 326 c 1,16,-1
 228 327 l 1,17,-1
 189 391 l 1,18,19
 164 352 164 352 150 321 c 1,20,21
 146 237 146 237 146 96 c 0,22,23
 146 60 146 60 197 47 c 1,24,-1
 256 94 l 1,25,-1
 268 78 l 1,26,-1
 153 -26 l 1,27,28
 140 -23 140 -23 134 -15 c 1,29,30
 139 -17 139 -17 139 -7 c 1,31,-1
 46 45 l 1,32,-1
 46 46 l 1,33,-1
 46 47 l 2,34,35
 46 49 46 49 50 61 c 1,36,37
 70 71 70 71 74 78 c 128,-1,38
 78 85 78 85 81 110 c 2,39,-1
 81 341 l 2,40,41
 81 374 81 374 56 391 c 1,42,43
 42 372 42 372 29 372 c 0,44,45
 22 372 22 372 17 382 c 1,46,-1
 105 478 l 1,0,1
EndSplineSet
Validated: 1
EndChar

StartChar: s
Encoding: 115 115 86
Width: 206
Flags: W
LayerCount: 2
Fore
SplineSet
221 687 m 0,0,1
 249 685 249 685 275 675 c 1,2,3
 281 684 281 684 288 684 c 0,4,5
 296 684 296 684 302 675 c 1,6,-1
 264 596 l 1,7,8
 225 623 225 623 179 623 c 0,9,10
 127 623 127 623 127 566 c 0,11,12
 127 532 127 532 157 441 c 1,13,14
 159 378 159 378 159 316 c 0,15,16
 159 53 159 53 128 -187 c 1,17,-1
 110 -187 l 1,18,19
 80 80 80 80 80 298 c 0,20,21
 80 342 80 342 81 384 c 1,22,-1
 32 387 l 1,23,24
 31 402 31 402 34 405 c 0,25,26
 68 418 68 418 74 448 c 2,27,-1
 103 585 l 1,28,29
 137 693 137 693 221 687 c 0,0,1
EndSplineSet
Validated: 33
EndChar

StartChar: t
Encoding: 116 116 87
Width: 259
Flags: W
LayerCount: 2
Fore
SplineSet
240 386 m 1,0,-1
 148 386 l 1,1,-1
 148 78 l 1,2,3
 159 55 159 55 182 55 c 256,4,5
 205 55 205 55 221 77 c 1,6,-1
 236 65 l 1,7,-1
 138 -26 l 1,8,-1
 126 -20 l 1,9,-1
 127 -11 l 1,10,11
 112 15 112 15 55 28 c 1,12,-1
 56 41 l 1,13,14
 69 49 69 49 81 66 c 1,15,-1
 81 386 l 1,16,-1
 32 386 l 1,17,-1
 32 404 l 1,18,19
 69 431 69 431 103 485 c 0,20,21
 134 535 134 535 148 584 c 1,22,-1
 148 585 l 1,23,-1
 171 585 l 1,24,25
 147 503 147 503 147 457 c 0,26,27
 147 449 147 449 148 442 c 1,28,-1
 240 442 l 1,29,-1
 240 386 l 1,0,-1
EndSplineSet
Validated: 1
EndChar

StartChar: u
Encoding: 117 117 88
Width: 444
Flags: W
LayerCount: 2
Fore
SplineSet
94 478 m 1,0,1
 99 476 99 476 107 468 c 1,2,3
 111 452 111 452 121 445 c 0,4,5
 135 435 135 435 143 420 c 1,6,-1
 143 87 l 1,7,8
 158 54 158 54 192 54 c 0,9,10
 208 54 208 54 227 69 c 0,11,12
 241 82 241 82 257 96.5 c 128,-1,13
 273 111 273 111 289 127 c 1,14,-1
 289 374 l 1,15,16
 285 387 285 387 259 404 c 0,17,18
 257 408 257 408 257 419 c 2,19,-1
 257 420 l 1,20,21
 272 429 272 429 286 446 c 0,22,23
 308 472 308 472 311 475 c 0,24,25
 316 477 316 477 322 475 c 0,26,27
 330 472 330 472 335 472 c 1,28,29
 359 433 359 433 390 418 c 1,30,31
 394 411 394 411 389 404 c 1,32,33
 369 394 369 394 364.5 387.5 c 128,-1,34
 360 381 360 381 357 359 c 2,35,-1
 357 75 l 2,36,37
 357 56 357 56 370 56 c 0,38,39
 391 56 391 56 406 82 c 1,40,-1
 417 69 l 1,41,-1
 328 -26 l 2,42,43
 324 -25 324 -25 317 -21 c 1,44,45
 307 6 307 6 291 11 c 1,46,-1
 291 96 l 1,47,48
 221 45 221 45 143 -26 c 1,49,50
 143 -26 143 -26 133 -24 c 1,51,52
 124 12 124 12 53 26 c 1,53,-1
 53 28 l 1,54,-1
 53 30 l 2,55,56
 53 37 53 37 55 41 c 0,57,58
 71 54 71 54 75 61.5 c 128,-1,59
 79 69 79 69 79 89 c 0,60,61
 79 236 79 236 80 278 c 0,62,63
 80 319 80 319 80 343 c 0,64,65
 80 388 80 388 57 388 c 0,66,67
 48 388 48 388 37 377 c 1,68,69
 24 381 24 381 19 390 c 1,70,-1
 94 478 l 1,0,1
EndSplineSet
Validated: 1
EndChar

StartChar: v
Encoding: 118 118 89
Width: 423
Flags: W
LayerCount: 2
Fore
SplineSet
84 499 m 1,0,-1
 101 493 l 1,1,2
 92 476 92 476 92 456 c 0,3,4
 92 408 92 408 136 360 c 1,5,-1
 275 476 l 1,6,-1
 293 476 l 1,7,8
 298 444 298 444 308 425 c 1,9,10
 379 337 379 337 379 250 c 0,11,12
 379 220 379 220 371 188 c 0,13,14
 355 126 355 126 301 69 c 0,15,16
 274 41 274 41 196 -22 c 0,17,18
 191 -24 191 -24 178 -22 c 0,19,20
 166 -20 166 -20 161 -17 c 0,21,22
 117 15 117 15 55 30 c 0,23,24
 55 31 55 31 54 35.5 c 128,-1,25
 53 40 53 40 53 44 c 1,26,-1
 53 44 l 1,27,28
 65 58 65 58 73 74 c 1,29,30
 73 97 73 97 75.5 144.5 c 128,-1,31
 78 192 78 192 78 215 c 0,32,33
 78 264 78 264 70 300 c 0,34,35
 67 314 67 314 45 350 c 128,-1,36
 23 386 23 386 23 395 c 0,37,38
 45 451 45 451 84 498 c 1,39,-1
 84 499 l 1,0,-1
221 399 m 1,40,41
 167 368 167 368 138 323 c 1,42,-1
 138 79 l 1,43,-1
 223 36 l 1,44,-1
 236 36 l 1,45,46
 274 63 274 63 296 107 c 128,-1,47
 318 151 318 151 317 197 c 0,48,49
 314 286 314 286 221 398 c 1,50,-1
 221 399 l 1,40,41
EndSplineSet
Validated: 37
EndChar

StartChar: w
Encoding: 119 119 90
Width: 627
Flags: W
LayerCount: 2
Fore
SplineSet
91 499 m 1,0,-1
 108 493 l 1,1,2
 100 476 100 476 100 462 c 0,3,4
 100 445 100 445 112 425 c 0,5,6
 145 384 145 384 145 357 c 1,7,-1
 257 474 l 1,8,-1
 275 474 l 1,9,10
 277 456 277 456 289 444 c 0,11,12
 336 406 336 406 340 355 c 1,13,-1
 473 474 l 1,14,-1
 494 474 l 1,15,-1
 494 442 l 1,16,-1
 557 339 l 2,17,18
 584 296 584 296 584 249 c 0,19,20
 584 177 584 177 519 97 c 0,21,22
 481 50 481 50 399 -22 c 0,23,24
 387 -28 387 -28 365 -17 c 0,25,26
 322 12 322 12 257 28 c 1,27,28
 253 36 253 36 257 41 c 0,29,30
 271 57 271 57 277 74 c 1,31,-1
 277 324 l 1,32,33
 270 368 270 368 241 391 c 0,34,35
 235 394 235 394 229 394 c 0,36,37
 213 394 213 394 179 360 c 0,38,39
 169 350 169 350 159 341 c 0,40,41
 148 329 148 329 147 321 c 2,42,-1
 147 83 l 2,43,44
 148 73 148 73 160 61 c 128,-1,45
 172 49 172 49 179 51 c 1,46,47
 181 47 181 47 181 32 c 2,48,-1
 181 31 l 1,49,50
 133 13 133 13 123 -22 c 1,51,-1
 103 -22 l 1,52,-1
 103 -20 l 2,53,54
 103 -4 103 -4 83.5 11 c 128,-1,55
 64 26 64 26 46 30 c 1,56,-1
 46 46 l 1,57,58
 57 53 57 53 67 60.5 c 128,-1,59
 77 68 77 68 79 82 c 2,60,-1
 79 294 l 2,61,62
 79 354 79 354 38 395 c 1,63,64
 56 450 56 450 91 498 c 1,65,-1
 91 499 l 1,0,-1
421 397 m 1,66,67
 381 365 381 365 345 320 c 1,68,-1
 345 75 l 1,69,-1
 426 36 l 2,70,71
 426 35 426 35 427 35 c 0,72,73
 434 35 434 35 443 38 c 1,74,75
 521 116 521 116 521 185 c 0,76,77
 521 241 521 241 469 328 c 0,78,79
 447 363 447 363 421 396 c 1,80,-1
 421 397 l 1,66,67
EndSplineSet
Validated: 33
EndChar

StartChar: x
Encoding: 120 120 91
Width: 404
Flags: W
LayerCount: 2
Fore
SplineSet
124 482 m 1,0,1
 142 471 142 471 136 456 c 0,2,3
 134 452 134 452 131 450 c 1,4,5
 183 389 183 389 213 293 c 1,6,-1
 304 476 l 1,7,-1
 323 476 l 1,8,9
 326 458 326 458 348 431 c 0,10,11
 366 409 366 409 364 386 c 0,12,13
 362 367 362 367 310 326 c 1,14,-1
 279 381 l 1,15,-1
 224 268 l 1,16,-1
 304 85 l 1,17,18
 309 62 309 62 324 62 c 0,19,20
 337 62 337 62 355 80 c 1,21,-1
 368 69 l 1,22,-1
 289 -24 l 1,23,-1
 277 -14 l 1,24,-1
 190 182 l 1,25,26
 124 16 124 16 99 -15 c 0,27,28
 89 -26 89 -26 78 -21 c 0,29,30
 77 -20 77 -20 76 -20 c 2,31,-1
 32 60 l 1,32,-1
 68 128 l 1,33,-1
 84 128 l 1,34,-1
 118 73 l 1,35,-1
 179 211 l 1,36,37
 121 343 121 343 113 357 c 0,38,39
 111 361 111 361 81 394 c 1,40,-1
 46 372 l 1,41,-1
 36 383 l 1,42,-1
 124 482 l 1,0,1
EndSplineSet
Validated: 33
EndChar

StartChar: y
Encoding: 121 121 92
Width: 444
Flags: W
LayerCount: 2
Fore
SplineSet
92 499 m 1,0,-1
 108 491 l 1,1,2
 103 479 103 479 103 459 c 1,3,4
 113 441 113 441 135 369 c 0,5,6
 138 366 138 366 144 363 c 1,7,-1
 262 476 l 1,8,-1
 281 476 l 1,9,-1
 281 456 l 1,10,11
 382 302 382 302 382 190 c 0,12,13
 382 106 382 106 325 11 c 0,14,15
 288 -50 288 -50 173 -193 c 1,16,-1
 157 -184 l 1,17,18
 318 33 318 33 318 182 c 0,19,20
 318 305 318 305 214 395 c 1,21,22
 172 366 172 366 144 331 c 1,23,24
 136 196 136 196 144 74 c 0,25,26
 148 56 148 56 162 56 c 0,27,28
 166 56 166 56 171 58 c 0,29,30
 180 64 180 64 207 84 c 1,31,-1
 217 67 l 1,32,33
 198 53 198 53 128 -17 c 1,34,35
 109 -26 109 -26 97 -18 c 1,36,37
 76 7 76 7 75 7 c 0,38,39
 68 14 68 14 46 25 c 1,40,41
 44 32 44 32 44 46 c 1,42,43
 75 52 75 52 75 95 c 2,44,-1
 75 330 l 2,45,46
 73 355 73 355 58 370 c 0,47,48
 45 382 45 382 32 395 c 1,49,50
 49 455 49 455 92 498 c 1,51,-1
 92 499 l 1,0,-1
EndSplineSet
Validated: 33
EndChar

StartChar: z
Encoding: 122 122 93
Width: 295
Flags: W
LayerCount: 2
Fore
SplineSet
129 495 m 1,0,1
 141 490 141 490 143 483 c 0,2,3
 144 481 144 481 144 466 c 1,4,5
 219 443 219 443 219 377 c 0,6,7
 219 337 219 337 192 290 c 0,8,9
 166 248 166 248 130 220 c 1,10,-1
 180 170 l 1,11,12
 202 178 202 178 236 191 c 1,13,-1
 241 172 l 1,14,15
 224 165 224 165 196 151 c 1,16,17
 241 70 241 70 241 -13 c 0,18,19
 241 -37 241 -37 237 -58 c 0,20,21
 226 -112 226 -112 197 -148 c 0,22,23
 162 -191 162 -191 112 -191 c 0,24,25
 63 -191 63 -191 37 -139 c 0,26,27
 17 -99 17 -99 17 -42 c 0,28,29
 17 9 17 9 43 50 c 0,30,31
 63 81 63 81 108 122 c 1,32,-1
 50 174 l 1,33,-1
 48 187 l 1,34,35
 144 235 144 235 153 313 c 0,36,37
 155 338 155 338 140 362.5 c 128,-1,38
 125 387 125 387 100 391 c 0,39,40
 73 394 73 394 42 363 c 1,41,-1
 30 372 l 1,42,-1
 129 495 l 1,0,1
124 102 m 1,43,44
 41 51 41 51 41 -41 c 0,45,46
 41 -94 41 -94 58 -129 c 0,47,48
 81 -177 81 -177 130 -171 c 0,49,50
 187 -162 187 -162 187 -58 c 0,51,52
 187 28 187 28 124 102 c 1,43,44
EndSplineSet
Validated: 33
EndChar

StartChar: braceleft
Encoding: 123 123 94
Width: 331
Flags: W
LayerCount: 2
Fore
SplineSet
290 666 m 1,0,1
 244 664 244 664 208 643 c 1,2,3
 192 629 192 629 188 612 c 1,4,-1
 188 372 l 1,5,6
 179 331 179 331 149 298 c 0,7,8
 139 287 139 287 128 279 c 1,9,10
 153 261 153 261 174 234 c 0,11,12
 189 210 189 210 189 180 c 2,13,-1
 189 -42 l 1,14,15
 193 -63 193 -63 206 -76 c 0,16,17
 215 -88 215 -88 232 -97 c 0,18,19
 240 -99 240 -99 248 -99 c 0,20,21
 252 -100 252 -100 256 -100 c 2,22,-1
 270 -100 l 2,23,24
 272 -100 272 -100 275 -99 c 0,25,26
 277 -99 277 -99 281 -99 c 0,27,28
 284 -98 284 -98 286 -98 c 1,29,-1
 286 -113 l 1,30,-1
 263 -117 l 2,31,32
 259 -117 259 -117 251 -118 c 0,33,34
 244 -118 244 -118 240 -118 c 0,35,36
 204 -118 204 -118 160.5 -102 c 128,-1,37
 117 -86 117 -86 108 -43 c 1,38,-1
 107 174 l 2,39,40
 107 193 107 193 98 224 c 0,41,42
 93 243 93 243 81 254 c 0,43,44
 61 273 61 273 29 282 c 1,45,46
 74 286 74 286 91 321 c 0,47,48
 100 340 100 340 100 367 c 2,49,-1
 100 611 l 1,50,51
 110 652 110 652 160 669 c 1,52,53
 212 678 212 678 275 678 c 2,54,-1
 290 678 l 1,55,-1
 290 666 l 1,0,1
EndSplineSet
Validated: 1
EndChar

StartChar: bar
Encoding: 124 124 95
Width: 608
Flags: W
LayerCount: 2
Fore
SplineSet
257 638 m 1,0,-1
 339 638 l 1,1,-1
 339 -11 l 1,2,-1
 257 -11 l 1,3,-1
 257 638 l 1,0,-1
EndSplineSet
Validated: 1
EndChar

StartChar: braceright
Encoding: 125 125 96
Width: 331
Flags: W
LayerCount: 2
Fore
SplineSet
26 679 m 1,0,1
 33 679 33 679 46 680 c 0,2,3
 58 680 58 680 65 680 c 0,4,5
 138 680 138 680 184 657 c 0,6,7
 202 645 202 645 210 608 c 0,8,9
 212 595 212 595 212 581 c 2,10,-1
 212 383 l 2,11,12
 215 355 215 355 228 314 c 0,13,14
 231 309 231 309 235 305 c 0,15,16
 260 290 260 290 289 282 c 1,17,18
 248 278 248 278 225 242 c 0,19,20
 214 219 214 219 210 189 c 1,21,22
 211 132 211 132 211 75 c 0,23,24
 211 54 211 54 210 12.5 c 128,-1,25
 209 -29 209 -29 209 -50 c 0,26,27
 207 -60 207 -60 199 -76 c 0,28,29
 188 -99 188 -99 149 -110 c 0,30,31
 136 -113 136 -113 123 -114 c 128,-1,32
 110 -115 110 -115 99 -115 c 2,33,-1
 75 -115 l 2,34,35
 53 -115 53 -115 31 -113 c 1,36,-1
 29 -98 l 1,37,38
 39 -100 39 -100 49 -100 c 0,39,40
 52 -100 52 -100 58 -100 c 0,41,42
 64 -99 64 -99 68.5 -98.5 c 128,-1,43
 73 -98 73 -98 84 -94 c 0,44,45
 111 -90 111 -90 124 -50 c 1,46,-1
 124 194 l 2,47,48
 126 210 126 210 135 225 c 0,49,50
 162 262 162 262 227 282 c 1,51,52
 173 290 173 290 138 338 c 0,53,54
 130 354 130 354 128 370 c 2,55,-1
 128 585 l 2,56,57
 128 635 128 635 86 656 c 0,58,59
 72 660 72 660 47 663 c 0,60,61
 40 663 40 663 34 663 c 2,62,-1
 26 663 l 1,63,-1
 26 679 l 1,0,1
EndSplineSet
Validated: 1
EndChar

StartChar: asciitilde
Encoding: 126 126 97
Width: 276
Flags: W
LayerCount: 2
Fore
SplineSet
84 665 m 1,0,-1
 211 613 l 2,1,2
 212 612 212 612 213 612 c 2,3,-1
 215 612 l 1,4,-1
 216 612 l 2,5,6
 226 612 226 612 236 617 c 0,7,8
 247 628 247 628 257 648 c 1,9,-1
 277 641 l 1,10,11
 254 602 254 602 216 562 c 1,12,13
 210 549 210 549 198 549 c 2,14,-1
 189 549 l 2,15,16
 187 549 187 549 185.5 549.5 c 128,-1,17
 184 550 184 550 177 553 c 0,18,19
 140 568 140 568 66 602 c 0,20,21
 65 603 65 603 63 603 c 2,22,-1
 56 603 l 2,23,24
 54 603 54 603 53 602 c 0,25,26
 52 602 52 602 50 602 c 0,27,28
 48 601 48 601 47 601 c 2,29,-1
 18 567 l 2,30,31
 18 566 18 566 18 566 c 1,32,-1
 16 566 l 1,33,-1
 15 566 l 1,34,-1
 14 566 l 2,35,36
 3 566 3 566 -1 572 c 1,37,38
 14 604 14 604 54 652 c 0,39,40
 61 660 61 660 69 663 c 0,41,42
 73 665 73 665 78 665 c 2,43,-1
 80 665 l 1,44,-1
 81 665 l 2,45,46
 82 664 82 664 83 664 c 2,47,-1
 84 664 l 1,48,-1
 84 665 l 1,0,-1
EndSplineSet
Validated: 1
EndChar

StartChar: exclamdown
Encoding: 161 161 98
Width: 259
Flags: W
LayerCount: 2
Fore
SplineSet
118 269 m 1,0,-1
 135 269 l 1,1,-1
 175 -137 l 2,2,3
 177 -141 177 -141 177 -152 c 0,4,5
 177 -193 177 -193 129 -193 c 0,6,7
 75 -193 75 -193 75 -145 c 1,8,9
 75 -147 75 -147 76 -137 c 2,10,-1
 118 269 l 1,0,-1
118 509 m 1,11,-1
 137 509 l 1,12,13
 139 486 139 486 155.5 468 c 128,-1,14
 172 450 172 450 194 450 c 1,15,-1
 194 448 l 1,16,-1
 195 446 l 1,17,-1
 195 440 l 2,18,19
 194 438 194 438 193 432 c 1,20,21
 146 410 146 410 137 373 c 1,22,-1
 118 374 l 1,23,24
 105 412 105 412 59 429 c 0,25,26
 57 434 57 434 57 445 c 2,27,28
 57 445 57 445 58 449 c 0,29,30
 87 462 87 462 97 471.5 c 128,-1,31
 107 481 107 481 118 508 c 1,32,-1
 118 509 l 1,11,-1
EndSplineSet
Validated: 1
EndChar

StartChar: cent
Encoding: 162 162 99
Width: 516
Flags: W
LayerCount: 2
Fore
SplineSet
264 547 m 1,0,-1
 281 547 l 1,1,-1
 281 474 l 1,2,3
 344 468 344 468 387 436 c 0,4,5
 437 400 437 400 437 341 c 0,6,7
 437 306 437 306 391 306 c 0,8,9
 390 306 390 306 387 307 c 0,10,11
 384 307 384 307 383 307 c 0,12,13
 363 317 363 317 358 345 c 0,14,15
 357 353 357 353 357 393 c 0,16,17
 357 420 357 420 333 438 c 128,-1,18
 309 456 309 456 281 454 c 1,19,-1
 281 5 l 1,20,-1
 283 4 l 1,21,-1
 286 4 l 2,22,23
 342 4 342 4 380 47 c 0,24,25
 416 86 416 86 420 144 c 1,26,-1
 439 145 l 1,27,28
 432 31 432 31 331 -6 c 0,29,30
 300 -17 300 -17 281 -15 c 1,31,-1
 281 -117 l 1,32,-1
 264 -117 l 1,33,-1
 264 -13 l 1,34,35
 190 -13 190 -13 138 30 c 128,-1,36
 86 73 86 73 67 146 c 0,37,38
 55 191 55 191 55 212 c 0,39,40
 55 265 55 265 66 310 c 0,41,42
 82 375 82 375 140 421 c 0,43,44
 195 464 195 464 264 473 c 1,45,-1
 264 547 l 1,0,-1
263 452 m 1,46,47
 212 442 212 442 185 398 c 0,48,49
 167 368 167 368 153.5 315 c 128,-1,50
 140 262 140 262 140 225 c 0,51,52
 140 151 140 151 165 88 c 0,53,54
 199 5 199 5 262 5 c 2,55,-1
 264 5 l 1,56,-1
 263 452 l 1,46,47
EndSplineSet
Validated: 33
EndChar

StartChar: sterling
Encoding: 163 163 100
Width: 600
Flags: W
LayerCount: 2
Fore
SplineSet
301 721 m 1,0,1
 332 724 332 724 342 724 c 0,2,3
 462 724 462 724 539 606 c 1,4,-1
 500 588 l 1,5,6
 436 683 436 683 338 683 c 0,7,8
 272 683 272 683 223 642 c 0,9,10
 171 599 171 599 171 534 c 0,11,12
 171 479 171 479 203 400 c 1,13,-1
 463 401 l 1,14,-1
 463 363 l 1,15,-1
 213 363 l 1,16,17
 217 349 217 349 226 313 c 1,18,-1
 463 314 l 1,19,-1
 463 277 l 1,20,-1
 231 277 l 1,21,22
 231 274 231 274 232 268 c 0,23,24
 232 262 232 262 232 259 c 0,25,26
 232 137 232 137 147 24 c 1,27,28
 207 58 207 58 265 58 c 0,29,30
 297 58 297 58 353.5 37.5 c 128,-1,31
 410 17 410 17 432 17 c 0,32,33
 460 17 460 17 484 33 c 128,-1,34
 508 49 508 49 530 66 c 1,35,-1
 554 36 l 1,36,37
 501 -17 501 -17 429 -17 c 0,38,39
 399 -17 399 -17 342.5 2.5 c 128,-1,40
 286 22 286 22 256 22 c 0,41,42
 210 22 210 22 123 -24 c 1,43,-1
 91 15 l 1,44,45
 190 117 190 117 190 265 c 2,46,-1
 190 277 l 1,47,-1
 48 277 l 1,48,-1
 48 314 l 1,49,-1
 184 314 l 1,50,51
 179 337 179 337 171 362 c 1,52,-1
 48 363 l 1,53,-1
 48 401 l 1,54,-1
 159 401 l 1,55,56
 128 478 128 478 128 524 c 0,57,58
 128 599 128 599 177 654 c 128,-1,59
 226 709 226 709 301 720 c 1,60,-1
 301 721 l 1,0,1
EndSplineSet
Validated: 1
EndChar

StartChar: currency
Encoding: 164 164 101
Width: 600
Flags: W
LayerCount: 2
Fore
SplineSet
56 586 m 1,0,-1
 154 491 l 1,1,2
 214 534 214 534 287 534 c 0,3,4
 362 534 362 534 421 490 c 1,5,-1
 518 586 l 1,6,-1
 548 558 l 1,7,-1
 449 462 l 1,8,9
 494 403 494 403 494 329 c 256,10,11
 494 255 494 255 449 198 c 1,12,-1
 548 102 l 1,13,-1
 518 73 l 1,14,-1
 421 170 l 1,15,16
 364 123 364 123 287 123 c 0,17,18
 215 123 215 123 154 169 c 1,19,-1
 56 73 l 1,20,-1
 27 102 l 1,21,-1
 125 199 l 1,22,23
 81 253 81 253 81 329 c 0,24,25
 81 404 81 404 125 461 c 1,26,-1
 27 558 l 1,27,-1
 56 586 l 1,0,-1
287 499 m 1,28,29
 216 497 216 497 168 448.5 c 128,-1,30
 120 400 120 400 120 329 c 0,31,32
 120 259 120 259 168.5 208.5 c 128,-1,33
 217 158 217 158 287 158 c 0,34,35
 355 158 355 158 405.5 209.5 c 128,-1,36
 456 261 456 261 456 329 c 0,37,38
 456 399 456 399 406.5 448.5 c 128,-1,39
 357 498 357 498 287 498 c 1,40,-1
 287 499 l 1,28,29
EndSplineSet
Validated: 1
EndChar

StartChar: section
Encoding: 167 167 104
Width: 516
Flags: W
LayerCount: 2
Fore
SplineSet
319 675 m 1,0,1
 376 665 376 665 376 621 c 0,2,3
 376 608 376 608 365.5 595.5 c 128,-1,4
 355 583 355 583 342 583 c 0,5,6
 321 583 321 583 296.5 604.5 c 128,-1,7
 272 626 272 626 258 626 c 0,8,9
 227 626 227 626 205 599.5 c 128,-1,10
 183 573 183 573 183 542 c 0,11,12
 183 481 183 481 219 435 c 1,13,14
 259 392 259 392 300 349 c 0,15,16
 357 281 357 281 373 253 c 0,17,18
 404 200 404 200 404 139 c 0,19,20
 404 83 404 83 386 34 c 0,21,22
 362 -29 362 -29 316 -74 c 0,23,24
 263 -126 263 -126 204 -126 c 0,25,26
 121 -126 121 -126 121 -72 c 0,27,28
 121 -55 121 -55 134 -44 c 128,-1,29
 147 -33 147 -33 164 -33 c 256,30,31
 181 -33 181 -33 202 -51 c 0,32,33
 218 -65 218 -65 234 -80 c 0,34,35
 244 -84 244 -84 255 -84 c 0,36,37
 279 -84 279 -84 301 -54.5 c 128,-1,38
 323 -25 323 -25 323 0 c 0,39,40
 323 47 323 47 301 72 c 2,41,-1
 149 243 l 2,42,43
 128 267 128 267 113.5 308 c 128,-1,44
 99 349 99 349 99 382 c 0,45,46
 99 424 99 424 118 481 c 0,47,48
 184 675 184 675 313 675 c 0,49,50
 314 675 314 675 316 674 c 0,51,52
 318 674 318 674 319 674 c 1,53,-1
 319 675 l 1,0,1
141 484 m 1,54,55
 128 442 128 442 128 418 c 0,56,57
 128 341 128 341 182 281 c 128,-1,58
 236 221 236 221 330 110 c 1,59,60
 330 110 330 110 364 40 c 1,61,62
 374 70 374 70 374 101 c 0,63,64
 374 166 374 166 322 237 c 1,65,66
 271 296 271 296 219 355 c 0,67,68
 158 426 158 426 144 483 c 1,69,-1
 141 484 l 1,54,55
EndSplineSet
Validated: 1
EndChar

StartChar: dieresis
Encoding: 168 168 105
Width: 276
Flags: W
LayerCount: 2
Fore
SplineSet
243 691 m 1,0,1
 256 686 256 686 262 678 c 2,2,-1
 266 670 l 2,3,4
 266 669 266 669 267 666 c 0,5,6
 267 663 267 663 267 662 c 2,7,-1
 267 658 l 2,8,9
 267 656 267 656 266 654 c 0,10,11
 265 642 265 642 250 623 c 0,12,13
 216 576 216 576 183 548 c 1,14,-1
 163 547 l 1,15,-1
 199 673 l 1,16,17
 212 691 212 691 224 691 c 2,18,-1
 237 691 l 2,19,20
 240 691 240 691 243 690 c 1,21,-1
 243 691 l 1,0,1
99 694 m 1,22,23
 101 693 101 693 102.5 693.5 c 128,-1,24
 104 694 104 694 106 694 c 2,25,-1
 118 694 l 2,26,27
 119 694 119 694 121 694 c 0,28,29
 122 693 122 693 123 693 c 0,30,31
 135 686 135 686 139 674 c 0,32,33
 141 672 141 672 141 668 c 2,34,-1
 141 659 l 2,35,36
 141 657 141 657 140 656 c 0,37,38
 140 655 140 655 140 653 c 0,39,40
 139 651 139 651 139 650 c 0,41,42
 138 646 138 646 135 640 c 2,43,-1
 74 550 l 1,44,-1
 53 550 l 1,45,-1
 66 654 l 2,46,47
 66 657 66 657 73 670 c 0,48,49
 75 675 75 675 79 679 c 0,50,51
 86 689 86 689 99 693 c 1,52,-1
 99 694 l 1,22,23
EndSplineSet
Validated: 1
EndChar

StartChar: ordfeminine
Encoding: 170 170 107
Width: 344
Flags: W
LayerCount: 2
Fore
SplineSet
282 194 m 1,0,1
 290 199 290 199 298 213 c 1,2,-1
 325 193 l 1,3,-1
 257 115 l 1,4,5
 244 118 244 118 240.5 124.5 c 128,-1,6
 237 131 237 131 234 138 c 0,7,8
 224 146 224 146 210 157 c 1,9,10
 203 173 203 173 200 189 c 1,11,-1
 111 118 l 1,12,-1
 80 127 l 1,13,-1
 89 139 l 1,14,-1
 51 191 l 2,15,16
 42 205 42 205 34 238 c 0,17,18
 28 268 28 268 28 287 c 0,19,20
 28 350 28 350 68 400 c 0,21,22
 73 406 73 406 154 484 c 1,23,-1
 162 484 l 2,24,25
 179 484 179 484 186 480 c 0,26,27
 216 461 216 461 282 427 c 1,28,29
 286 420 286 420 286 414 c 0,30,31
 286 411 286 411 281 401 c 1,32,33
 273 398 273 398 268 394 c 0,34,35
 265 387 265 387 265 384 c 2,36,-1
 265 218 l 2,37,38
 265 195 265 195 282 194 c 1,0,1
29 -6 m 1,39,-1
 29 37 l 1,40,-1
 316 37 l 1,41,-1
 316 -6 l 1,42,-1
 29 -6 l 1,39,-1
147 193 m 1,43,-1
 200 232 l 1,44,-1
 200 388 l 1,45,-1
 140 422 l 1,46,47
 92 381 92 381 92 316 c 0,48,49
 92 252 92 252 138 199 c 0,50,51
 140 196 140 196 147 193 c 1,43,-1
EndSplineSet
Validated: 1
EndChar

StartChar: guillemotleft
Encoding: 171 171 108
Width: 312
Flags: W
LayerCount: 2
Fore
SplineSet
273 418 m 1,0,-1
 273 373 l 1,1,-1
 169 239 l 1,2,-1
 271 73 l 1,3,-1
 271 33 l 1,4,-1
 137 228 l 1,5,-1
 137 247 l 1,6,-1
 273 418 l 1,0,-1
161 421 m 1,7,-1
 161 377 l 1,8,-1
 59 242 l 1,9,-1
 159 83 l 1,10,-1
 158 37 l 1,11,-1
 28 229 l 2,12,13
 26 231 26 231 26 235 c 2,14,-1
 26 247 l 2,15,16
 26 248 26 248 26 250 c 0,17,18
 27 251 27 251 27 252 c 2,19,-1
 161 421 l 1,7,-1
EndSplineSet
Validated: 1
EndChar

StartChar: degree
Encoding: 176 176 111
Width: 444
Flags: W
LayerCount: 2
Fore
SplineSet
275 704 m 1,0,1
 312 687 312 687 327 660 c 0,2,3
 332 650 332 650 335.5 639 c 128,-1,4
 339 628 339 628 339 617 c 2,5,-1
 339 614 l 2,6,7
 339 612 339 612 338 611 c 0,8,9
 338 610 338 610 338 608 c 0,10,11
 337 605 337 605 337 604 c 0,12,13
 330 560 330 560 284 535 c 0,14,15
 270 529 270 529 254 529 c 2,16,-1
 248 529 l 2,17,18
 230 529 230 529 208 539 c 0,19,20
 173 559 173 559 163 607 c 0,21,22
 163 608 163 608 163 610 c 0,23,24
 162 612 162 612 162 613 c 2,25,-1
 162 618 l 2,26,27
 162 679 162 679 220 701 c 0,28,29
 236 705 236 705 254 705 c 0,30,31
 265 705 265 705 275 703 c 1,32,-1
 275 704 l 1,0,1
250 671 m 1,33,34
 212 666 212 666 197 633 c 0,35,36
 195 628 195 628 194.5 624.5 c 128,-1,37
 194 621 194 621 194 619 c 2,38,-1
 194 614 l 2,39,40
 194 577 194 577 232 561 c 0,41,42
 233 561 233 561 236 561 c 0,43,44
 239 560 239 560 240.5 559.5 c 128,-1,45
 242 559 242 559 244 559 c 2,46,-1
 257 559 l 2,47,48
 261 559 261 559 265 561 c 0,49,50
 299 574 299 574 303 596 c 0,51,52
 304 597 304 597 304 599 c 2,53,-1
 304 602 l 2,54,55
 305 604 305 604 305 607 c 2,56,-1
 305 611 l 2,57,58
 305 618 305 618 300 636 c 0,59,60
 292 664 292 664 261 669 c 0,61,62
 259 669 259 669 255 669 c 0,63,64
 252 670 252 670 250 670 c 1,65,-1
 250 671 l 1,33,34
EndSplineSet
Validated: 1
EndChar

StartChar: plusminus
Encoding: 177 177 112
Width: 410
Flags: W
LayerCount: 2
Fore
SplineSet
191 670 m 1,0,-1
 233 670 l 1,1,-1
 233 459 l 1,2,-1
 412 459 l 1,3,-1
 412 420 l 1,4,-1
 231 420 l 1,5,-1
 231 206 l 1,6,-1
 191 206 l 1,7,-1
 191 420 l 1,8,-1
 7 420 l 1,9,-1
 7 459 l 1,10,-1
 191 459 l 1,11,-1
 191 670 l 1,0,-1
47 102 m 1,12,-1
 367 102 l 1,13,-1
 367 57 l 1,14,-1
 47 57 l 1,15,-1
 47 102 l 1,12,-1
EndSplineSet
Validated: 1
EndChar

StartChar: acute
Encoding: 180 180 115
Width: 276
Flags: W
LayerCount: 2
Fore
SplineSet
202 701 m 1,0,1
 205 701 205 701 210 699 c 0,2,3
 226 699 226 699 233 679 c 0,4,5
 235 676 235 676 235 673 c 2,6,-1
 235 662 l 2,7,8
 235 659 235 659 234.5 657.5 c 128,-1,9
 234 656 234 656 226 644 c 2,10,-1
 108 531 l 1,11,-1
 86 531 l 1,12,-1
 150 651 l 2,13,14
 161 671 161 671 184 692 c 0,15,16
 192 698 192 698 202 700 c 1,17,-1
 202 701 l 1,0,1
EndSplineSet
Validated: 1
EndChar

StartChar: paragraph
Encoding: 182 182 116
Width: 600
Flags: W
LayerCount: 2
Fore
SplineSet
281 666 m 1,0,-1
 531 666 l 1,1,-1
 531 642 l 1,2,-1
 471 642 l 1,3,-1
 471 -70 l 1,4,-1
 535 -70 l 1,5,-1
 535 -92 l 1,6,-1
 197 -92 l 1,7,-1
 197 -70 l 1,8,-1
 273 -70 l 1,9,-1
 273 317 l 1,10,11
 263 316 263 316 252 317 c 0,12,13
 245 317 245 317 231 318 c 0,14,15
 224 318 224 318 210 319 c 2,16,-1
 188 321 l 1,17,18
 95 338 95 338 67 429 c 0,19,20
 60 448 60 448 58 469 c 0,21,22
 57 474 57 474 57 478 c 2,23,-1
 57 486 l 2,24,25
 57 505 57 505 61 525 c 0,26,27
 67 595 67 595 121 638 c 1,28,29
 167 665 167 665 226 665 c 2,30,-1
 236 665 l 2,31,32
 238 665 238 665 241 664 c 0,33,34
 244 664 244 664 246 664 c 2,35,-1
 281 666 l 1,0,-1
318 642 m 1,36,-1
 318 -70 l 1,37,-1
 426 -70 l 1,38,-1
 426 642 l 1,39,-1
 318 642 l 1,36,-1
EndSplineSet
Validated: 1
EndChar

StartChar: ordmasculine
Encoding: 186 186 120
Width: 320
Flags: W
LayerCount: 2
Fore
SplineSet
147 127 m 1,0,-1
 139 129 l 1,1,2
 116 151 116 151 31 170 c 1,3,-1
 31 180 l 2,4,5
 31 187 31 187 34 195 c 0,6,7
 50 214 50 214 50 282 c 0,8,9
 50 345 50 345 42 428 c 1,10,-1
 209 493 l 1,11,12
 224 484 224 484 228 467 c 1,13,-1
 222 463 l 1,14,15
 290 371 290 371 290 322 c 0,16,17
 290 186 290 186 160 128 c 1,18,-1
 157 126 l 1,19,20
 147 126 147 126 146 126 c 2,21,-1
 144 127 l 1,22,23
 146 127 146 127 147 127 c 1,0,-1
34 4 m 1,24,-1
 34 45 l 1,25,-1
 286 46 l 1,26,-1
 286 4 l 1,27,-1
 34 4 l 1,24,-1
218 320 m 1,28,-1
 223 314 l 1,29,-1
 217 318 l 2,30,31
 217 322 217 322 148 430 c 1,32,-1
 116 419 l 1,33,-1
 116 218 l 1,34,35
 178 190 178 190 185 190 c 0,36,37
 206 190 206 190 216 230 c 0,38,39
 223 258 223 258 223 290 c 0,40,41
 223 303 223 303 218 320 c 1,28,-1
EndSplineSet
Validated: 5
EndChar

StartChar: guillemotright
Encoding: 187 187 121
Width: 312
Flags: W
LayerCount: 2
Fore
SplineSet
148 412 m 1,0,-1
 281 219 l 1,1,-1
 281 195 l 1,2,-1
 147 28 l 1,3,-1
 147 70 l 1,4,-1
 248 205 l 1,5,-1
 148 362 l 1,6,-1
 148 412 l 1,0,-1
38 417 m 1,7,-1
 170 221 l 1,8,-1
 170 200 l 1,9,-1
 37 36 l 1,10,-1
 37 75 l 1,11,-1
 137 210 l 1,12,-1
 38 367 l 1,13,-1
 38 417 l 1,7,-1
EndSplineSet
Validated: 1
EndChar

StartChar: onequarter
Encoding: 188 188 122
Width: 682
Flags: W
LayerCount: 2
Fore
SplineSet
293 87 m 1,0,-1
 253 97 l 1,1,-1
 455 579 l 1,2,-1
 499 572 l 1,3,-1
 293 87 l 1,0,-1
572 97 m 1,4,-1
 572 27 l 2,5,6
 572 16 572 16 640 16 c 1,7,-1
 640 -13 l 1,8,-1
 431 -13 l 1,9,-1
 431 15 l 1,10,11
 484 15 484 15 498 22 c 0,12,13
 502 24 502 24 502 32 c 0,14,15
 502 44 502 44 501 64 c 0,16,17
 501 88 501 88 501 97 c 1,18,-1
 325 97 l 1,19,-1
 325 135 l 1,20,21
 329 150 329 150 413 262 c 0,22,23
 465 331 465 331 518 399 c 1,24,-1
 572 399 l 1,25,-1
 572 149 l 1,26,-1
 653 149 l 1,27,-1
 653 97 l 1,28,-1
 572 97 l 1,4,-1
113 269 m 1,29,-1
 113 301 l 1,30,31
 126 297 126 297 129 297 c 0,32,33
 155 297 155 297 177 303 c 0,34,35
 182 307 182 307 182 309 c 2,36,-1
 182 611 l 2,37,38
 182 612 182 612 182 613 c 1,39,-1
 99 553 l 1,40,-1
 73 574 l 1,41,-1
 207 681 l 1,42,-1
 257 681 l 1,43,-1
 257 321 l 2,44,45
 257 306 257 306 266 300 c 1,46,47
 284 297 284 297 325 297 c 1,48,-1
 325 269 l 1,49,-1
 113 269 l 1,29,-1
376 148 m 1,50,-1
 502 148 l 1,51,-1
 502 314 l 1,52,-1
 376 148 l 1,50,-1
EndSplineSet
Validated: 1
EndChar

StartChar: onehalf
Encoding: 189 189 123
Width: 716
Flags: W
LayerCount: 2
Fore
SplineSet
287 126 m 1,0,-1
 246 134 l 1,1,-1
 466 590 l 1,2,-1
 510 583 l 1,3,-1
 287 126 l 1,0,-1
645 0 m 1,4,-1
 353 0 l 1,5,6
 370 33 370 33 433 82 c 0,7,8
 534 160 534 160 539 165 c 0,9,10
 592 213 592 213 592 250 c 0,11,12
 592 318 592 318 490 318 c 0,13,14
 420 318 420 318 394 244 c 1,15,-1
 362 244 l 1,16,17
 370 307 370 307 416 343 c 0,18,19
 460 376 460 376 526 376 c 0,20,21
 577 376 577 376 613 359 c 0,22,23
 668 332 668 332 668 271 c 0,24,25
 668 214 668 214 586 150 c 0,26,27
 520 103 520 103 455 57 c 1,28,-1
 604 57 l 2,29,30
 625 57 625 57 655 106 c 1,31,-1
 684 100 l 1,32,-1
 645 0 l 1,4,-1
109 303 m 1,33,-1
 109 333 l 1,34,35
 123 329 123 329 126 329 c 0,36,37
 152 329 152 329 175 335 c 1,38,-1
 180 340 l 1,39,-1
 179 615 l 1,40,-1
 95 560 l 1,41,-1
 68 579 l 1,42,-1
 205 677 l 1,43,-1
 256 677 l 1,44,-1
 256 350 l 2,45,46
 256 338 256 338 264 332 c 1,47,48
 283 329 283 329 324 329 c 1,49,-1
 324 303 l 1,50,-1
 109 303 l 1,33,-1
EndSplineSet
Validated: 1
EndChar

StartChar: threequarters
Encoding: 190 190 124
Width: 650
Flags: W
LayerCount: 2
Fore
SplineSet
273 105 m 1,0,-1
 232 114 l 1,1,-1
 451 577 l 1,2,-1
 494 570 l 1,3,-1
 273 105 l 1,0,-1
174 277 m 0,4,5
 123 277 123 277 79 296 c 0,6,7
 25 319 25 319 25 358 c 256,8,9
 25 397 25 397 65 397 c 0,10,11
 72 397 72 397 77 395 c 0,12,13
 108 390 108 390 108 354 c 0,14,15
 108 351 108 351 107 344.5 c 128,-1,16
 106 338 106 338 106 335 c 0,17,18
 106 305 106 305 174 305 c 0,19,20
 215 305 215 305 237.5 326 c 128,-1,21
 260 347 260 347 260 379 c 0,22,23
 260 420 260 420 230 444.5 c 128,-1,24
 200 469 200 469 148 469 c 0,25,26
 142 469 142 469 126 467 c 128,-1,27
 110 465 110 465 97 465 c 1,28,-1
 97 496 l 1,29,30
 148 505 148 505 186 522 c 0,31,32
 237 546 237 546 237 575 c 0,33,34
 237 598 237 598 213.5 614 c 128,-1,35
 190 630 190 630 157 630 c 0,36,37
 130 630 130 630 103 617 c 0,38,39
 73 602 73 602 60 580 c 1,40,-1
 33 596 l 1,41,42
 76 680 76 680 182 680 c 0,43,44
 183 680 183 680 187 679 c 0,45,46
 203 678 203 678 233.5 671 c 128,-1,47
 264 664 264 664 284 644 c 0,48,49
 308 621 308 621 308 594 c 0,50,51
 308 576 308 576 303 564 c 0,52,53
 292 534 292 534 225 504 c 1,54,55
 337 481 337 481 337 402 c 0,56,57
 337 346 337 346 288.5 311.5 c 128,-1,58
 240 277 240 277 174 277 c 0,4,5
548 95 m 1,59,-1
 548 29 l 2,60,61
 548 22 548 22 565 20 c 0,62,63
 573 19 573 19 615 19 c 1,64,-1
 615 -10 l 1,65,-1
 408 -10 l 1,66,-1
 408 18 l 1,67,68
 460 18 460 18 474 24 c 0,69,70
 478 26 478 26 478 33 c 0,71,72
 478 45 478 45 477 64 c 0,73,74
 477 87 477 87 477 95 c 1,75,-1
 304 95 l 1,76,-1
 304 132 l 2,77,78
 307 147 307 147 390 254 c 0,79,80
 442 319 442 319 494 385 c 1,81,-1
 547 385 l 1,82,-1
 547 146 l 1,83,-1
 628 146 l 1,84,-1
 628 95 l 1,85,-1
 548 95 l 1,59,-1
355 145 m 1,86,-1
 478 145 l 1,87,-1
 478 302 l 1,88,-1
 355 145 l 1,86,-1
EndSplineSet
Validated: 1
EndChar

StartChar: questiondown
Encoding: 191 191 125
Width: 312
Flags: W
LayerCount: 2
Fore
SplineSet
175 296 m 1,0,-1
 194 296 l 1,1,2
 203 260 203 260 203 207 c 0,3,4
 203 155 203 155 166 105 c 0,5,6
 133 64 133 64 99 23 c 0,7,8
 62 -25 62 -25 62 -72 c 0,9,10
 62 -113 62 -113 93 -139 c 128,-1,11
 124 -165 124 -165 166 -165 c 0,12,13
 195 -165 195 -165 212 -138 c 1,14,15
 223 -112 223 -112 235 -85.5 c 128,-1,16
 247 -59 247 -59 268 -59 c 0,17,18
 305 -59 305 -59 305 -93 c 0,19,20
 305 -125 305 -125 294 -139 c 0,21,22
 279 -158 279 -158 245 -175 c 128,-1,23
 211 -192 211 -192 187 -192 c 0,24,25
 114 -192 114 -192 69.5 -143 c 128,-1,26
 25 -94 25 -94 25 -20 c 0,27,28
 25 43 25 43 65 97 c 1,29,30
 101 138 101 138 138 180 c 0,31,32
 178 226 178 226 178 269 c 0,33,34
 178 273 178 273 175 296 c 1,0,-1
177 509 m 1,35,-1
 199 509 l 1,36,37
 199 485 199 485 217 470 c 0,38,39
 225 463 225 463 255 448 c 0,40,41
 256 445 256 445 256 439 c 2,42,-1
 256 437 l 2,43,44
 255 434 255 434 253 429 c 0,45,46
 235 422 235 422 220 413 c 1,47,48
 211 400 211 400 195 375 c 1,49,-1
 191 374 l 2,50,51
 186 374 186 374 177 375 c 1,52,53
 177 392 177 392 157.5 411.5 c 128,-1,54
 138 431 138 431 121 431 c 1,55,-1
 121 451 l 1,56,57
 141 454 141 454 160.5 471.5 c 128,-1,58
 180 489 180 489 177 509 c 1,35,-1
EndSplineSet
Validated: 33
EndChar

StartChar: Agrave
Encoding: 192 192 126
Width: 664
Flags: W
LayerCount: 2
Fore
SplineSet
320 924 m 0,0,1
 323 921 323 921 326 917 c 2,2,-1
 410 764 l 1,3,-1
 389 764 l 1,4,-1
 275 875 l 2,5,6
 264 886 264 886 264 902 c 0,7,8
 264 919 264 919 276 928 c 0,9,10
 284 933 284 933 298 932 c 0,11,12
 312 930 312 930 320 924 c 0,0,1
643 692 m 0,13,14
 612 684 612 684 590 645 c 128,-1,15
 568 606 568 606 568 568 c 2,16,-1
 568 115 l 1,17,18
 575 94 575 94 589 94 c 0,19,20
 593 94 593 94 631 117 c 1,21,22
 643 110 643 110 648 102 c 1,23,-1
 533 -24 l 1,24,-1
 517 -20 l 1,25,26
 520 -14 520 -14 520 -1 c 2,27,-1
 520 0 l 1,28,-1
 520 1 l 1,29,30
 484 64 484 64 484 122 c 1,31,-1
 216 -22 l 1,32,-1
 203 -11 l 1,33,-1
 217 9 l 1,34,-1
 99 105 l 1,35,36
 69 122 69 122 32 108 c 1,37,-1
 26 127 l 1,38,-1
 159 176 l 2,39,40
 235 204 235 204 291 273 c 0,41,42
 340 334 340 334 340 427 c 0,43,44
 340 446 340 446 337 464 c 0,45,46
 314 611 314 611 212 617 c 0,47,48
 153 620 153 620 111 591 c 0,49,50
 64 558 64 558 55 496 c 0,51,52
 53 481 53 481 53 467 c 0,53,54
 53 402 53 402 98 357 c 0,55,56
 139 315 139 315 208 302 c 1,57,-1
 205 284 l 1,58,59
 124 279 124 279 73 345 c 0,60,61
 26 404 26 404 26 487 c 0,62,63
 26 571 26 571 73 634 c 0,64,65
 125 703 125 703 208 703 c 2,66,-1
 212 703 l 2,67,68
 309 703 309 703 363 626 c 0,69,70
 412 558 412 558 412 459 c 0,71,72
 412 328 412 328 268 211 c 1,73,-1
 175 158 l 1,74,75
 229 100 229 100 299 59 c 1,76,-1
 330 63 l 1,77,78
 410 93 410 93 477 150 c 1,79,-1
 485 167 l 1,80,-1
 485 576 l 1,81,-1
 473 645 l 1,82,-1
 488 654 l 1,83,-1
 509 601 l 1,84,85
 550 708 550 708 643 706 c 1,86,87
 644 692 644 692 643 692 c 0,13,14
EndSplineSet
Validated: 33
EndChar

StartChar: Aacute
Encoding: 193 193 127
Width: 664
Flags: W
LayerCount: 2
Fore
SplineSet
394 930 m 0,0,1
 411 919 411 919 411 902 c 0,2,3
 411 895 411 895 402 877 c 1,4,-1
 284 764 l 1,5,-1
 262 764 l 1,6,7
 283 807 283 807 305 850 c 0,8,9
 335 907 335 907 360 925 c 0,10,11
 376 941 376 941 394 930 c 0,0,1
643 692 m 0,12,13
 612 684 612 684 590 645 c 128,-1,14
 568 606 568 606 568 568 c 2,15,-1
 568 115 l 1,16,17
 575 94 575 94 589 94 c 0,18,19
 593 94 593 94 631 117 c 1,20,21
 643 110 643 110 648 102 c 1,22,-1
 533 -24 l 1,23,-1
 517 -20 l 1,24,25
 520 -14 520 -14 520 -1 c 2,26,-1
 520 0 l 1,27,-1
 520 1 l 1,28,29
 484 64 484 64 484 122 c 1,30,-1
 216 -22 l 1,31,-1
 203 -11 l 1,32,-1
 217 9 l 1,33,-1
 99 105 l 1,34,35
 69 122 69 122 32 108 c 1,36,-1
 26 127 l 1,37,-1
 159 176 l 2,38,39
 235 204 235 204 291 273 c 0,40,41
 340 334 340 334 340 427 c 0,42,43
 340 446 340 446 337 464 c 0,44,45
 314 611 314 611 212 617 c 0,46,47
 153 620 153 620 111 591 c 0,48,49
 64 558 64 558 55 496 c 0,50,51
 53 481 53 481 53 467 c 0,52,53
 53 402 53 402 98 357 c 0,54,55
 139 315 139 315 208 302 c 1,56,-1
 205 284 l 1,57,58
 124 279 124 279 73 345 c 0,59,60
 26 404 26 404 26 487 c 0,61,62
 26 571 26 571 73 634 c 0,63,64
 125 703 125 703 208 703 c 2,65,-1
 212 703 l 2,66,67
 309 703 309 703 363 626 c 0,68,69
 412 558 412 558 412 459 c 0,70,71
 412 328 412 328 268 211 c 1,72,-1
 175 158 l 1,73,74
 229 100 229 100 299 59 c 1,75,-1
 330 63 l 1,76,77
 410 93 410 93 477 150 c 1,78,-1
 485 167 l 1,79,-1
 485 576 l 1,80,-1
 473 645 l 1,81,-1
 488 654 l 1,82,-1
 509 601 l 1,83,84
 550 708 550 708 643 706 c 1,85,86
 644 692 644 692 643 692 c 0,12,13
EndSplineSet
Validated: 33
EndChar

StartChar: Acircumflex
Encoding: 194 194 128
Width: 664
Flags: W
LayerCount: 2
Fore
SplineSet
311 929 m 1,0,-1
 362 929 l 1,1,-1
 455 764 l 1,2,-1
 432 764 l 1,3,-1
 337 862 l 1,4,-1
 240 764 l 1,5,-1
 219 764 l 1,6,-1
 311 929 l 1,0,-1
643 692 m 0,7,8
 612 684 612 684 590 645 c 128,-1,9
 568 606 568 606 568 568 c 2,10,-1
 568 115 l 1,11,12
 575 94 575 94 589 94 c 0,13,14
 593 94 593 94 631 117 c 1,15,16
 643 110 643 110 648 102 c 1,17,-1
 533 -24 l 1,18,-1
 517 -20 l 1,19,20
 520 -14 520 -14 520 -1 c 2,21,-1
 520 0 l 1,22,-1
 520 1 l 1,23,24
 484 64 484 64 484 122 c 1,25,-1
 216 -22 l 1,26,-1
 203 -11 l 1,27,-1
 217 9 l 1,28,-1
 99 105 l 1,29,30
 69 122 69 122 32 108 c 1,31,-1
 26 127 l 1,32,-1
 159 176 l 2,33,34
 235 204 235 204 291 273 c 0,35,36
 340 334 340 334 340 427 c 0,37,38
 340 446 340 446 337 464 c 0,39,40
 314 611 314 611 212 617 c 0,41,42
 153 620 153 620 111 591 c 0,43,44
 64 558 64 558 55 496 c 0,45,46
 53 481 53 481 53 467 c 0,47,48
 53 402 53 402 98 357 c 0,49,50
 139 315 139 315 208 302 c 1,51,-1
 205 284 l 1,52,53
 124 279 124 279 73 345 c 0,54,55
 26 404 26 404 26 487 c 0,56,57
 26 571 26 571 73 634 c 0,58,59
 125 703 125 703 208 703 c 2,60,-1
 212 703 l 2,61,62
 309 703 309 703 363 626 c 0,63,64
 412 558 412 558 412 459 c 0,65,66
 412 328 412 328 268 211 c 1,67,-1
 175 158 l 1,68,69
 229 100 229 100 299 59 c 1,70,-1
 330 63 l 1,71,72
 410 93 410 93 477 150 c 1,73,-1
 485 167 l 1,74,-1
 485 576 l 1,75,-1
 473 645 l 1,76,-1
 488 654 l 1,77,-1
 509 601 l 1,78,79
 550 708 550 708 643 706 c 1,80,81
 644 692 644 692 643 692 c 0,7,8
EndSplineSet
Validated: 33
EndChar

StartChar: Atilde
Encoding: 195 195 129
Width: 664
Flags: W
LayerCount: 2
Fore
SplineSet
285 879 m 1,0,-1
 412 827 l 2,1,2
 413 826 413 826 414 826 c 2,3,-1
 416 826 l 1,4,-1
 417 826 l 2,5,6
 419 826 419 826 422 826 c 0,7,8
 425 827 425 827 427.5 827.5 c 128,-1,9
 430 828 430 828 436 831 c 0,10,11
 449 844 449 844 457 862 c 1,12,-1
 477 855 l 1,13,14
 454 816 454 816 416 776 c 1,15,16
 410 763 410 763 398 763 c 2,17,-1
 389 763 l 2,18,19
 387 763 387 763 385 763.5 c 128,-1,20
 383 764 383 764 381 765 c 2,21,-1
 377 767 l 2,22,23
 372 770 372 770 370 771 c 128,-1,24
 368 772 368 772 367 773 c 2,25,-1
 266 817 l 1,26,-1
 256 817 l 2,27,28
 254 817 254 817 253 816 c 0,29,30
 252 816 252 816 250 816 c 0,31,32
 248 815 248 815 247 815 c 2,33,-1
 218 781 l 2,34,35
 218 780 218 780 218 780 c 1,36,-1
 216 780 l 1,37,-1
 215 780 l 1,38,-1
 214 780 l 2,39,40
 205 780 205 780 197 786 c 1,41,42
 236 854 236 854 261 873 c 0,43,44
 264 875 264 875 268.5 877 c 128,-1,45
 273 879 273 879 278 879 c 2,46,-1
 282 879 l 1,47,48
 282 878 282 878 283 878 c 2,49,-1
 285 878 l 1,50,-1
 285 879 l 1,0,-1
643 692 m 0,51,52
 612 684 612 684 590 645 c 128,-1,53
 568 606 568 606 568 568 c 2,54,-1
 568 115 l 1,55,56
 575 94 575 94 589 94 c 0,57,58
 593 94 593 94 631 117 c 1,59,60
 643 110 643 110 648 102 c 1,61,-1
 533 -24 l 1,62,-1
 517 -20 l 1,63,64
 520 -14 520 -14 520 -1 c 2,65,-1
 520 0 l 1,66,-1
 520 1 l 1,67,68
 484 64 484 64 484 122 c 1,69,-1
 216 -22 l 1,70,-1
 203 -11 l 1,71,-1
 217 9 l 1,72,-1
 99 105 l 1,73,74
 69 122 69 122 32 108 c 1,75,-1
 26 127 l 1,76,-1
 159 176 l 2,77,78
 235 204 235 204 291 273 c 0,79,80
 340 334 340 334 340 427 c 0,81,82
 340 446 340 446 337 464 c 0,83,84
 314 611 314 611 212 617 c 0,85,86
 153 620 153 620 111 591 c 0,87,88
 64 558 64 558 55 496 c 0,89,90
 53 481 53 481 53 467 c 0,91,92
 53 402 53 402 98 357 c 0,93,94
 139 315 139 315 208 302 c 1,95,-1
 205 284 l 1,96,97
 124 279 124 279 73 345 c 0,98,99
 26 404 26 404 26 487 c 0,100,101
 26 571 26 571 73 634 c 0,102,103
 125 703 125 703 208 703 c 2,104,-1
 212 703 l 2,105,106
 309 703 309 703 363 626 c 0,107,108
 412 558 412 558 412 459 c 0,109,110
 412 328 412 328 268 211 c 1,111,-1
 175 158 l 1,112,113
 229 100 229 100 299 59 c 1,114,-1
 330 63 l 1,115,116
 410 93 410 93 477 150 c 1,117,-1
 485 167 l 1,118,-1
 485 576 l 1,119,-1
 473 645 l 1,120,-1
 488 654 l 1,121,-1
 509 601 l 1,122,123
 550 708 550 708 643 706 c 1,124,125
 644 692 644 692 643 692 c 0,51,52
EndSplineSet
Validated: 33
EndChar

StartChar: Adieresis
Encoding: 196 196 130
Width: 664
Flags: W
LayerCount: 2
Fore
SplineSet
420 908 m 1,0,1
 433 903 433 903 439 895 c 0,2,3
 443 891 443 891 443 883 c 0,4,5
 444 882 444 882 444 881 c 2,6,-1
 444 875 l 2,7,8
 444 873 444 873 443 871 c 0,9,10
 442 859 442 859 427 840 c 0,11,12
 393 793 393 793 360 765 c 1,13,-1
 339 764 l 1,14,-1
 376 890 l 1,15,16
 390 908 390 908 401 908 c 2,17,-1
 414 908 l 2,18,19
 417 908 417 908 420 907 c 1,20,-1
 420 908 l 1,0,1
276 911 m 1,21,22
 278 910 278 910 279.5 910.5 c 128,-1,23
 281 911 281 911 283 911 c 2,24,-1
 294 911 l 2,25,26
 295 911 295 911 297 911 c 0,27,28
 298 910 298 910 299 910 c 0,29,30
 312 904 312 904 316 891 c 0,31,32
 318 889 318 889 318 885 c 2,33,-1
 318 876 l 2,34,35
 318 874 318 874 317 873 c 0,36,37
 317 872 317 872 317 870 c 0,38,39
 316 868 316 868 316 867 c 0,40,41
 315 863 315 863 312 857 c 2,42,-1
 251 767 l 1,43,-1
 230 767 l 1,44,-1
 243 871 l 2,45,46
 243 874 243 874 250 887 c 0,47,48
 252 892 252 892 256 896 c 0,49,50
 263 906 263 906 276 910 c 1,51,-1
 276 911 l 1,21,22
643 692 m 0,52,53
 612 684 612 684 590 645 c 128,-1,54
 568 606 568 606 568 568 c 2,55,-1
 568 115 l 1,56,57
 575 94 575 94 589 94 c 0,58,59
 593 94 593 94 631 117 c 1,60,61
 643 110 643 110 648 102 c 1,62,-1
 533 -24 l 1,63,-1
 517 -20 l 1,64,65
 520 -14 520 -14 520 -1 c 2,66,-1
 520 0 l 1,67,-1
 520 1 l 1,68,69
 484 64 484 64 484 122 c 1,70,-1
 216 -22 l 1,71,-1
 203 -11 l 1,72,-1
 217 9 l 1,73,-1
 99 105 l 1,74,75
 69 122 69 122 32 108 c 1,76,-1
 26 127 l 1,77,-1
 159 176 l 2,78,79
 235 204 235 204 291 273 c 0,80,81
 340 334 340 334 340 427 c 0,82,83
 340 446 340 446 337 464 c 0,84,85
 314 611 314 611 212 617 c 0,86,87
 153 620 153 620 111 591 c 0,88,89
 64 558 64 558 55 496 c 0,90,91
 53 481 53 481 53 467 c 0,92,93
 53 402 53 402 98 357 c 0,94,95
 139 315 139 315 208 302 c 1,96,-1
 205 284 l 1,97,98
 124 279 124 279 73 345 c 0,99,100
 26 404 26 404 26 487 c 0,101,102
 26 571 26 571 73 634 c 0,103,104
 125 703 125 703 208 703 c 2,105,-1
 212 703 l 2,106,107
 309 703 309 703 363 626 c 0,108,109
 412 558 412 558 412 459 c 0,110,111
 412 328 412 328 268 211 c 1,112,-1
 175 158 l 1,113,114
 229 100 229 100 299 59 c 1,115,-1
 330 63 l 1,116,117
 410 93 410 93 477 150 c 1,118,-1
 485 167 l 1,119,-1
 485 576 l 1,120,-1
 473 645 l 1,121,-1
 488 654 l 1,122,-1
 509 601 l 1,123,124
 550 708 550 708 643 706 c 1,125,126
 644 692 644 692 643 692 c 0,52,53
EndSplineSet
Validated: 33
EndChar

StartChar: Aring
Encoding: 197 197 131
Width: 664
Flags: W
LayerCount: 2
Fore
SplineSet
425 852 m 2,0,-1
 425 846 l 2,1,2
 425 816 425 816 397 789.5 c 128,-1,3
 369 763 369 763 339 763 c 2,4,-1
 338 763 l 1,5,-1
 337 763 l 1,6,-1
 336 763 l 1,7,-1
 334 763 l 2,8,9
 300 766 300 766 274.5 789.5 c 128,-1,10
 249 813 249 813 249 846 c 2,11,-1
 249 851 l 2,12,13
 249 890 249 890 274.5 914.5 c 128,-1,14
 300 939 300 939 339 939 c 0,15,16
 425 939 425 939 425 852 c 2,0,-1
336 906 m 1,17,18
 280 897 280 897 280 848 c 0,19,20
 282 829 282 829 294 813 c 0,21,22
 308 794 308 794 326 794 c 0,23,24
 328 793 328 793 330 793 c 2,25,-1
 334 793 l 2,26,27
 362 793 362 793 376.5 809 c 128,-1,28
 391 825 391 825 391 847 c 0,29,30
 391 870 391 870 376 887.5 c 128,-1,31
 361 905 361 905 336 905 c 1,32,-1
 336 906 l 1,17,18
643 692 m 0,33,34
 612 684 612 684 590 645 c 128,-1,35
 568 606 568 606 568 568 c 2,36,-1
 568 115 l 1,37,38
 575 94 575 94 589 94 c 0,39,40
 593 94 593 94 631 117 c 1,41,42
 643 110 643 110 648 102 c 1,43,-1
 533 -24 l 1,44,-1
 517 -20 l 1,45,46
 520 -14 520 -14 520 -1 c 2,47,-1
 520 0 l 1,48,-1
 520 1 l 1,49,50
 484 64 484 64 484 122 c 1,51,-1
 216 -22 l 1,52,-1
 203 -11 l 1,53,-1
 217 9 l 1,54,-1
 99 105 l 1,55,56
 69 122 69 122 32 108 c 1,57,-1
 26 127 l 1,58,-1
 159 176 l 2,59,60
 235 204 235 204 291 273 c 0,61,62
 340 334 340 334 340 427 c 0,63,64
 340 446 340 446 337 464 c 0,65,66
 314 611 314 611 212 617 c 0,67,68
 153 620 153 620 111 591 c 0,69,70
 64 558 64 558 55 496 c 0,71,72
 53 481 53 481 53 467 c 0,73,74
 53 402 53 402 98 357 c 0,75,76
 139 315 139 315 208 302 c 1,77,-1
 205 284 l 1,78,79
 124 279 124 279 73 345 c 0,80,81
 26 404 26 404 26 487 c 0,82,83
 26 571 26 571 73 634 c 0,84,85
 125 703 125 703 208 703 c 2,86,-1
 212 703 l 2,87,88
 309 703 309 703 363 626 c 0,89,90
 412 558 412 558 412 459 c 0,91,92
 412 328 412 328 268 211 c 1,93,-1
 175 158 l 1,94,95
 229 100 229 100 299 59 c 1,96,-1
 330 63 l 1,97,98
 410 93 410 93 477 150 c 1,99,-1
 485 167 l 1,100,-1
 485 576 l 1,101,-1
 473 645 l 1,102,-1
 488 654 l 1,103,-1
 509 601 l 1,104,105
 550 708 550 708 643 706 c 1,106,107
 644 692 644 692 643 692 c 0,33,34
EndSplineSet
Validated: 33
EndChar

StartChar: AE
Encoding: 198 198 132
Width: 996
Flags: W
LayerCount: 2
Fore
SplineSet
928 710 m 1,0,-1
 945 702 l 1,1,-1
 892 605 l 1,2,-1
 753 636 l 1,3,4
 723 599 723 599 709 568 c 1,5,6
 737 510 737 510 789 431 c 1,7,-1
 865 503 l 1,8,-1
 877 503 l 1,9,-1
 945 451 l 1,10,11
 926 409 926 409 883 383 c 1,12,13
 855 411 855 411 828 429 c 1,14,-1
 801 412 l 1,15,16
 836 371 836 371 844 321 c 1,17,-1
 802 185 l 2,18,19
 794 158 794 158 767.5 142.5 c 128,-1,20
 741 127 741 127 711 127 c 0,21,22
 671 127 671 127 643 163 c 0,23,24
 618 195 618 195 614 237 c 1,25,-1
 631 238 l 1,26,27
 633 206 633 206 653 179 c 0,28,29
 675 148 675 148 705 148 c 0,30,31
 743 148 743 148 766.5 168.5 c 128,-1,32
 790 189 790 189 790 226 c 0,33,34
 790 252 790 252 780 278 c 0,35,36
 774 292 774 292 707 409 c 0,37,38
 672 469 672 469 637 528 c 1,39,-1
 713 627 l 1,40,41
 680 685 680 685 625 685 c 0,42,43
 513 685 513 685 513 455 c 0,44,45
 513 393 513 393 521 350 c 2,46,-1
 540 248 l 2,47,48
 543 233 543 233 558 202 c 0,49,50
 622 63 622 63 763 63 c 0,51,52
 844 63 844 63 947 112 c 1,53,-1
 957 94 l 1,54,-1
 793 -20 l 1,55,-1
 779 -21 l 1,56,57
 584 -27 584 -27 492 146 c 1,58,59
 355 43 355 43 193 -20 c 1,60,-1
 181 -11 l 1,61,62
 190 -2 190 -2 192 13 c 1,63,-1
 91 94 l 2,64,65
 70 111 70 111 49 111 c 0,66,67
 35 111 35 111 28 108 c 1,68,-1
 19 128 l 1,69,70
 72 144 72 144 121 168 c 0,71,72
 222 216 222 216 264 268 c 0,73,74
 316 330 316 330 316 431 c 0,75,76
 316 503 316 503 286 556 c 0,77,78
 250 620 250 620 183 620 c 0,79,80
 121 620 121 620 83 573 c 0,81,82
 48 530 48 530 48 467 c 256,83,84
 48 404 48 404 89 359 c 0,85,86
 127 316 127 316 190 302 c 1,87,-1
 186 286 l 1,88,89
 113 295 113 295 66 347.5 c 128,-1,90
 19 400 19 400 19 473 c 0,91,92
 19 561 19 561 62 627 c 0,93,94
 112 702 112 702 196 702 c 0,95,96
 247 702 247 702 295.5 670.5 c 128,-1,97
 344 639 344 639 365 591 c 0,98,99
 371 577 371 577 380.5 540.5 c 128,-1,100
 390 504 390 504 390 485 c 0,101,102
 390 263 390 263 149 156 c 1,103,104
 183 129 183 129 218 101 c 0,105,106
 273 58 273 58 285 58 c 0,107,108
 309 58 309 58 324 65 c 0,109,110
 358 81 358 81 483 171 c 1,111,-1
 456 274 l 2,112,113
 454 281 454 281 452 336 c 0,114,115
 447 428 447 428 447 566 c 0,116,117
 447 580 447 580 435 649 c 1,118,-1
 454 654 l 1,119,-1
 473 594 l 1,120,121
 533 708 533 708 625 708 c 0,122,123
 687 708 687 708 730 646 c 1,124,-1
 781 702 l 1,125,126
 841 692 841 692 901 686 c 1,127,-1
 928 710 l 1,0,-1
EndSplineSet
Validated: 33
EndChar

StartChar: Ccedilla
Encoding: 199 199 133
Width: 627
Flags: W
LayerCount: 2
Fore
SplineSet
312 -22 m 1,0,-1
 337 -22 l 1,1,-1
 313 -78 l 1,2,3
 331 -67 331 -67 352 -67 c 0,4,5
 390 -67 390 -67 390 -116 c 0,6,7
 390 -145 390 -145 344 -181 c 0,8,9
 307 -210 307 -210 271 -223 c 1,10,-1
 263 -211 l 1,11,12
 330 -175 330 -175 330 -135 c 0,13,14
 330 -113 330 -113 309 -112 c 1,15,16
 300 -116 300 -116 282 -124 c 1,17,-1
 278 -124 l 2,18,19
 275 -123 275 -123 269 -118 c 1,20,-1
 312 -22 l 1,0,-1
250 709 m 1,21,22
 339 696 339 696 353 627 c 1,23,-1
 433 708 l 1,24,25
 547 666 547 666 551 666 c 0,26,27
 561 666 561 666 569 670 c 1,28,-1
 591 704 l 1,29,-1
 608 693 l 1,30,-1
 536 590 l 1,31,32
 516 590 516 590 521 590 c 1,33,-1
 403 632 l 1,34,-1
 401 631 l 1,35,36
 387 631 387 631 377 622 c 128,-1,37
 367 613 367 613 358 604 c 0,38,39
 323 572 323 572 323 540 c 2,40,-1
 323 538 l 1,41,42
 440 266 440 266 439 235 c 1,43,-1
 330 83 l 1,44,-1
 401 67 l 1,45,46
 482 67 482 67 507 70 c 0,47,48
 555 77 555 77 601 104 c 1,49,-1
 610 92 l 1,50,-1
 492 -16 l 1,51,52
 465 -22 465 -22 421 -22 c 0,53,54
 228 -22 228 -22 116 123 c 0,55,56
 95 150 95 150 86 170 c 0,57,58
 72 200 72 200 59 248 c 0,59,60
 43 306 43 306 43 357 c 0,61,62
 43 480 43 480 59 517 c 2,63,-1
 103 619 l 2,64,65
 107 628 107 628 124 648 c 0,66,67
 178 708 178 708 248 708 c 2,68,-1
 250 708 l 1,69,-1
 250 709 l 1,21,22
260 683 m 1,70,-1
 258 682 l 1,71,72
 175 682 175 682 142 598 c 0,73,74
 112 521 112 521 112 420 c 0,75,76
 112 303 112 303 157 218 c 0,77,78
 209 122 209 122 312 88 c 1,79,80
 360 143 360 143 360 194 c 0,81,82
 360 219 360 219 355 232 c 2,83,-1
 247 506 l 1,84,-1
 335 608 l 1,85,86
 331 636 331 636 309.5 659 c 128,-1,87
 288 682 288 682 260 682 c 1,88,-1
 260 683 l 1,70,-1
EndSplineSet
Validated: 37
EndChar

StartChar: Egrave
Encoding: 200 200 134
Width: 644
Flags: W
LayerCount: 2
Fore
SplineSet
585 710 m 1,0,-1
 599 702 l 1,1,-1
 543 601 l 1,2,-1
 394 636 l 1,3,4
 360 602 360 602 341 564 c 1,5,6
 376 502 376 502 428 428 c 1,7,-1
 508 503 l 1,8,-1
 510 503 l 1,9,-1
 513 503 l 2,10,11
 516 503 516 503 526 501 c 1,12,13
 566 461 566 461 599 448 c 1,14,-1
 599 432 l 1,15,-1
 550 383 l 1,16,-1
 548 382 l 1,17,-1
 542 382 l 2,18,19
 537 382 537 382 529 385 c 0,20,21
 493 413 493 413 467 429 c 1,22,-1
 439 409 l 1,23,-1
 477 339 l 1,24,25
 477 310 477 310 477 318 c 1,26,-1
 437 181 l 2,27,28
 430 158 430 158 404 142.5 c 128,-1,29
 378 127 378 127 353 127 c 0,30,31
 306 127 306 127 272 160 c 0,32,33
 241 189 241 189 228 237 c 1,34,-1
 248 238 l 1,35,36
 280 149 280 149 341 149 c 0,37,38
 423 149 423 149 423 233 c 0,39,40
 423 272 423 272 394 322 c 2,41,-1
 274 527 l 1,42,43
 278 538 278 538 348 632 c 1,44,45
 308 683 308 683 256 683 c 0,46,47
 176 683 176 683 139 591 c 0,48,49
 113 526 113 526 113 431 c 0,50,51
 113 272 113 272 186 174 c 0,52,53
 267 64 267 64 420 64 c 0,54,55
 458 64 458 64 518 80.5 c 128,-1,56
 578 97 578 97 604 113 c 1,57,-1
 614 96 l 1,58,-1
 448 -20 l 1,59,-1
 346 -20 l 2,60,61
 329 -20 329 -20 296 -12 c 0,62,63
 165 22 165 22 102 142 c 0,64,65
 49 243 49 243 49 391 c 0,66,67
 49 438 49 438 54 469 c 0,68,69
 56 481 56 481 74 556 c 0,70,71
 83 596 83 596 115.5 636 c 128,-1,72
 148 676 148 676 185 693 c 0,73,74
 215 706 215 706 258 706 c 0,75,76
 314 706 314 706 365 646 c 1,77,-1
 420 705 l 1,78,79
 496 698 496 698 553 684 c 1,80,-1
 585 710 l 1,0,-1
281 938 m 1,81,-1
 290 938 l 2,82,83
 311 938 311 938 320 922 c 2,84,-1
 404 769 l 1,85,-1
 384 769 l 1,86,-1
 269 879 l 2,87,88
 258 890 258 890 258 907 c 0,89,90
 258 933 258 933 281 937 c 1,91,-1
 281 938 l 1,81,-1
EndSplineSet
Validated: 5
EndChar

StartChar: Eacute
Encoding: 201 201 135
Width: 644
Flags: W
LayerCount: 2
Fore
SplineSet
585 710 m 1,0,-1
 599 702 l 1,1,-1
 543 601 l 1,2,-1
 394 636 l 1,3,4
 360 602 360 602 341 564 c 1,5,6
 376 502 376 502 428 428 c 1,7,-1
 508 503 l 1,8,-1
 510 503 l 1,9,-1
 513 503 l 2,10,11
 516 503 516 503 526 501 c 1,12,13
 566 461 566 461 599 448 c 1,14,-1
 599 432 l 1,15,-1
 550 383 l 1,16,-1
 548 382 l 1,17,-1
 542 382 l 2,18,19
 537 382 537 382 529 385 c 0,20,21
 493 413 493 413 467 429 c 1,22,-1
 439 409 l 1,23,-1
 477 339 l 1,24,25
 477 310 477 310 477 318 c 1,26,-1
 437 181 l 2,27,28
 430 158 430 158 404 142.5 c 128,-1,29
 378 127 378 127 353 127 c 0,30,31
 306 127 306 127 272 160 c 0,32,33
 241 189 241 189 228 237 c 1,34,-1
 248 238 l 1,35,36
 280 149 280 149 341 149 c 0,37,38
 423 149 423 149 423 233 c 0,39,40
 423 272 423 272 394 322 c 2,41,-1
 274 527 l 1,42,43
 278 538 278 538 348 632 c 1,44,45
 308 683 308 683 256 683 c 0,46,47
 176 683 176 683 139 591 c 0,48,49
 113 526 113 526 113 431 c 0,50,51
 113 272 113 272 186 174 c 0,52,53
 267 64 267 64 420 64 c 0,54,55
 458 64 458 64 518 80.5 c 128,-1,56
 578 97 578 97 604 113 c 1,57,-1
 614 96 l 1,58,-1
 448 -20 l 1,59,-1
 346 -20 l 2,60,61
 329 -20 329 -20 296 -12 c 0,62,63
 165 22 165 22 102 142 c 0,64,65
 49 243 49 243 49 391 c 0,66,67
 49 438 49 438 54 469 c 0,68,69
 56 481 56 481 74 556 c 0,70,71
 83 596 83 596 115.5 636 c 128,-1,72
 148 676 148 676 185 693 c 0,73,74
 215 706 215 706 258 706 c 0,75,76
 314 706 314 706 365 646 c 1,77,-1
 420 705 l 1,78,79
 496 698 496 698 553 684 c 1,80,-1
 585 710 l 1,0,-1
372 939 m 1,81,82
 386 939 386 939 396 928.5 c 128,-1,83
 406 918 406 918 406 904 c 0,84,85
 406 892 406 892 396 882 c 2,86,-1
 278 769 l 1,87,-1
 257 769 l 1,88,-1
 320 889 l 2,89,90
 346 938 346 938 372 938 c 1,91,-1
 372 939 l 1,81,82
EndSplineSet
Validated: 5
EndChar

StartChar: Ecircumflex
Encoding: 202 202 136
Width: 644
Flags: W
LayerCount: 2
Fore
SplineSet
585 710 m 1,0,-1
 599 702 l 1,1,-1
 543 601 l 1,2,-1
 394 636 l 1,3,4
 360 602 360 602 341 564 c 1,5,6
 376 502 376 502 428 428 c 1,7,-1
 508 503 l 1,8,-1
 510 503 l 1,9,-1
 513 503 l 2,10,11
 516 503 516 503 526 501 c 1,12,13
 566 461 566 461 599 448 c 1,14,-1
 599 432 l 1,15,-1
 550 383 l 1,16,-1
 548 382 l 1,17,-1
 542 382 l 2,18,19
 537 382 537 382 529 385 c 0,20,21
 493 413 493 413 467 429 c 1,22,-1
 439 409 l 1,23,-1
 477 339 l 1,24,25
 477 310 477 310 477 318 c 1,26,-1
 437 181 l 2,27,28
 430 158 430 158 404 142.5 c 128,-1,29
 378 127 378 127 353 127 c 0,30,31
 306 127 306 127 272 160 c 0,32,33
 241 189 241 189 228 237 c 1,34,-1
 248 238 l 1,35,36
 280 149 280 149 341 149 c 0,37,38
 423 149 423 149 423 233 c 0,39,40
 423 272 423 272 394 322 c 2,41,-1
 274 527 l 1,42,43
 278 538 278 538 348 632 c 1,44,45
 308 683 308 683 256 683 c 0,46,47
 176 683 176 683 139 591 c 0,48,49
 113 526 113 526 113 431 c 0,50,51
 113 272 113 272 186 174 c 0,52,53
 267 64 267 64 420 64 c 0,54,55
 458 64 458 64 518 80.5 c 128,-1,56
 578 97 578 97 604 113 c 1,57,-1
 614 96 l 1,58,-1
 448 -20 l 1,59,-1
 346 -20 l 2,60,61
 329 -20 329 -20 296 -12 c 0,62,63
 165 22 165 22 102 142 c 0,64,65
 49 243 49 243 49 391 c 0,66,67
 49 438 49 438 54 469 c 0,68,69
 56 481 56 481 74 556 c 0,70,71
 83 596 83 596 115.5 636 c 128,-1,72
 148 676 148 676 185 693 c 0,73,74
 215 706 215 706 258 706 c 0,75,76
 314 706 314 706 365 646 c 1,77,-1
 420 705 l 1,78,79
 496 698 496 698 553 684 c 1,80,-1
 585 710 l 1,0,-1
306 934 m 1,81,-1
 356 934 l 1,82,-1
 449 769 l 1,83,-1
 426 769 l 1,84,-1
 331 867 l 1,85,-1
 234 769 l 1,86,-1
 213 769 l 1,87,-1
 306 934 l 1,81,-1
EndSplineSet
Validated: 5
EndChar

StartChar: Edieresis
Encoding: 203 203 137
Width: 644
Flags: W
LayerCount: 2
Fore
SplineSet
585 710 m 1,0,-1
 599 702 l 1,1,-1
 543 601 l 1,2,-1
 394 636 l 1,3,4
 360 602 360 602 341 564 c 1,5,6
 376 502 376 502 428 428 c 1,7,-1
 508 503 l 1,8,-1
 510 503 l 1,9,-1
 513 503 l 2,10,11
 516 503 516 503 526 501 c 1,12,13
 566 461 566 461 599 448 c 1,14,-1
 599 432 l 1,15,-1
 550 383 l 1,16,-1
 548 382 l 1,17,-1
 542 382 l 2,18,19
 537 382 537 382 529 385 c 0,20,21
 493 413 493 413 467 429 c 1,22,-1
 439 409 l 1,23,-1
 477 339 l 1,24,25
 477 310 477 310 477 318 c 1,26,-1
 437 181 l 2,27,28
 430 158 430 158 404 142.5 c 128,-1,29
 378 127 378 127 353 127 c 0,30,31
 306 127 306 127 272 160 c 0,32,33
 241 189 241 189 228 237 c 1,34,-1
 248 238 l 1,35,36
 280 149 280 149 341 149 c 0,37,38
 423 149 423 149 423 233 c 0,39,40
 423 272 423 272 394 322 c 2,41,-1
 274 527 l 1,42,43
 278 538 278 538 348 632 c 1,44,45
 308 683 308 683 256 683 c 0,46,47
 176 683 176 683 139 591 c 0,48,49
 113 526 113 526 113 431 c 0,50,51
 113 272 113 272 186 174 c 0,52,53
 267 64 267 64 420 64 c 0,54,55
 458 64 458 64 518 80.5 c 128,-1,56
 578 97 578 97 604 113 c 1,57,-1
 614 96 l 1,58,-1
 448 -20 l 1,59,-1
 346 -20 l 2,60,61
 329 -20 329 -20 296 -12 c 0,62,63
 165 22 165 22 102 142 c 0,64,65
 49 243 49 243 49 391 c 0,66,67
 49 438 49 438 54 469 c 0,68,69
 56 481 56 481 74 556 c 0,70,71
 83 596 83 596 115.5 636 c 128,-1,72
 148 676 148 676 185 693 c 0,73,74
 215 706 215 706 258 706 c 0,75,76
 314 706 314 706 365 646 c 1,77,-1
 420 705 l 1,78,79
 496 698 496 698 553 684 c 1,80,-1
 585 710 l 1,0,-1
414 912 m 1,81,82
 430 905 430 905 437 892 c 1,83,84
 438 881 438 881 438 880 c 0,85,86
 438 861 438 861 404 821 c 0,87,88
 377 788 377 788 354 770 c 1,89,-1
 334 769 l 1,90,-1
 370 895 l 1,91,92
 384 913 384 913 403 913 c 0,93,94
 409 913 409 913 414 911 c 1,95,-1
 414 912 l 1,81,82
270 915 m 1,96,97
 277 916 277 916 277 916 c 1,98,-1
 286 916 l 2,99,100
 296 916 296 916 304 906 c 128,-1,101
 312 896 312 896 312 887 c 0,102,103
 312 871 312 871 306 862 c 2,104,-1
 245 772 l 1,105,-1
 224 772 l 1,106,-1
 237 875 l 2,107,108
 238 887 238 887 248.5 899.5 c 128,-1,109
 259 912 259 912 270 914 c 1,110,-1
 270 915 l 1,96,97
EndSplineSet
Validated: 5
EndChar

StartChar: Igrave
Encoding: 204 204 138
Width: 572
Flags: W
LayerCount: 2
Fore
SplineSet
473 539 m 1,0,1
 515 533 515 533 515 501 c 2,2,-1
 515 499 l 1,3,4
 511 491 511 491 507 484 c 128,-1,5
 503 477 503 477 491 477 c 0,6,7
 482 477 482 477 477 481 c 1,8,9
 477 506 477 506 458 506 c 0,10,11
 435 506 435 506 418 488 c 128,-1,12
 401 470 401 470 401 447 c 0,13,14
 401 395 401 395 461 291.5 c 128,-1,15
 521 188 521 188 521 162 c 0,16,17
 521 144 521 144 504 110 c 0,18,19
 477 56 477 56 447 31 c 0,20,21
 413 2 413 2 358 -6 c 0,22,23
 270 -19 270 -19 219 -19 c 1,24,25
 216 -24 216 -24 206 -27 c 1,26,27
 198 -25 198 -25 194 -19 c 0,28,29
 187 18 187 18 159 48 c 0,30,31
 129 82 129 82 94 82 c 0,32,33
 68 82 68 82 49 56 c 0,34,35
 48 51 48 51 39 36 c 0,36,37
 37 36 37 36 36 35 c 2,38,-1
 34 35 l 2,39,40
 27 35 27 35 21 38 c 1,41,42
 30 116 30 116 141 116 c 0,43,44
 164 116 164 116 184 112 c 1,45,46
 191 115 191 115 206 115 c 0,47,48
 223 115 223 115 231 96 c 0,49,50
 236 79 236 79 242 63 c 0,51,52
 272 14 272 14 335 14 c 0,53,54
 383 14 383 14 415.5 42.5 c 128,-1,55
 448 71 448 71 448 119 c 0,56,57
 448 141 448 141 447 143 c 2,58,-1
 337 348 l 2,59,60
 328 365 328 365 328 390 c 0,61,62
 328 434 328 434 378.5 486 c 128,-1,63
 429 538 429 538 473 538 c 1,64,-1
 473 539 l 1,0,1
227 713 m 1,65,66
 238 713 238 713 319.5 660 c 128,-1,67
 401 607 401 607 432 607 c 0,68,69
 452 607 452 607 483 631 c 1,70,71
 475 641 475 641 473 655 c 0,72,73
 475 665 475 665 481 669 c 0,74,75
 484 674 484 674 497 674 c 2,76,-1
 501 674 l 1,77,78
 523 665 523 665 523 651 c 0,79,80
 523 632 523 632 511 615 c 0,81,82
 503 603 503 603 459 579 c 0,83,84
 421 557 421 557 400 550 c 0,85,86
 389 546 389 546 364 546 c 2,87,-1
 359 546 l 1,88,-1
 208 628 l 2,89,90
 193 636 193 636 155 636 c 0,91,92
 113 636 113 636 79 606.5 c 128,-1,93
 45 577 45 577 45 535 c 0,94,95
 45 483 45 483 82 452 c 0,96,97
 110 429 110 429 167 413 c 1,98,-1
 165 396 l 1,99,100
 104 400 104 400 63 439 c 128,-1,101
 22 478 22 478 22 539 c 0,102,103
 22 655 22 655 208 696 c 0,104,105
 212 699 212 699 227 712 c 1,106,-1
 227 713 l 1,65,66
222 941 m 1,107,-1
 231 941 l 2,108,109
 253 941 253 941 261 926 c 2,110,-1
 345 772 l 1,111,-1
 325 772 l 1,112,-1
 211 883 l 2,113,114
 199 895 199 895 199 911 c 0,115,116
 199 936 199 936 222 940 c 1,117,-1
 222 941 l 1,107,-1
EndSplineSet
Validated: 1
EndChar

StartChar: Iacute
Encoding: 205 205 139
Width: 572
Flags: W
LayerCount: 2
Fore
SplineSet
473 539 m 1,0,1
 515 533 515 533 515 501 c 2,2,-1
 515 499 l 1,3,4
 511 491 511 491 507 484 c 128,-1,5
 503 477 503 477 491 477 c 0,6,7
 482 477 482 477 477 481 c 1,8,9
 477 506 477 506 458 506 c 0,10,11
 435 506 435 506 418 488 c 128,-1,12
 401 470 401 470 401 447 c 0,13,14
 401 395 401 395 461 291.5 c 128,-1,15
 521 188 521 188 521 162 c 0,16,17
 521 144 521 144 504 110 c 0,18,19
 477 56 477 56 447 31 c 0,20,21
 413 2 413 2 358 -6 c 0,22,23
 270 -19 270 -19 219 -19 c 1,24,25
 216 -24 216 -24 206 -27 c 1,26,27
 198 -25 198 -25 194 -19 c 0,28,29
 187 18 187 18 159 48 c 0,30,31
 129 82 129 82 94 82 c 0,32,33
 68 82 68 82 49 56 c 0,34,35
 48 51 48 51 39 36 c 0,36,37
 37 36 37 36 36 35 c 2,38,-1
 34 35 l 2,39,40
 27 35 27 35 21 38 c 1,41,42
 30 116 30 116 141 116 c 0,43,44
 164 116 164 116 184 112 c 1,45,46
 191 115 191 115 206 115 c 0,47,48
 223 115 223 115 231 96 c 0,49,50
 236 79 236 79 242 63 c 0,51,52
 272 14 272 14 335 14 c 0,53,54
 383 14 383 14 415.5 42.5 c 128,-1,55
 448 71 448 71 448 119 c 0,56,57
 448 141 448 141 447 143 c 2,58,-1
 337 348 l 2,59,60
 328 365 328 365 328 390 c 0,61,62
 328 434 328 434 378.5 486 c 128,-1,63
 429 538 429 538 473 538 c 1,64,-1
 473 539 l 1,0,1
227 713 m 1,65,66
 238 713 238 713 319.5 660 c 128,-1,67
 401 607 401 607 432 607 c 0,68,69
 452 607 452 607 483 631 c 1,70,71
 475 641 475 641 473 655 c 0,72,73
 475 665 475 665 481 669 c 0,74,75
 484 674 484 674 497 674 c 2,76,-1
 501 674 l 1,77,78
 523 665 523 665 523 651 c 0,79,80
 523 632 523 632 511 615 c 0,81,82
 503 603 503 603 459 579 c 0,83,84
 421 557 421 557 400 550 c 0,85,86
 389 546 389 546 364 546 c 2,87,-1
 359 546 l 1,88,-1
 208 628 l 2,89,90
 193 636 193 636 155 636 c 0,91,92
 113 636 113 636 79 606.5 c 128,-1,93
 45 577 45 577 45 535 c 0,94,95
 45 483 45 483 82 452 c 0,96,97
 110 429 110 429 167 413 c 1,98,-1
 165 396 l 1,99,100
 104 400 104 400 63 439 c 128,-1,101
 22 478 22 478 22 539 c 0,102,103
 22 655 22 655 208 696 c 0,104,105
 212 699 212 699 227 712 c 1,106,-1
 227 713 l 1,65,66
313 942 m 1,107,108
 347 942 347 942 347 908 c 0,109,110
 347 896 347 896 337 886 c 2,111,-1
 219 772 l 1,112,-1
 198 772 l 1,113,-1
 261 893 l 2,114,115
 269 908 269 908 283 923 c 0,116,117
 301 941 301 941 313 941 c 1,118,-1
 313 942 l 1,107,108
EndSplineSet
Validated: 1
EndChar

StartChar: Icircumflex
Encoding: 206 206 140
Width: 572
Flags: W
LayerCount: 2
Fore
SplineSet
473 539 m 1,0,1
 515 533 515 533 515 501 c 2,2,-1
 515 499 l 1,3,4
 511 491 511 491 507 484 c 128,-1,5
 503 477 503 477 491 477 c 0,6,7
 482 477 482 477 477 481 c 1,8,9
 477 506 477 506 458 506 c 0,10,11
 435 506 435 506 418 488 c 128,-1,12
 401 470 401 470 401 447 c 0,13,14
 401 395 401 395 461 291.5 c 128,-1,15
 521 188 521 188 521 162 c 0,16,17
 521 144 521 144 504 110 c 0,18,19
 477 56 477 56 447 31 c 0,20,21
 413 2 413 2 358 -6 c 0,22,23
 270 -19 270 -19 219 -19 c 1,24,25
 216 -24 216 -24 206 -27 c 1,26,27
 198 -25 198 -25 194 -19 c 0,28,29
 187 18 187 18 159 48 c 0,30,31
 129 82 129 82 94 82 c 0,32,33
 68 82 68 82 49 56 c 0,34,35
 48 51 48 51 39 36 c 0,36,37
 37 36 37 36 36 35 c 2,38,-1
 34 35 l 2,39,40
 27 35 27 35 21 38 c 1,41,42
 30 116 30 116 141 116 c 0,43,44
 164 116 164 116 184 112 c 1,45,46
 191 115 191 115 206 115 c 0,47,48
 223 115 223 115 231 96 c 0,49,50
 236 79 236 79 242 63 c 0,51,52
 272 14 272 14 335 14 c 0,53,54
 383 14 383 14 415.5 42.5 c 128,-1,55
 448 71 448 71 448 119 c 0,56,57
 448 141 448 141 447 143 c 2,58,-1
 337 348 l 2,59,60
 328 365 328 365 328 390 c 0,61,62
 328 434 328 434 378.5 486 c 128,-1,63
 429 538 429 538 473 538 c 1,64,-1
 473 539 l 1,0,1
227 713 m 1,65,66
 238 713 238 713 319.5 660 c 128,-1,67
 401 607 401 607 432 607 c 0,68,69
 452 607 452 607 483 631 c 1,70,71
 475 641 475 641 473 655 c 0,72,73
 475 665 475 665 481 669 c 0,74,75
 484 674 484 674 497 674 c 2,76,-1
 501 674 l 1,77,78
 523 665 523 665 523 651 c 0,79,80
 523 632 523 632 511 615 c 0,81,82
 503 603 503 603 459 579 c 0,83,84
 421 557 421 557 400 550 c 0,85,86
 389 546 389 546 364 546 c 2,87,-1
 359 546 l 1,88,-1
 208 628 l 2,89,90
 193 636 193 636 155 636 c 0,91,92
 113 636 113 636 79 606.5 c 128,-1,93
 45 577 45 577 45 535 c 0,94,95
 45 483 45 483 82 452 c 0,96,97
 110 429 110 429 167 413 c 1,98,-1
 165 396 l 1,99,100
 104 400 104 400 63 439 c 128,-1,101
 22 478 22 478 22 539 c 0,102,103
 22 655 22 655 208 696 c 0,104,105
 212 699 212 699 227 712 c 1,106,-1
 227 713 l 1,65,66
247 938 m 1,107,-1
 298 938 l 1,108,-1
 390 772 l 1,109,-1
 367 772 l 1,110,-1
 272 870 l 1,111,-1
 176 772 l 1,112,-1
 154 772 l 1,113,-1
 247 938 l 1,107,-1
EndSplineSet
Validated: 1
EndChar

StartChar: Idieresis
Encoding: 207 207 141
Width: 572
Flags: W
LayerCount: 2
Fore
SplineSet
473 539 m 1,0,1
 515 533 515 533 515 501 c 2,2,-1
 515 499 l 1,3,4
 511 491 511 491 507 484 c 128,-1,5
 503 477 503 477 491 477 c 0,6,7
 482 477 482 477 477 481 c 1,8,9
 477 506 477 506 458 506 c 0,10,11
 435 506 435 506 418 488 c 128,-1,12
 401 470 401 470 401 447 c 0,13,14
 401 395 401 395 461 291.5 c 128,-1,15
 521 188 521 188 521 162 c 0,16,17
 521 144 521 144 504 110 c 0,18,19
 477 56 477 56 447 31 c 0,20,21
 413 2 413 2 358 -6 c 0,22,23
 270 -19 270 -19 219 -19 c 1,24,25
 216 -24 216 -24 206 -27 c 1,26,27
 198 -25 198 -25 194 -19 c 0,28,29
 187 18 187 18 159 48 c 0,30,31
 129 82 129 82 94 82 c 0,32,33
 68 82 68 82 49 56 c 0,34,35
 48 51 48 51 39 36 c 0,36,37
 37 36 37 36 36 35 c 2,38,-1
 34 35 l 2,39,40
 27 35 27 35 21 38 c 1,41,42
 30 116 30 116 141 116 c 0,43,44
 164 116 164 116 184 112 c 1,45,46
 191 115 191 115 206 115 c 0,47,48
 223 115 223 115 231 96 c 0,49,50
 236 79 236 79 242 63 c 0,51,52
 272 14 272 14 335 14 c 0,53,54
 383 14 383 14 415.5 42.5 c 128,-1,55
 448 71 448 71 448 119 c 0,56,57
 448 141 448 141 447 143 c 2,58,-1
 337 348 l 2,59,60
 328 365 328 365 328 390 c 0,61,62
 328 434 328 434 378.5 486 c 128,-1,63
 429 538 429 538 473 538 c 1,64,-1
 473 539 l 1,0,1
227 713 m 1,65,66
 238 713 238 713 319.5 660 c 128,-1,67
 401 607 401 607 432 607 c 0,68,69
 452 607 452 607 483 631 c 1,70,71
 475 641 475 641 473 655 c 0,72,73
 475 665 475 665 481 669 c 0,74,75
 484 674 484 674 497 674 c 2,76,-1
 501 674 l 1,77,78
 523 665 523 665 523 651 c 0,79,80
 523 632 523 632 511 615 c 0,81,82
 503 603 503 603 459 579 c 0,83,84
 421 557 421 557 400 550 c 0,85,86
 389 546 389 546 364 546 c 2,87,-1
 359 546 l 1,88,-1
 208 628 l 2,89,90
 193 636 193 636 155 636 c 0,91,92
 113 636 113 636 79 606.5 c 128,-1,93
 45 577 45 577 45 535 c 0,94,95
 45 483 45 483 82 452 c 0,96,97
 110 429 110 429 167 413 c 1,98,-1
 165 396 l 1,99,100
 104 400 104 400 63 439 c 128,-1,101
 22 478 22 478 22 539 c 0,102,103
 22 655 22 655 208 696 c 0,104,105
 212 699 212 699 227 712 c 1,106,-1
 227 713 l 1,65,66
355 916 m 1,107,108
 379 908 379 908 379 883 c 0,109,110
 379 864 379 864 345 824 c 0,111,112
 320 794 320 794 295 773 c 1,113,-1
 275 772 l 1,114,-1
 311 898 l 2,115,116
 316 917 316 917 348 917 c 0,117,118
 349 916 349 916 355 915 c 1,119,-1
 355 916 l 1,107,108
211 919 m 1,120,121
 218 920 218 920 218 920 c 1,122,-1
 227 920 l 2,123,124
 237 920 237 920 245.5 908.5 c 128,-1,125
 254 897 254 897 254 887 c 0,126,127
 254 880 254 880 252.5 875.5 c 128,-1,128
 251 871 251 871 186 775 c 1,129,-1
 165 775 l 1,130,-1
 178 879 l 2,131,132
 179 890 179 890 190 903 c 128,-1,133
 201 916 201 916 211 918 c 1,134,-1
 211 919 l 1,120,121
EndSplineSet
Validated: 1
EndChar

StartChar: Eth
Encoding: 208 208 142
Width: 812
Flags: W
LayerCount: 2
Fore
SplineSet
748 266 m 0,0,1
 748 143 748 143 660 50.5 c 128,-1,2
 572 -42 572 -42 449 -42 c 0,3,4
 410 -42 410 -42 380 -24 c 2,5,-1
 217 73 l 2,6,7
 183 93 183 93 157 93 c 0,8,9
 110 93 110 93 70 64 c 1,10,-1
 57 76 l 1,11,12
 137 161 137 161 257 161 c 1,13,14
 330 202 330 202 329 233 c 1,15,16
 320 254 320 254 274 315 c 1,17,-1
 170 313 l 1,18,-1
 170 356 l 1,19,-1
 259 354 l 1,20,21
 244 378 244 378 228 402 c 0,22,23
 211 432 211 432 211 456 c 0,24,25
 211 461 211 461 217 474 c 0,26,27
 247 549 247 549 447 577 c 1,28,29
 345 639 345 639 225 639 c 0,30,31
 145 639 145 639 93 595 c 0,32,33
 37 548 37 548 37 470 c 0,34,35
 37 393 37 393 126 346 c 1,36,-1
 119 330 l 1,37,38
 71 341 71 341 43 388 c 0,39,40
 19 430 19 430 19 483 c 0,41,42
 19 580 19 580 89 645 c 0,43,44
 156 707 156 707 254 711 c 1,45,-1
 254 712 l 1,46,-1
 269 712 l 2,47,48
 440 712 440 712 571 606 c 0,49,50
 647 544 647 544 696 455 c 0,51,52
 748 359 748 359 748 266 c 0,0,1
704 197 m 0,53,54
 704 302 704 302 635 404 c 0,55,56
 571 500 571 500 475 556 c 1,57,-1
 475 557 l 1,58,-1
 473 556 l 1,59,60
 417 556 417 556 364 538 c 0,61,62
 292 514 292 514 292 471 c 0,63,64
 292 470 292 470 292 467 c 0,65,66
 293 464 293 464 293 463 c 2,67,-1
 361 354 l 1,68,-1
 457 356 l 1,69,-1
 457 313 l 1,70,-1
 381 315 l 1,71,72
 410 282 410 282 410 255 c 0,73,74
 410 216 410 216 384 204 c 2,75,-1
 259 144 l 1,76,77
 423 9 423 9 520 9 c 0,78,79
 597 9 597 9 650.5 64.5 c 128,-1,80
 704 120 704 120 704 197 c 0,53,54
EndSplineSet
Validated: 33
EndChar

StartChar: Ntilde
Encoding: 209 209 143
Width: 719
Flags: W
LayerCount: 2
Fore
SplineSet
191 706 m 1,0,-1
 194 705 l 1,1,2
 257 705 257 705 305 669 c 128,-1,3
 353 633 353 633 373 572 c 1,4,5
 409 705 409 705 526 705 c 0,6,7
 626 705 626 705 666 631 c 0,8,9
 682 602 682 602 682 589 c 2,10,-1
 682 499 l 1,11,12
 689 492 689 492 699 490 c 1,13,-1
 699 472 l 1,14,15
 614 459 614 459 591 409 c 0,16,17
 583 391 583 391 583 386 c 2,18,-1
 583 122 l 2,19,20
 583 101 583 101 596 76 c 0,21,22
 611 47 611 47 630 47 c 0,23,24
 650 47 650 47 663 56 c 0,25,26
 667 59 667 59 688 80 c 1,27,-1
 703 67 l 1,28,-1
 602 -21 l 2,29,30
 599 -24 599 -24 587 -24 c 0,31,32
 586 -24 586 -24 583 -23 c 0,33,34
 552 21 552 21 512 32 c 1,35,36
 495 86 495 86 495 206 c 0,37,38
 495 363 495 363 519 395 c 0,39,40
 547 433 547 433 614 466 c 0,41,42
 614 469 614 469 614 476 c 0,43,44
 615 482 615 482 615 485 c 0,45,46
 615 650 615 650 500 650 c 0,47,48
 409 650 409 650 384 549 c 1,49,50
 404 444 404 444 404 304 c 0,51,52
 404 224 404 224 374 140 c 0,53,54
 340 43 340 43 283 5 c 0,55,56
 241 -23 241 -23 183 -23 c 0,57,58
 166 -23 166 -23 130 -15 c 128,-1,59
 94 -7 94 -7 80 -7 c 0,60,61
 60 -7 60 -7 42 -15 c 1,62,-1
 40 -15 l 1,63,64
 31 -10 31 -10 26 0 c 1,65,66
 28 14 28 14 28 32 c 0,67,68
 28 60 28 60 12 82 c 1,69,-1
 25 101 l 1,70,71
 39 93 39 93 56 93 c 0,72,73
 57 93 57 93 108 110 c 1,74,75
 120 105 120 105 126 95 c 1,76,77
 114 80 114 80 114 61 c 0,78,79
 114 -3 114 -3 196 -3 c 0,80,81
 218 -3 218 -3 231 2 c 0,82,83
 270 17 270 17 299 86 c 0,84,85
 323 141 323 141 328 195 c 0,86,87
 331 227 331 227 331 276 c 0,88,89
 331 357 331 357 319 433 c 0,90,91
 303 537 303 537 270 578 c 0,92,93
 226 631 226 631 152 631 c 0,94,95
 101 631 101 631 68 591 c 128,-1,96
 35 551 35 551 35 499 c 0,97,98
 35 387 35 387 163 329 c 1,99,-1
 157 312 l 1,100,101
 88 329 88 329 50 378.5 c 128,-1,102
 12 428 12 428 12 499 c 0,103,104
 12 532 12 532 17 559 c 0,105,106
 28 619 28 619 79.5 662 c 128,-1,107
 131 705 131 705 191 705 c 1,108,-1
 191 706 l 1,0,-1
305 880 m 1,109,110
 434 827 434 827 436 827 c 0,111,112
 445 827 445 827 456 832 c 1,113,114
 469 845 469 845 478 863 c 1,115,-1
 497 856 l 1,116,117
 443 764 443 764 414 764 c 0,118,119
 399 764 399 764 286 818 c 1,120,-1
 284 818 l 1,121,-1
 283 818 l 1,122,-1
 277 818 l 2,123,124
 275 817 275 817 268 816 c 1,125,126
 238 781 238 781 236 781 c 0,127,128
 225 781 225 781 217 787 c 1,129,130
 262 860 262 860 281 874 c 0,131,132
 288 879 288 879 304 879 c 2,133,-1
 305 879 l 1,134,-1
 305 880 l 1,109,110
EndSplineSet
Validated: 1
EndChar

StartChar: Ograve
Encoding: 210 210 144
Width: 776
Flags: W
LayerCount: 2
Fore
SplineSet
264 727 m 1,0,1
 277 724 277 724 283 720 c 0,2,3
 295 699 295 699 303 692 c 0,4,5
 328 670 328 670 428 658 c 0,6,7
 537 646 537 646 589 616 c 0,8,9
 676 566 676 566 705 445 c 0,10,11
 719 386 719 386 719 356 c 0,12,13
 719 318 719 318 709 279 c 0,14,15
 682 172 682 172 612 103 c 0,16,17
 549 42 549 42 438 -1 c 0,18,19
 383 -22 383 -22 350 -22 c 0,20,21
 332 -22 332 -22 321 -20 c 0,22,23
 274 -11 274 -11 91 80 c 1,24,25
 58 76 58 76 29 53 c 1,26,-1
 17 67 l 1,27,-1
 137 154 l 1,28,29
 191 135 191 135 243 111 c 1,30,31
 286 86 286 86 329 62 c 0,32,33
 380 35 380 35 422 35 c 0,34,35
 522 35 522 35 598 132 c 0,36,37
 669 223 669 223 669 326 c 0,38,39
 669 437 669 437 593 510 c 0,40,41
 563 539 563 539 548 544 c 0,42,43
 516 556 516 556 454 575 c 1,44,45
 454 575 454 575 304 594 c 0,46,47
 258 600 258 600 234 648 c 1,48,49
 116 584 116 584 116 516 c 0,50,51
 116 472 116 472 185 388.5 c 128,-1,52
 254 305 254 305 254 276 c 0,53,54
 254 234 254 234 207 209 c 0,55,56
 169 189 169 189 123 189 c 0,57,58
 122 189 122 189 74 193 c 1,59,-1
 68 214 l 1,60,61
 78 210 78 210 105 210 c 0,62,63
 130 210 130 210 156 216 c 1,64,65
 175 231 175 231 175 256 c 0,66,67
 175 271 175 271 142 310 c 0,68,69
 92 368 92 368 80 385 c 0,70,71
 47 432 47 432 47 469 c 0,72,73
 47 526 47 526 93 572 c 0,74,75
 116 594 116 594 186 640 c 0,76,77
 243 678 243 678 257 704 c 0,78,79
 265 720 265 720 264 727 c 1,0,1
318 954 m 1,80,-1
 323 954 l 2,81,82
 349 954 349 954 357 939 c 2,83,-1
 441 785 l 1,84,-1
 421 785 l 1,85,-1
 306 896 l 2,86,87
 295 907 295 907 295 924 c 0,88,89
 295 949 295 949 318 953 c 1,90,-1
 318 954 l 1,80,-1
EndSplineSet
Validated: 1
EndChar

StartChar: Oacute
Encoding: 211 211 145
Width: 776
Flags: W
LayerCount: 2
Fore
SplineSet
264 727 m 1,0,1
 277 724 277 724 283 720 c 0,2,3
 294 701 294 701 303 692 c 0,4,5
 325 676 325 676 353 671 c 0,6,7
 411 663 411 663 469 655 c 0,8,9
 537 644 537 644 580 620 c 0,10,11
 628 593 628 593 663 546 c 0,12,13
 689 510 689 510 705 445 c 0,14,15
 714 407 714 407 718 369 c 1,16,-1
 718 365 l 2,17,18
 718 362 718 362 719 360 c 2,19,-1
 719 351 l 2,20,21
 719 318 719 318 709 279 c 0,22,23
 685 185 685 185 630 123 c 0,24,25
 564 47 564 47 438 -1 c 0,26,27
 399 -16 399 -16 357 -22 c 1,28,-1
 341 -22 l 2,29,30
 337 -22 337 -22 334 -21 c 0,31,32
 332 -21 332 -21 328 -21 c 0,33,34
 323 -20 323 -20 321 -20 c 0,35,36
 212 19 212 19 91 80 c 1,37,38
 58 76 58 76 29 53 c 1,39,-1
 17 67 l 1,40,-1
 137 154 l 1,41,42
 253 113 253 113 341 55 c 1,43,44
 381 35 381 35 412 35 c 2,45,-1
 431 35 l 2,46,47
 435 35 435 35 440 36 c 0,48,49
 459 36 459 36 485 47 c 0,50,51
 564 79 564 79 616 156 c 0,52,53
 644 198 644 198 658 245 c 0,54,55
 664 268 664 268 667 292 c 0,56,57
 667 295 667 295 667 301 c 0,58,59
 668 306 668 306 668.5 309.5 c 128,-1,60
 669 313 669 313 669 318 c 2,61,-1
 669 326 l 2,62,63
 669 393 669 393 637 453 c 128,-1,64
 605 513 605 513 548 544 c 1,65,-1
 454 575 l 1,66,-1
 304 594 l 2,67,68
 258 600 258 600 234 648 c 1,69,70
 185 621 185 621 145 583 c 0,71,72
 129 568 129 568 121 547 c 0,73,74
 116 534 116 534 116 520 c 2,75,-1
 116 514 l 2,76,77
 116 512 116 512 116 512 c 2,78,79
 118 486 118 486 131 460 c 1,80,-1
 247 307 l 1,81,82
 254 291 254 291 254 278 c 1,83,-1
 254 278 l 1,84,-1
 254 276 l 1,85,-1
 254 275 l 1,86,-1
 254 274 l 2,87,88
 254 242 254 242 207 208 c 0,89,90
 174 189 174 189 123 189 c 0,91,92
 122 189 122 189 74 193 c 1,93,-1
 68 214 l 1,94,95
 75 211 75 211 87 211 c 0,96,97
 91 210 91 210 96 210 c 2,98,-1
 105 210 l 2,99,100
 130 210 130 210 156 216 c 1,101,102
 169 226 169 226 172 236 c 0,103,104
 175 241 175 241 175 252 c 2,105,-1
 175 256 l 2,106,107
 175 258 175 258 174 260 c 0,108,109
 172 276 172 276 163 285 c 0,110,111
 105 345 105 345 62 413 c 0,112,113
 49 433 49 433 47 465 c 2,114,115
 47 465 47 465 47 467 c 2,116,-1
 47 473 l 2,117,118
 47 497 47 497 56.5 519.5 c 128,-1,119
 66 542 66 542 87 564 c 0,120,121
 135 613 135 613 188 643 c 0,122,123
 215 658 215 658 243 684 c 0,124,125
 260 703 260 703 264 726 c 1,126,-1
 264 727 l 1,0,1
409 955 m 1,127,128
 409 954 409 954 410 954 c 2,129,-1
 411 954 l 1,130,-1
 413 954 l 1,131,-1
 413 954 l 1,132,133
 419 954 419 954 425 952 c 0,134,135
 438 944 438 944 440 934 c 0,136,137
 442 932 442 932 442.5 929 c 128,-1,138
 443 926 443 926 443 925 c 2,139,-1
 443 921 l 2,140,141
 443 915 443 915 441 910 c 128,-1,142
 439 905 439 905 433 899 c 2,143,-1
 315 785 l 1,144,-1
 294 785 l 1,145,-1
 357 906 l 2,146,147
 367 926 367 926 391 947 c 0,148,149
 400 954 400 954 409 954 c 1,150,-1
 409 955 l 1,127,128
EndSplineSet
Validated: 5
EndChar

StartChar: Ocircumflex
Encoding: 212 212 146
Width: 404
Flags: W
LayerCount: 2
Fore
SplineSet
269 479 m 1,0,1
 279 473 279 473 281 464 c 1,2,-1
 268 455 l 1,3,4
 326 373 326 373 359 294 c 0,5,6
 367 275 367 275 367 252 c 2,7,-1
 367 247 l 2,8,9
 366 245 366 245 366 244 c 0,10,11
 366 242 366 242 366 241 c 0,12,13
 363 184 363 184 326 122 c 0,14,15
 308 93 308 93 293 77 c 2,16,-1
 201 -21 l 2,17,18
 198 -24 198 -24 190 -24 c 2,19,-1
 189 -24 l 1,20,-1
 187 -24 l 2,21,22
 186 -23 186 -23 186 -23 c 1,23,-1
 184 -23 l 1,24,25
 175 -14 175 -14 156 0 c 1,26,27
 112 21 112 21 41 38 c 1,28,-1
 41 40 l 1,29,-1
 41 42 l 1,30,-1
 41 43 l 2,31,32
 41 50 41 50 43 56 c 0,33,34
 62 78 62 78 62 99 c 0,35,36
 63 102 63 102 63 106 c 0,37,38
 63 112 63 112 63 112 c 2,39,40
 66 160 66 160 66 189 c 2,41,-1
 66 215 l 2,42,43
 66 292 66 292 61 347 c 2,44,-1
 57 391 l 1,45,-1
 269 479 l 1,0,1
192 420 m 1,46,-1
 130 397 l 1,47,-1
 130 87 l 1,48,-1
 223 44 l 2,49,50
 225 43 225 43 226 43 c 2,51,-1
 234 43 l 2,52,53
 238 44 238 44 246 46 c 0,54,55
 258 55 258 55 268 74 c 0,56,57
 308 130 308 130 308 179 c 2,58,-1
 308 185 l 2,59,60
 308 187 308 187 308 187 c 2,61,62
 306 217 306 217 296 243 c 0,63,64
 296 244 296 244 296 245 c 0,65,66
 295 246 295 246 294 246.5 c 128,-1,67
 293 247 293 247 293 250 c 2,68,-1
 192 420 l 1,46,-1
178 703 m 1,69,-1
 229 703 l 1,70,-1
 322 538 l 1,71,-1
 298 538 l 1,72,-1
 203 635 l 1,73,-1
 107 538 l 1,74,-1
 85 538 l 1,75,-1
 178 703 l 1,69,-1
EndSplineSet
Validated: 1
EndChar

StartChar: Otilde
Encoding: 213 213 147
Width: 776
Flags: W
LayerCount: 2
Fore
SplineSet
264 727 m 1,0,1
 277 724 277 724 283 720 c 0,2,3
 294 701 294 701 303 692 c 0,4,5
 325 676 325 676 353 671 c 0,6,7
 411 663 411 663 469 655 c 0,8,9
 537 644 537 644 580 620 c 0,10,11
 628 593 628 593 663 546 c 0,12,13
 689 510 689 510 705 445 c 0,14,15
 714 407 714 407 718 369 c 1,16,-1
 718 365 l 2,17,18
 718 362 718 362 719 360 c 2,19,-1
 719 351 l 2,20,21
 719 318 719 318 709 279 c 0,22,23
 685 185 685 185 630 123 c 0,24,25
 564 47 564 47 438 -1 c 0,26,27
 399 -16 399 -16 357 -22 c 1,28,-1
 341 -22 l 2,29,30
 337 -22 337 -22 334 -21 c 0,31,32
 332 -21 332 -21 328 -21 c 0,33,34
 323 -20 323 -20 321 -20 c 0,35,36
 212 19 212 19 91 80 c 1,37,38
 58 76 58 76 29 53 c 1,39,-1
 17 67 l 1,40,-1
 137 154 l 1,41,42
 253 113 253 113 341 55 c 1,43,44
 381 35 381 35 412 35 c 2,45,-1
 431 35 l 2,46,47
 435 35 435 35 440 36 c 0,48,49
 459 36 459 36 485 47 c 0,50,51
 564 79 564 79 616 156 c 0,52,53
 644 198 644 198 658 245 c 0,54,55
 664 268 664 268 667 292 c 0,56,57
 667 295 667 295 667 301 c 0,58,59
 668 306 668 306 668.5 309.5 c 128,-1,60
 669 313 669 313 669 318 c 2,61,-1
 669 326 l 2,62,63
 669 393 669 393 637 453 c 128,-1,64
 605 513 605 513 548 544 c 1,65,-1
 454 575 l 1,66,-1
 304 594 l 2,67,68
 258 600 258 600 234 648 c 1,69,70
 185 621 185 621 145 583 c 0,71,72
 129 568 129 568 121 547 c 0,73,74
 116 534 116 534 116 520 c 2,75,-1
 116 514 l 2,76,77
 116 512 116 512 116 512 c 2,78,79
 118 486 118 486 131 460 c 1,80,-1
 247 307 l 1,81,82
 254 291 254 291 254 278 c 1,83,-1
 254 278 l 1,84,-1
 254 276 l 1,85,-1
 254 275 l 1,86,-1
 254 274 l 2,87,88
 254 242 254 242 207 208 c 0,89,90
 174 189 174 189 123 189 c 0,91,92
 122 189 122 189 74 193 c 1,93,-1
 68 214 l 1,94,95
 75 211 75 211 87 211 c 0,96,97
 91 210 91 210 96 210 c 2,98,-1
 105 210 l 2,99,100
 130 210 130 210 156 216 c 1,101,102
 169 226 169 226 172 236 c 0,103,104
 175 241 175 241 175 252 c 2,105,-1
 175 256 l 2,106,107
 175 258 175 258 174 260 c 0,108,109
 172 276 172 276 163 285 c 0,110,111
 105 345 105 345 62 413 c 0,112,113
 49 433 49 433 47 465 c 2,114,115
 47 465 47 465 47 467 c 2,116,-1
 47 473 l 2,117,118
 47 497 47 497 56.5 519.5 c 128,-1,119
 66 542 66 542 87 564 c 0,120,121
 135 613 135 613 188 643 c 0,122,123
 215 658 215 658 243 684 c 0,124,125
 260 703 260 703 264 726 c 1,126,-1
 264 727 l 1,0,1
316 901 m 1,127,-1
 443 848 l 2,128,129
 445 847 445 847 447 847 c 2,130,-1
 451 847 l 2,131,132
 462 850 462 850 467 853 c 0,133,134
 481 867 481 867 489 883 c 1,135,-1
 508 876 l 1,136,137
 473 817 473 817 442 790 c 0,138,139
 434 784 434 784 429 784 c 2,140,-1
 425 784 l 2,141,142
 417 784 417 784 410.5 787.5 c 128,-1,143
 404 791 404 791 398 794 c 2,144,-1
 297 838 l 1,145,-1
 284 838 l 2,146,147
 281 838 281 838 279 836 c 2,148,-1
 249 802 l 2,149,150
 248 801 248 801 248 801 c 1,151,-1
 246 801 l 1,152,-1
 243 801 l 2,153,154
 241 801 241 801 240 802 c 0,155,156
 236 804 236 804 228 807 c 1,157,158
 273 880 273 880 292 894 c 0,159,160
 296 897 296 897 299.5 898.5 c 128,-1,161
 303 900 303 900 306 900 c 2,162,-1
 312 900 l 1,163,-1
 313 900 l 1,164,-1
 314 900 l 1,165,-1
 316 900 l 1,166,-1
 316 900 l 1,167,-1
 316 901 l 1,127,-1
EndSplineSet
Validated: 5
EndChar

StartChar: Odieresis
Encoding: 214 214 148
Width: 776
Flags: W
LayerCount: 2
Fore
SplineSet
264 727 m 1,0,1
 277 724 277 724 283 720 c 0,2,3
 294 701 294 701 303 692 c 0,4,5
 325 676 325 676 353 671 c 0,6,7
 411 663 411 663 469 655 c 0,8,9
 537 644 537 644 580 620 c 0,10,11
 628 593 628 593 663 546 c 0,12,13
 689 510 689 510 705 445 c 0,14,15
 714 407 714 407 718 369 c 1,16,-1
 718 365 l 2,17,18
 718 362 718 362 719 360 c 2,19,-1
 719 351 l 2,20,21
 719 318 719 318 709 279 c 0,22,23
 685 185 685 185 630 123 c 0,24,25
 564 47 564 47 438 -1 c 0,26,27
 399 -16 399 -16 357 -22 c 1,28,-1
 341 -22 l 2,29,30
 337 -22 337 -22 334 -21 c 0,31,32
 332 -21 332 -21 328 -21 c 0,33,34
 323 -20 323 -20 321 -20 c 0,35,36
 212 19 212 19 91 80 c 1,37,38
 58 76 58 76 29 53 c 1,39,-1
 17 67 l 1,40,-1
 137 154 l 1,41,42
 253 113 253 113 341 55 c 1,43,44
 381 35 381 35 412 35 c 2,45,-1
 431 35 l 2,46,47
 435 35 435 35 440 36 c 0,48,49
 459 36 459 36 485 47 c 0,50,51
 564 79 564 79 616 156 c 0,52,53
 644 198 644 198 658 245 c 0,54,55
 664 268 664 268 667 292 c 0,56,57
 667 295 667 295 667 301 c 0,58,59
 668 306 668 306 668.5 309.5 c 128,-1,60
 669 313 669 313 669 318 c 2,61,-1
 669 326 l 2,62,63
 669 393 669 393 637 453 c 128,-1,64
 605 513 605 513 548 544 c 1,65,-1
 454 575 l 1,66,-1
 304 594 l 2,67,68
 258 600 258 600 234 648 c 1,69,70
 185 621 185 621 145 583 c 0,71,72
 129 568 129 568 121 547 c 0,73,74
 116 534 116 534 116 520 c 2,75,-1
 116 514 l 2,76,77
 116 512 116 512 116 512 c 2,78,79
 118 486 118 486 131 460 c 1,80,-1
 247 307 l 1,81,82
 254 291 254 291 254 278 c 1,83,-1
 254 278 l 1,84,-1
 254 276 l 1,85,-1
 254 275 l 1,86,-1
 254 274 l 2,87,88
 254 242 254 242 207 208 c 0,89,90
 174 189 174 189 123 189 c 0,91,92
 122 189 122 189 74 193 c 1,93,-1
 68 214 l 1,94,95
 75 211 75 211 87 211 c 0,96,97
 91 210 91 210 96 210 c 2,98,-1
 105 210 l 2,99,100
 130 210 130 210 156 216 c 1,101,102
 169 226 169 226 172 236 c 0,103,104
 175 241 175 241 175 252 c 2,105,-1
 175 256 l 2,106,107
 175 258 175 258 174 260 c 0,108,109
 172 276 172 276 163 285 c 0,110,111
 105 345 105 345 62 413 c 0,112,113
 49 433 49 433 47 465 c 2,114,115
 47 465 47 465 47 467 c 2,116,-1
 47 473 l 2,117,118
 47 497 47 497 56.5 519.5 c 128,-1,119
 66 542 66 542 87 564 c 0,120,121
 135 613 135 613 188 643 c 0,122,123
 215 658 215 658 243 684 c 0,124,125
 260 703 260 703 264 726 c 1,126,-1
 264 727 l 1,0,1
451 929 m 1,127,128
 464 924 464 924 470 916 c 2,129,-1
 474 908 l 2,130,131
 474 907 474 907 475 904 c 0,132,133
 475 901 475 901 475 900 c 2,134,-1
 475 896 l 2,135,136
 475 894 475 894 474 892 c 0,137,138
 472 876 472 876 458 862 c 1,139,140
 435 824 435 824 391 786 c 1,141,-1
 371 785 l 1,142,-1
 407 911 l 1,143,144
 418 930 418 930 440 930 c 2,145,-1
 443 930 l 2,146,147
 444 930 444 930 446 929 c 0,148,149
 447 929 447 929 449 929 c 0,150,151
 450 928 450 928 451 928 c 1,152,-1
 451 929 l 1,127,128
307 932 m 1,153,154
 308 932 308 932 311 933 c 0,155,156
 313 933 313 933 314 933 c 2,157,-1
 323 933 l 2,158,159
 324 933 324 933 326 932 c 0,160,161
 327 932 327 932 329 932 c 0,162,163
 330 931 330 931 331 931 c 0,164,165
 343 924 343 924 347 912 c 0,166,167
 349 909 349 909 349 906 c 2,168,-1
 349 900 l 2,169,170
 349 894 349 894 348 889.5 c 128,-1,171
 347 885 347 885 346 882.5 c 128,-1,172
 345 880 345 880 343 878 c 2,173,-1
 282 788 l 1,174,-1
 261 788 l 1,175,-1
 274 892 l 2,176,177
 279 909 279 909 287 917 c 0,178,179
 295 929 295 929 307 931 c 1,180,-1
 307 932 l 1,153,154
EndSplineSet
Validated: 5
EndChar

StartChar: Oslash
Encoding: 216 216 150
Width: 776
Flags: W
LayerCount: 2
Fore
SplineSet
591 733 m 1,0,-1
 614 721 l 1,1,2
 598 689 598 689 566 626 c 1,3,4
 640 596 640 596 681 513 c 0,5,6
 718 440 718 440 718 353 c 0,7,8
 718 289 718 289 703 258 c 2,9,-1
 654 158 l 2,10,11
 620 89 620 89 460 9 c 0,12,13
 398 -22 398 -22 342 -22 c 0,14,15
 317 -22 317 -22 228 13 c 1,16,-1
 174 -75 l 1,17,-1
 150 -62 l 1,18,-1
 201 27 l 1,19,20
 101 81 101 81 80 81 c 0,21,22
 61 81 61 81 28 55 c 1,23,-1
 17 69 l 1,24,-1
 137 154 l 1,25,-1
 244 105 l 1,26,-1
 496 565 l 1,27,-1
 299 596 l 2,28,29
 258 602 258 602 233 648 c 1,30,-1
 137 578 l 2,31,32
 113 561 113 561 113 515 c 0,33,34
 113 474 113 474 183 390 c 128,-1,35
 253 306 253 306 253 275 c 0,36,37
 253 232 253 232 206 209 c 0,38,39
 169 191 169 191 122 191 c 1,40,41
 124 191 124 191 68 195 c 1,42,-1
 68 214 l 1,43,44
 84 206 84 206 109 206 c 0,45,46
 175 206 175 206 175 249 c 0,47,48
 175 270 175 270 141 310 c 0,49,50
 85 378 85 378 79 387 c 0,51,52
 45 435 45 435 45 477 c 0,53,54
 45 503 45 503 69 540 c 0,55,56
 91 574 91 574 114 591 c 0,57,58
 157 620 157 620 199 650 c 0,59,60
 260 696 260 696 262 722 c 0,61,62
 264 724 264 724 272 724 c 2,63,-1
 275 724 l 2,64,65
 276 723 276 723 282 722 c 1,66,67
 293 704 293 704 296 700 c 0,68,69
 305 689 305 689 315 683.5 c 128,-1,70
 325 678 325 678 330 677 c 0,71,72
 365 673 365 673 435 663 c 0,73,74
 486 653 486 653 538 639 c 1,75,-1
 591 733 l 1,0,-1
523 551 m 1,76,-1
 268 89 l 1,77,78
 306 70 306 70 344 51 c 0,79,80
 386 33 386 33 424 33 c 0,81,82
 469 33 469 33 521 63 c 0,83,84
 667 148 667 148 667 343 c 0,85,86
 667 407 667 407 625 470.5 c 128,-1,87
 583 534 583 534 523 550 c 1,88,-1
 523 551 l 1,76,-1
EndSplineSet
Validated: 33
EndChar

StartChar: Ugrave
Encoding: 217 217 151
Width: 591
Flags: W
LayerCount: 2
Fore
SplineSet
98 708 m 1,0,1
 142 703 142 703 170 648 c 1,2,-1
 170 119 l 1,3,-1
 177 100 l 1,4,5
 211 66 211 66 260 44 c 1,6,-1
 264 44 l 2,7,8
 297 44 297 44 412 122 c 1,9,-1
 412 576 l 2,10,11
 412 591 412 591 396 606.5 c 128,-1,12
 380 622 380 622 365 620 c 1,13,-1
 365 641 l 1,14,15
 411 652 411 652 441 707 c 1,16,-1
 462 708 l 1,17,18
 486 656 486 656 539 640 c 1,19,-1
 539 619 l 1,20,21
 522 615 522 615 508 600.5 c 128,-1,22
 494 586 494 586 494 568 c 2,23,-1
 494 94 l 2,24,25
 494 85 494 85 500.5 76 c 128,-1,26
 507 67 507 67 516 67 c 0,27,28
 541 67 541 67 565 86 c 1,29,-1
 578 75 l 1,30,-1
 472 -22 l 1,31,-1
 450 -22 l 1,32,-1
 454 -7 l 1,33,34
 409 11 409 11 409 95 c 1,35,36
 347 55 347 55 222 -15 c 0,37,38
 209 -21 209 -21 188 -21 c 0,39,40
 176 -21 176 -21 165 2 c 1,41,-1
 65 54 l 1,42,43
 62 61 62 61 62 68 c 2,44,-1
 63 70 l 1,45,-1
 63 73 l 1,46,47
 90 100 90 100 90 129 c 2,48,-1
 92 580 l 2,49,50
 92 597 92 597 74 608 c 1,51,-1
 72 608 l 1,52,-1
 69 609 l 1,53,-1
 66 609 l 2,54,55
 46 609 46 609 26 600 c 1,56,-1
 13 618 l 1,57,-1
 98 708 l 1,0,1
246 936 m 1,58,-1
 251 936 l 2,59,60
 276 936 276 936 285 920 c 2,61,-1
 369 767 l 1,62,-1
 348 767 l 1,63,-1
 234 877 l 2,64,65
 223 888 223 888 223 906 c 0,66,67
 223 931 223 931 246 935 c 1,68,-1
 246 936 l 1,58,-1
EndSplineSet
Validated: 33
EndChar

StartChar: Uacute
Encoding: 218 218 152
Width: 591
Flags: W
LayerCount: 2
Fore
SplineSet
98 708 m 1,0,1
 142 703 142 703 170 648 c 1,2,-1
 170 119 l 1,3,-1
 177 100 l 1,4,5
 211 66 211 66 260 44 c 1,6,-1
 264 44 l 2,7,8
 297 44 297 44 412 122 c 1,9,-1
 412 576 l 2,10,11
 412 591 412 591 396 606.5 c 128,-1,12
 380 622 380 622 365 620 c 1,13,-1
 365 641 l 1,14,15
 411 652 411 652 441 707 c 1,16,-1
 462 708 l 1,17,18
 486 656 486 656 539 640 c 1,19,-1
 539 619 l 1,20,21
 522 615 522 615 508 600.5 c 128,-1,22
 494 586 494 586 494 568 c 2,23,-1
 494 94 l 2,24,25
 494 85 494 85 500.5 76 c 128,-1,26
 507 67 507 67 516 67 c 0,27,28
 541 67 541 67 565 86 c 1,29,-1
 578 75 l 1,30,-1
 472 -22 l 1,31,-1
 450 -22 l 1,32,-1
 454 -7 l 1,33,34
 409 11 409 11 409 95 c 1,35,36
 347 55 347 55 222 -15 c 0,37,38
 209 -21 209 -21 188 -21 c 0,39,40
 176 -21 176 -21 165 2 c 1,41,-1
 65 54 l 1,42,43
 62 61 62 61 62 68 c 2,44,-1
 63 70 l 1,45,-1
 63 73 l 1,46,47
 90 100 90 100 90 129 c 2,48,-1
 92 580 l 2,49,50
 92 597 92 597 74 608 c 1,51,-1
 72 608 l 1,52,-1
 69 609 l 1,53,-1
 66 609 l 2,54,55
 46 609 46 609 26 600 c 1,56,-1
 13 618 l 1,57,-1
 98 708 l 1,0,1
336 937 m 1,58,59
 363 937 363 937 367 915 c 0,60,61
 370 910 370 910 370 903 c 0,62,63
 370 889 370 889 361 880 c 2,64,-1
 242 767 l 1,65,-1
 221 767 l 1,66,-1
 284 887 l 2,67,68
 297 912 297 912 319 928 c 0,69,70
 326 938 326 938 336 936 c 1,71,-1
 336 937 l 1,58,59
EndSplineSet
Validated: 33
EndChar

StartChar: Ucircumflex
Encoding: 219 219 153
Width: 591
Flags: W
LayerCount: 2
Fore
SplineSet
98 708 m 1,0,1
 142 703 142 703 170 648 c 1,2,-1
 170 119 l 1,3,-1
 177 100 l 1,4,5
 211 66 211 66 260 44 c 1,6,-1
 264 44 l 2,7,8
 297 44 297 44 412 122 c 1,9,-1
 412 576 l 2,10,11
 412 591 412 591 396 606.5 c 128,-1,12
 380 622 380 622 365 620 c 1,13,-1
 365 641 l 1,14,15
 411 652 411 652 441 707 c 1,16,-1
 462 708 l 1,17,18
 486 656 486 656 539 640 c 1,19,-1
 539 619 l 1,20,21
 522 615 522 615 508 600.5 c 128,-1,22
 494 586 494 586 494 568 c 2,23,-1
 494 94 l 2,24,25
 494 85 494 85 500.5 76 c 128,-1,26
 507 67 507 67 516 67 c 0,27,28
 541 67 541 67 565 86 c 1,29,-1
 578 75 l 1,30,-1
 472 -22 l 1,31,-1
 450 -22 l 1,32,-1
 454 -7 l 1,33,34
 409 11 409 11 409 95 c 1,35,36
 347 55 347 55 222 -15 c 0,37,38
 209 -21 209 -21 188 -21 c 0,39,40
 176 -21 176 -21 165 2 c 1,41,-1
 65 54 l 1,42,43
 62 61 62 61 62 68 c 2,44,-1
 63 70 l 1,45,-1
 63 73 l 1,46,47
 90 100 90 100 90 129 c 2,48,-1
 92 580 l 2,49,50
 92 597 92 597 74 608 c 1,51,-1
 72 608 l 1,52,-1
 69 609 l 1,53,-1
 66 609 l 2,54,55
 46 609 46 609 26 600 c 1,56,-1
 13 618 l 1,57,-1
 98 708 l 1,0,1
270 932 m 1,58,-1
 321 932 l 1,59,-1
 414 767 l 1,60,-1
 390 767 l 1,61,-1
 295 865 l 1,62,-1
 199 767 l 1,63,-1
 177 767 l 1,64,-1
 270 932 l 1,58,-1
EndSplineSet
Validated: 33
EndChar

StartChar: Udieresis
Encoding: 220 220 154
Width: 591
Flags: W
LayerCount: 2
Fore
SplineSet
98 708 m 1,0,1
 142 703 142 703 170 648 c 1,2,-1
 170 119 l 1,3,-1
 177 100 l 1,4,5
 211 66 211 66 260 44 c 1,6,-1
 264 44 l 2,7,8
 297 44 297 44 412 122 c 1,9,-1
 412 576 l 2,10,11
 412 591 412 591 396 606.5 c 128,-1,12
 380 622 380 622 365 620 c 1,13,-1
 365 641 l 1,14,15
 411 652 411 652 441 707 c 1,16,-1
 462 708 l 1,17,18
 486 656 486 656 539 640 c 1,19,-1
 539 619 l 1,20,21
 522 615 522 615 508 600.5 c 128,-1,22
 494 586 494 586 494 568 c 2,23,-1
 494 94 l 2,24,25
 494 85 494 85 500.5 76 c 128,-1,26
 507 67 507 67 516 67 c 0,27,28
 541 67 541 67 565 86 c 1,29,-1
 578 75 l 1,30,-1
 472 -22 l 1,31,-1
 450 -22 l 1,32,-1
 454 -7 l 1,33,34
 409 11 409 11 409 95 c 1,35,36
 347 55 347 55 222 -15 c 0,37,38
 209 -21 209 -21 188 -21 c 0,39,40
 176 -21 176 -21 165 2 c 1,41,-1
 65 54 l 1,42,43
 62 61 62 61 62 68 c 2,44,-1
 63 70 l 1,45,-1
 63 73 l 1,46,47
 90 100 90 100 90 129 c 2,48,-1
 92 580 l 2,49,50
 92 597 92 597 74 608 c 1,51,-1
 72 608 l 1,52,-1
 69 609 l 1,53,-1
 66 609 l 2,54,55
 46 609 46 609 26 600 c 1,56,-1
 13 618 l 1,57,-1
 98 708 l 1,0,1
378 911 m 1,58,59
 402 903 402 903 402 877 c 0,60,61
 402 859 402 859 368 819 c 0,62,63
 340 785 340 785 319 768 c 1,64,-1
 298 767 l 1,65,-1
 334 893 l 1,66,67
 352 911 352 911 360 911 c 0,68,69
 375 911 375 911 378 910 c 1,70,-1
 378 911 l 1,58,59
235 914 m 1,71,-1
 241 915 l 2,72,73
 277 917 277 917 277 885 c 0,74,75
 277 879 277 879 274 871 c 128,-1,76
 271 863 271 863 271 860 c 2,77,-1
 209 770 l 1,78,-1
 189 770 l 1,79,-1
 201 873 l 2,80,81
 202 885 202 885 212.5 897.5 c 128,-1,82
 223 910 223 910 235 913 c 1,83,-1
 235 914 l 1,71,-1
EndSplineSet
Validated: 33
EndChar

StartChar: Yacute
Encoding: 221 221 155
Width: 719
Flags: W
LayerCount: 2
Fore
SplineSet
529 708 m 1,0,-1
 543 697 l 1,1,-1
 538 676 l 1,2,3
 610 552 610 552 648 437 c 0,4,5
 661 398 661 398 661 320 c 0,6,7
 661 273 661 273 649 209 c 0,8,9
 636 139 636 139 618 104 c 2,10,-1
 583 37 l 2,11,12
 568 9 568 9 521 -49 c 0,13,14
 402 -191 402 -191 297 -191 c 0,15,16
 250 -191 250 -191 214 -173 c 0,17,18
 168 -150 168 -150 168 -108 c 0,19,20
 168 -61 168 -61 211 -61 c 0,21,22
 234 -61 234 -61 245 -82 c 1,23,24
 241 -110 241 -110 241 -109 c 1,25,26
 241 -134 241 -134 265 -148 c 0,27,28
 284 -160 284 -160 312 -160 c 0,29,30
 366 -160 366 -160 433 -103 c 0,31,32
 492 -53 492 -53 523 3 c 0,33,34
 535 24 535 24 538 36 c 0,35,36
 555 96 555 96 572 157 c 0,37,38
 585 213 585 213 585 273 c 0,39,40
 585 343 585 343 574 376 c 0,41,42
 564 413 564 413 539 482 c 1,43,44
 514 528 514 528 464 618 c 1,45,-1
 457 618 l 1,46,47
 408 573 408 573 375 521 c 1,48,49
 386 477 386 477 386 424 c 0,50,51
 386 347 386 347 353 274 c 0,52,53
 316 193 316 193 255 158 c 1,54,-1
 357 75 l 2,55,56
 368 66 368 66 389 66 c 0,57,58
 404 66 404 66 434 84 c 1,59,-1
 447 67 l 1,60,-1
 301 -22 l 1,61,-1
 285 -7 l 1,62,-1
 299 12 l 1,63,64
 252 64 252 64 191 98 c 0,65,66
 182 102 182 102 165 112 c 1,67,-1
 112 111 l 1,68,-1
 110 130 l 1,69,70
 180 140 180 140 234 177 c 0,71,72
 295 218 295 218 313 280 c 0,73,74
 323 315 323 315 323 366 c 0,75,76
 323 549 323 549 214 613 c 0,77,78
 185 630 185 630 161 630 c 0,79,80
 102 630 102 630 66 591 c 128,-1,81
 30 552 30 552 30 492 c 0,82,83
 30 429 30 429 67.5 384 c 128,-1,84
 105 339 105 339 167 331 c 1,85,-1
 163 314 l 1,86,87
 67 320 67 320 22 407 c 0,88,89
 3 444 3 444 3 508 c 0,90,91
 3 584 3 584 60.5 644 c 128,-1,92
 118 704 118 704 193 704 c 0,93,94
 252 704 252 704 304 656 c 0,95,96
 353 610 353 610 368 550 c 1,97,98
 456 643 456 643 529 707 c 1,99,-1
 529 708 l 1,0,-1
373 937 m 1,100,101
 400 937 400 937 404 915 c 0,102,103
 406 912 406 912 406 903 c 0,104,105
 406 889 406 889 397 880 c 2,106,-1
 279 767 l 1,107,-1
 258 767 l 1,108,-1
 321 887 l 2,109,110
 347 936 347 936 373 936 c 1,111,-1
 373 937 l 1,100,101
EndSplineSet
Validated: 1
EndChar

StartChar: Thorn
Encoding: 222 222 156
Width: 404
Flags: W
LayerCount: 2
Fore
SplineSet
91 499 m 1,0,1
 101 495 101 495 105 486 c 1,2,3
 105 474 105 474 99 464 c 1,4,5
 139 424 139 424 143 376 c 1,6,-1
 296 481 l 1,7,-1
 304 467 l 1,8,-1
 295 455 l 1,9,-1
 372 318 l 2,10,11
 384 297 384 297 384 264 c 0,12,13
 384 215 384 215 357 163 c 0,14,15
 341 132 341 132 292 65 c 0,16,17
 240 -4 240 -4 219 -22 c 0,18,19
 217 -24 217 -24 209 -24 c 2,20,-1
 206 -24 l 1,21,-1
 202 -21 l 1,22,-1
 199 -15 l 1,23,-1
 138 12 l 1,24,-1
 121 -187 l 1,25,-1
 101 -186 l 1,26,-1
 82 18 l 2,27,28
 82 23 82 23 73 29 c 0,29,30
 70 30 70 30 64 30 c 0,31,32
 44 30 44 30 33 11 c 1,33,-1
 21 22 l 1,34,-1
 77 103 l 1,35,-1
 77 339 l 1,36,-1
 32 404 l 1,37,38
 55 456 55 456 91 498 c 1,39,-1
 91 499 l 1,0,1
223 406 m 1,40,-1
 144 344 l 1,41,-1
 144 87 l 1,42,-1
 226 47 l 1,43,-1
 245 47 l 1,44,45
 271 81 271 81 296 115 c 0,46,47
 326 159 326 159 326 195 c 0,48,49
 326 232 326 232 290 303 c 0,50,51
 262 360 262 360 230 405 c 1,52,-1
 223 406 l 1,40,-1
EndSplineSet
Validated: 1
EndChar

StartChar: germandbls
Encoding: 223 223 157
Width: 423
Flags: W
LayerCount: 2
Fore
SplineSet
223 687 m 1,0,1
 270 685 270 685 314 673 c 1,2,3
 316 679 316 679 322 681 c 2,4,-1
 325 681 l 2,5,6
 326 681 326 681 328.5 680 c 128,-1,7
 331 679 331 679 337 675 c 1,8,-1
 293 592 l 1,9,10
 206 624 206 624 184 624 c 0,11,12
 160 624 160 624 141.5 609.5 c 128,-1,13
 123 595 123 595 123 572 c 1,14,-1
 161 402 l 1,15,-1
 275 476 l 2,16,17
 276 475 276 475 277 475 c 2,18,-1
 278 475 l 2,19,20
 314 475 314 475 340.5 435.5 c 128,-1,21
 367 396 367 396 367 356 c 0,22,23
 367 348 367 348 366 341 c 0,24,25
 356 289 356 289 283 213 c 1,26,27
 363 191 363 191 363 78 c 0,28,29
 363 7 363 7 322 -45 c 0,30,31
 278 -101 278 -101 208 -106 c 0,32,33
 176 -108 176 -108 133 -96 c 1,34,-1
 123 -187 l 1,35,-1
 103 -187 l 1,36,37
 80 83 80 83 76 384 c 1,38,-1
 28 387 l 2,39,40
 24 391 24 391 28 403 c 0,41,42
 32 416 32 416 57 422 c 1,43,44
 91 503 91 503 103 591 c 1,45,46
 140 686 140 686 223 686 c 1,47,-1
 223 687 l 1,0,1
155 137 m 1,48,-1
 137 -82 l 1,49,50
 175 -99 175 -99 214 -89 c 0,51,52
 252 -79 252 -79 274.5 -46 c 128,-1,53
 297 -13 297 -13 297 28 c 0,54,55
 297 73 297 73 274 110 c 0,56,57
 248 151 248 151 207 155 c 1,58,59
 184 148 184 148 155 137 c 1,48,-1
159 370 m 1,60,-1
 156 164 l 1,61,62
 211 176 211 176 258 217 c 0,63,64
 310 263 310 263 310 314 c 0,65,66
 310 338 310 338 298 360 c 0,67,68
 273 406 273 406 238 406 c 0,69,70
 235 407 235 407 231 407 c 0,71,72
 218 407 218 407 191 392 c 0,73,74
 169 379 169 379 159 370 c 1,60,-1
EndSplineSet
Validated: 33
EndChar

StartChar: agrave
Encoding: 224 224 158
Width: 657
Flags: W
LayerCount: 2
Fore
SplineSet
125 108 m 0,0,1
 109 132 109 132 109 238 c 0,2,3
 109 328 109 328 121 394 c 1,4,-1
 149 421 l 1,5,-1
 211 374 l 2,6,7
 222 369 222 369 235 374 c 1,8,-1
 306 440 l 1,9,-1
 307 86 l 1,10,11
 301 50 301 50 253 50 c 0,12,13
 217 50 217 50 176 69 c 128,-1,14
 135 88 135 88 125 108 c 0,0,1
353 -17 m 1,15,-1
 354 -17 l 2,16,17
 374 -17 374 -17 381 -10 c 0,18,19
 390 7 390 7 421 39.5 c 128,-1,20
 452 72 452 72 453 74 c 0,21,22
 456 81 456 81 445 95 c 1,23,24
 419 64 419 64 394 64 c 0,25,26
 376 64 376 64 376 92 c 2,27,-1
 376 336 l 1,28,-1
 444 403 l 1,29,30
 458 401 458 401 467 389 c 0,31,32
 549 278 549 278 549 165 c 0,33,34
 549 18 549 18 395 -176 c 1,35,-1
 411 -189 l 1,36,37
 518 -38 518 -38 546 11 c 0,38,39
 614 132 614 132 614 230 c 0,40,41
 614 319 614 319 560 401 c 0,42,43
 541 429 541 429 518 454 c 1,44,45
 520 458 520 458 520 462 c 2,46,-1
 520 464 l 1,47,-1
 520 465 l 2,48,49
 519 466 519 466 519 467 c 2,50,-1
 519 468 l 2,51,52
 517 477 517 477 507 481 c 1,53,54
 438 431 438 431 379 369 c 1,55,-1
 379 587 l 1,56,57
 395 665 395 665 469 672 c 1,58,-1
 471 690 l 1,59,60
 467 691 467 691 463 691 c 0,61,62
 362 691 362 691 335 595 c 1,63,64
 325 625 325 625 303 651 c 1,65,-1
 291 639 l 1,66,67
 302 624 302 624 307 603 c 1,68,-1
 307 470 l 1,69,70
 278 441 278 441 277 440 c 0,71,72
 264 430 264 430 250 432 c 1,73,-1
 196 476 l 1,74,-1
 181 476 l 1,75,-1
 53 358 l 1,76,77
 48 328 48 328 47 316 c 0,78,79
 47 304 47 304 47 137 c 1,80,81
 57 75 57 75 68 52 c 0,82,83
 87 13 87 13 134 -3 c 1,84,-1
 134 -19 l 2,85,86
 137 -24 137 -24 144 -26 c 1,87,88
 181 -8 181 -8 217 11 c 0,89,90
 259 31 259 31 284 31 c 0,91,92
 325 31 325 31 353 -17 c 1,15,-1
EndSplineSet
Validated: 9
EndChar

StartChar: aacute
Encoding: 225 225 159
Width: 430
Flags: W
LayerCount: 2
Fore
SplineSet
116 -22 m 0,0,1
 114 -21 114 -21 110.5 -19.5 c 128,-1,2
 107 -18 107 -18 106 -15 c 2,3,-1
 106 1 l 1,4,5
 20 25 20 25 20 140 c 2,6,-1
 20 326 l 1,7,-1
 26 360 l 1,8,-1
 153 477 l 1,9,-1
 167 477 l 1,10,-1
 221 434 l 1,11,12
 230 432 230 432 232 435 c 2,13,-1
 265 467 l 1,14,-1
 265 602 l 1,15,16
 261 614 261 614 248 638 c 1,17,-1
 259 649 l 1,18,19
 284 631 284 631 293 598 c 1,20,21
 301 643 301 643 342 667 c 0,22,23
 377 688 377 688 425 688 c 1,24,-1
 425 670 l 1,25,26
 390 667 390 667 363 645 c 128,-1,27
 336 623 336 623 335 589 c 2,28,-1
 333 537 l 1,29,30
 347 587 347 587 357 604.5 c 128,-1,31
 367 622 367 622 384 630 c 0,32,33
 406 640 406 640 429 649 c 1,34,-1
 421 537 l 1,35,36
 383 544 383 544 348 499 c 1,37,-1
 419 499 l 1,38,-1
 419 476 l 1,39,-1
 336 476 l 1,40,-1
 335 82 l 2,41,42
 335 78 335 78 338 71 c 0,43,44
 347 61 347 61 356 61 c 0,45,46
 364 61 364 61 372 70 c 0,47,48
 376 73 376 73 381 79 c 1,49,-1
 393 68 l 1,50,51
 351 27 351 27 324 -16 c 0,52,53
 319 -18 319 -18 316 -18 c 0,54,55
 314 -19 314 -19 309 -17 c 0,56,57
 285 32 285 32 244 32 c 0,58,59
 219 32 219 32 180 12 c 0,60,61
 148 -5 148 -5 116 -22 c 0,0,1
265 107 m 2,62,-1
 265 437 l 1,63,-1
 193 376 l 1,64,-1
 182 376 l 1,65,-1
 121 423 l 1,66,-1
 93 396 l 1,67,68
 88 362 88 362 88 362 c 1,69,-1
 89 141 l 2,70,71
 89 108 89 108 130 78.5 c 128,-1,72
 171 49 171 49 211 49 c 0,73,74
 265 49 265 49 265 107 c 2,62,-1
EndSplineSet
Validated: 33
EndChar

StartChar: adieresis
Encoding: 228 228 160
Width: 444
Flags: W
LayerCount: 2
Fore
SplineSet
209 474 m 1,0,-1
 220 474 l 2,1,2
 231 474 231 474 241 470 c 0,3,4
 304 424 304 424 375 395 c 0,5,6
 377 391 377 391 377 388 c 0,7,8
 376 384 376 384 374 380 c 0,9,10
 364 377 364 377 353 366 c 1,11,12
 347 351 347 351 347 343 c 2,13,-1
 347 342 l 1,14,-1
 347 340 l 1,15,-1
 347 107 l 1,16,-1
 347 106 l 1,17,-1
 347 105 l 1,18,-1
 347 103 l 2,19,20
 347 96 347 96 354 75 c 0,21,22
 360 64 360 64 371.5 59.5 c 128,-1,23
 383 55 383 55 386 55 c 2,24,-1
 387 55 l 1,25,-1
 388 55 l 1,26,-1
 390 55 l 1,27,-1
 390 55 l 1,28,29
 407 65 407 65 413 75 c 1,30,-1
 426 65 l 1,31,-1
 345 -29 l 1,32,33
 338 -27 338 -27 334.5 -15.5 c 128,-1,34
 331 -4 331 -4 323 2 c 0,35,36
 308 13 308 13 295 24 c 1,37,38
 283 52 283 52 278 89 c 1,39,-1
 138 -25 l 1,40,-1
 121 -20 l 1,41,-1
 128 -11 l 1,42,-1
 68 73 l 1,43,44
 37 135 37 135 37 204 c 0,45,46
 37 207 37 207 37 214 c 0,47,48
 38 221 38 221 38 224 c 0,49,50
 41 244 41 244 50 285 c 0,51,52
 56 304 56 304 65 323 c 0,53,54
 91 360 91 360 108 376 c 2,55,-1
 209 474 l 1,0,-1
182 416 m 1,56,57
 116 363 116 363 103 278 c 0,58,59
 100 262 100 262 100 245 c 2,60,-1
 100 241 l 2,61,62
 100 238 100 238 101 236 c 2,63,-1
 101 227 l 1,64,65
 105 179 105 179 122 142 c 0,66,67
 130 117 130 117 154 84 c 0,68,69
 159 78 159 78 171 66 c 2,70,-1
 179 57 l 2,71,72
 185 53 185 53 192 53 c 2,73,-1
 196 53 l 2,74,75
 197 53 197 53 199 54 c 2,76,-1
 283 117 l 1,77,-1
 283 357 l 1,78,-1
 182 416 l 1,56,57
315 677 m 1,79,80
 328 672 328 672 334 664 c 0,81,82
 338 660 338 660 338 652 c 0,83,84
 339 651 339 651 339 650 c 2,85,-1
 339 644 l 2,86,87
 339 642 339 642 338 640 c 0,88,89
 336 624 336 624 322 610 c 1,90,91
 296 568 296 568 255 535 c 1,92,-1
 234 534 l 1,93,-1
 271 660 l 1,94,95
 280 672 280 672 289 675 c 0,96,97
 295 678 295 678 304 678 c 2,98,-1
 307 678 l 2,99,100
 308 678 308 678 310 677 c 0,101,102
 311 677 311 677 313 677 c 0,103,104
 314 676 314 676 315 676 c 1,105,-1
 315 677 l 1,79,80
171 680 m 1,106,107
 172 680 172 680 175 681 c 0,108,109
 177 681 177 681 178 681 c 2,110,-1
 187 681 l 2,111,112
 188 681 188 681 189 680 c 0,113,114
 190 680 190 680 192 680 c 0,115,116
 193 679 193 679 194 679 c 0,117,118
 207 672 207 672 211 661 c 0,119,120
 213 659 213 659 213 655 c 2,121,-1
 213 648 l 2,122,123
 213 642 213 642 211.5 637.5 c 128,-1,124
 210 633 210 633 207 626 c 2,125,-1
 146 537 l 1,126,-1
 125 537 l 1,127,-1
 138 640 l 2,128,129
 143 657 143 657 151 665 c 0,130,131
 159 677 159 677 171 679 c 1,132,-1
 171 680 l 1,106,107
EndSplineSet
Validated: 5
EndChar

StartChar: ae
Encoding: 230 230 161
Width: 572
Flags: W
LayerCount: 2
Fore
SplineSet
208 476 m 1,0,-1
 219 476 l 1,1,-1
 339 406 l 1,2,-1
 422 474 l 1,3,-1
 441 474 l 1,4,-1
 538 314 l 1,5,6
 434 244 434 244 355 163 c 0,7,8
 349 160 349 160 344 150 c 0,9,10
 344 149 344 149 344 148 c 0,11,12
 343 146 343 146 343 145 c 2,13,-1
 343 140 l 2,14,15
 343 126 343 126 354 107 c 0,16,17
 362 91 362 91 380 78 c 128,-1,18
 398 65 398 65 424 61 c 0,19,20
 427 60 427 60 431 60 c 2,21,-1
 441 60 l 2,22,23
 442 60 442 60 443 61 c 2,24,-1
 449 61 l 1,25,26
 474 65 474 65 488 77 c 0,27,28
 501 85 501 85 516 104 c 1,29,-1
 530 94 l 1,30,31
 464 30 464 30 394 -26 c 1,32,33
 387 -24 387 -24 382 -15 c 0,34,35
 383 -11 383 -11 384 -9 c 0,36,37
 384 -8 384 -8 384 -7 c 0,38,39
 349 4 349 4 334 14 c 0,40,41
 312 29 312 29 295 53 c 0,42,43
 283 70 283 70 276 93 c 1,44,-1
 129 -26 l 1,45,-1
 118 -20 l 1,46,-1
 121 -7 l 1,47,-1
 59 78 l 1,48,49
 30 144 30 144 30 196 c 2,50,-1
 30 205 l 2,51,52
 30 241 30 241 47 289 c 0,53,54
 69 353 69 353 104 384 c 2,55,-1
 208 476 l 1,0,-1
176 416 m 1,56,57
 138 388 138 388 118 349 c 0,58,59
 95 304 95 304 95 250 c 2,60,-1
 95 242 l 2,61,62
 95 238 95 238 95 229 c 0,63,64
 96 221 96 221 96 217 c 0,65,66
 101 184 101 184 106 167 c 0,67,68
 117 128 117 128 143 93 c 0,69,70
 151 82 151 82 172 58 c 0,71,72
 178 54 178 54 184 54 c 2,73,-1
 185 54 l 1,74,-1
 186 54 l 1,75,-1
 188 54 l 1,76,-1
 188 54 l 1,77,-1
 190 55 l 1,78,-1
 274 117 l 1,79,-1
 275 361 l 1,80,-1
 176 416 l 1,56,57
390 412 m 1,81,82
 376 410 376 410 368 405 c 0,83,84
 353 392 353 392 350 376 c 0,85,86
 338 314 338 314 338 232 c 0,87,88
 338 201 338 201 340 171 c 1,89,-1
 450 266 l 1,90,-1
 462 281 l 1,91,-1
 390 412 l 1,81,82
EndSplineSet
Validated: 5
EndChar

StartChar: ccedilla
Encoding: 231 231 162
Width: 295
Flags: W
LayerCount: 2
Fore
SplineSet
152 -26 m 1,0,-1
 177 -26 l 1,1,-1
 153 -82 l 1,2,3
 172 -70 172 -70 193 -70 c 1,4,5
 190 -70 190 -70 209 -74 c 1,6,7
 231 -93 231 -93 231 -113 c 0,8,9
 231 -147 231 -147 187 -183 c 0,10,11
 151 -212 151 -212 111 -227 c 1,12,-1
 103 -214 l 1,13,14
 128 -203 128 -203 147 -182 c 0,15,16
 171 -158 171 -158 171 -135 c 0,17,18
 171 -116 171 -116 151 -116 c 1,19,20
 151 -116 151 -116 145.5 -118 c 128,-1,21
 140 -120 140 -120 123 -128 c 1,22,-1
 122 -128 l 1,23,-1
 117 -128 l 2,24,25
 115 -127 115 -127 111 -123 c 2,26,-1
 109 -122 l 1,27,-1
 152 -26 l 1,0,-1
181 476 m 1,28,-1
 196 476 l 1,29,-1
 250 432 l 1,30,-1
 254 432 l 2,31,32
 263 431 263 431 273 439 c 1,33,-1
 287 427 l 1,34,-1
 223 374 l 1,35,-1
 211 374 l 1,36,-1
 149 421 l 1,37,-1
 121 394 l 1,38,39
 111 337 111 337 111 260 c 0,40,41
 111 155 111 155 125 108 c 0,42,43
 130 93 130 93 150 77.5 c 128,-1,44
 170 62 170 62 186 62 c 0,45,46
 197 62 197 62 205 64 c 2,47,-1
 264 111 l 1,48,-1
 281 100 l 1,49,-1
 144 -26 l 1,50,51
 137 -23 137 -23 134 -19 c 2,52,-1
 134 -3 l 1,53,54
 91 11 91 11 68 52 c 0,55,56
 47 89 47 89 47 137 c 2,57,-1
 47 324 l 1,58,59
 47 324 47 324 53 358 c 1,60,-1
 181 476 l 1,28,-1
EndSplineSet
Validated: 1
EndChar

StartChar: egrave
Encoding: 232 232 163
Width: 432
Flags: W
LayerCount: 2
Fore
SplineSet
446 684 m 1,0,-1
 413 604 l 1,1,2
 378 631 378 631 342 631 c 0,3,4
 292 631 292 631 292 568 c 0,5,6
 292 530 292 530 320 444 c 1,7,-1
 404 444 l 1,8,-1
 404 388 l 1,9,-1
 320 388 l 1,10,11
 320 34 320 34 295 -191 c 1,12,-1
 279 -191 l 1,13,14
 252 75 252 75 252 293 c 0,15,16
 252 341 252 341 254 388 c 1,17,-1
 125 388 l 1,18,19
 127 334 127 334 127 279 c 0,20,21
 127 72 127 72 100 -193 c 1,22,-1
 84 -193 l 1,23,24
 57 75 57 75 57 292 c 0,25,26
 57 340 57 340 59 386 c 1,27,-1
 16 389 l 2,28,29
 14 392 14 392 14 396 c 0,30,31
 14 403 14 403 18 407 c 0,32,33
 47 417 47 417 53 451 c 2,34,-1
 78 590 l 2,35,36
 84 624 84 624 125.5 658 c 128,-1,37
 167 692 167 692 204 692 c 0,38,39
 257 692 257 692 298 653 c 1,40,41
 326 695 326 695 375 695 c 0,42,43
 399 695 399 695 423 684 c 1,44,45
 428 692 428 692 434 692 c 0,46,47
 441 692 441 692 446 684 c 1,0,-1
276 596 m 1,48,49
 256 606 256 606 214 617 c 128,-1,50
 172 628 172 628 149 628 c 0,51,52
 97 628 97 628 97 559 c 0,53,54
 97 539 97 539 125 444 c 1,55,-1
 246 443 l 1,56,-1
 276 596 l 1,48,49
EndSplineSet
Validated: 1
EndChar

StartChar: eacute
Encoding: 233 233 164
Width: 429
Flags: W
LayerCount: 2
Fore
SplineSet
346 430 m 1,0,1
 361 419 361 419 377 413 c 0,2,3
 379 410 379 410 379 405 c 0,4,5
 379 399 379 399 377 395 c 0,6,7
 346 377 346 377 346 359 c 2,8,-1
 346 100 l 2,9,10
 346 73 346 73 370 63 c 1,11,-1
 400 87 l 1,12,-1
 414 73 l 1,13,-1
 327 -20 l 1,14,-1
 323 -20 l 1,15,-1
 318 -18 l 1,16,17
 304 19 304 19 278 34 c 1,18,-1
 278 369 l 2,19,20
 278 377 278 377 269 384 c 1,21,22
 171 384 171 384 157 386 c 1,23,24
 158 358 158 358 158 331 c 0,25,26
 158 48 158 48 128 -187 c 1,27,-1
 110 -187 l 1,28,29
 80 80 80 80 80 298 c 0,30,31
 80 342 80 342 81 384 c 1,32,-1
 32 387 l 2,33,34
 30 389 30 389 30 393 c 0,35,36
 30 401 30 401 34 405 c 0,37,38
 68 418 68 418 74 448 c 2,39,-1
 103 585 l 2,40,41
 103 586 103 586 115.5 616 c 128,-1,42
 128 646 128 646 170 666 c 0,43,44
 208 685 208 685 246 685 c 0,45,46
 290 685 290 685 339 651 c 0,47,48
 366 632 366 632 366 574 c 0,49,50
 366 505 366 505 315 505 c 0,51,52
 270 505 270 505 270 564 c 0,53,54
 270 588 270 588 279 598 c 1,55,56
 273 610 273 610 249 619 c 128,-1,57
 225 628 225 628 208 628 c 0,58,59
 179 628 179 628 152 609 c 128,-1,60
 125 590 125 590 125 564 c 0,61,62
 125 527 125 527 157 431 c 1,63,-1
 346 430 l 1,0,1
EndSplineSet
Validated: 1
EndChar

